<svg width="1202" height="257" viewBox="0 0 1202 257" fill="none" xmlns="http://www.w3.org/2000/svg">
<rect width="1202" height="257" fill="#F5F5F5"/>
<rect width="1202" height="257" rx="16" fill="#0B1757"/>
<g opacity="0.8">
<path d="M962.282 174.329L951.906 176.041C950.642 176.249 949.633 177.209 949.361 178.461C949.089 179.713 949.61 181.005 950.674 181.718L959.406 187.577C960.253 188.145 961.407 187.681 961.624 186.683C961.71 186.285 961.624 185.869 961.388 185.537L959.525 182.929C959.041 182.25 958.865 181.398 959.042 180.583C959.218 179.775 959.723 179.078 960.435 178.659L963.247 177.008C963.595 176.803 963.842 176.463 963.928 176.068L963.929 176.062C964.146 175.064 963.288 174.163 962.282 174.329Z" fill="white"/>
<path d="M1084.37 53.3304C1084.37 53.9757 1083.86 54.5162 1083.21 54.553C1082.54 54.5908 1081.96 54.0738 1081.92 53.3982C1081.81 51.4955 1081.7 50.4071 1081.7 50.3961C1081.64 49.7232 1082.13 49.1222 1082.8 49.0545C1083.47 48.9874 1084.07 49.4779 1084.14 50.1515C1084.15 50.1972 1084.26 51.2974 1084.37 53.2606C1084.37 53.2836 1084.37 53.307 1084.37 53.3304Z" fill="white"/>
<path d="M1084.59 61.508C1084.59 62.8602 1084.57 64.2338 1084.54 65.5909C1084.52 66.2679 1083.96 66.8025 1083.28 66.786C1082.6 66.7695 1082.07 66.2063 1082.09 65.5304C1082.12 64.1929 1082.14 62.8399 1082.14 61.5083C1082.14 60.7966 1082.13 60.1117 1082.12 59.4564C1082.12 59.4505 1082.12 59.4454 1082.12 59.4398C1082.12 58.7704 1082.66 58.2235 1083.33 58.2145C1084.01 58.2059 1084.57 58.7474 1084.57 59.4244C1084.58 60.0897 1084.59 60.7852 1084.59 61.508ZM1084.27 71.6756C1084.27 71.701 1084.27 71.7272 1084.27 71.7537C1084.14 73.8166 1083.97 75.8851 1083.76 77.9016C1083.69 78.5752 1083.09 79.0654 1082.42 78.9966C1081.75 78.9281 1081.25 78.3258 1081.32 77.6529C1081.53 75.668 1081.69 73.6323 1081.82 71.6006C1081.86 70.925 1082.45 70.4117 1083.12 70.4537C1083.77 70.4943 1084.27 71.0337 1084.27 71.6756ZM1083.02 83.8501C1083.02 83.9086 1083.02 83.9677 1083.01 84.0276C1082.71 86.0882 1082.37 88.137 1081.98 90.1181C1081.86 90.7827 1081.21 91.2179 1080.55 91.0896C1079.88 90.9619 1079.45 90.3197 1079.58 89.6547C1079.95 87.7108 1080.29 85.6991 1080.58 83.6757C1080.68 83.0059 1081.3 82.5415 1081.97 82.6385C1082.58 82.7269 1083.02 83.2505 1083.02 83.8501ZM1080.7 95.8626C1080.7 95.9596 1080.69 96.058 1080.66 96.1563C1080.16 98.1887 1079.61 100.196 1079.02 102.121C1078.82 102.769 1078.13 103.132 1077.49 102.932C1076.84 102.734 1076.48 102.048 1076.68 101.401C1077.26 99.5193 1077.8 97.5578 1078.28 95.5709C1078.45 94.9138 1079.11 94.5117 1079.77 94.6737C1080.33 94.811 1080.7 95.3118 1080.7 95.8626ZM1077.09 107.548C1077.09 107.692 1077.07 107.84 1077.01 107.983C1076.26 109.949 1075.45 111.873 1074.6 113.701C1074.31 114.314 1073.58 114.579 1072.97 114.293C1072.36 114.007 1072.09 113.278 1072.38 112.664C1073.21 110.891 1073.99 109.023 1074.72 107.112C1074.96 106.479 1075.67 106.162 1076.3 106.402C1076.79 106.587 1077.09 107.054 1077.09 107.548ZM1071.91 118.613C1071.91 118.82 1071.85 119.029 1071.74 119.221C1070.7 121.05 1069.57 122.818 1068.4 124.476C1068.01 125.029 1067.25 125.161 1066.69 124.77C1066.14 124.38 1066.01 123.615 1066.4 123.062C1067.52 121.468 1068.61 119.765 1069.62 118.003C1069.95 117.416 1070.7 117.212 1071.29 117.549C1071.68 117.775 1071.91 118.188 1071.91 118.613ZM1064.85 128.571C1064.85 128.858 1064.75 129.146 1064.54 129.379C1063.16 130.958 1061.68 132.457 1060.16 133.833C1059.66 134.287 1058.89 134.248 1058.43 133.746C1057.98 133.244 1058.02 132.469 1058.52 132.015C1059.97 130.702 1061.38 129.271 1062.7 127.762C1063.15 127.254 1063.92 127.203 1064.43 127.65C1064.71 127.891 1064.85 128.23 1064.85 128.571ZM1055.8 136.736C1055.8 137.121 1055.62 137.501 1055.28 137.739C1053.58 138.935 1051.79 140.038 1049.95 141.016C1049.36 141.335 1048.61 141.108 1048.3 140.511C1047.98 139.914 1048.2 139.171 1048.8 138.853C1049.23 138.622 1049.66 138.384 1050.09 138.139C1050.09 138.137 1050.09 138.134 1050.09 138.132C1050.76 136.248 1051.32 134.316 1051.78 132.388C1051.93 131.729 1052.59 131.321 1053.25 131.477C1053.91 131.632 1054.32 132.292 1054.16 132.951C1053.91 134.008 1053.63 135.065 1053.32 136.116C1053.5 135.99 1053.69 135.863 1053.87 135.735C1054.42 135.346 1055.19 135.478 1055.58 136.031C1055.73 136.246 1055.8 136.492 1055.8 136.736ZM1055.67 120.554C1055.67 120.555 1055.67 120.557 1055.67 120.558C1055.66 122.602 1055.52 124.702 1055.26 126.803C1055.18 127.475 1054.57 127.952 1053.9 127.87C1053.23 127.787 1052.75 127.177 1052.83 126.504C1053.08 124.499 1053.21 122.496 1053.21 120.549C1053.22 119.872 1053.77 119.325 1054.44 119.328C1055.12 119.33 1055.67 119.879 1055.67 120.554ZM1055.28 114.456C1055.28 115.061 1054.84 115.588 1054.22 115.67C1053.55 115.759 1052.93 115.288 1052.84 114.616C1052.57 112.585 1052.15 110.645 1051.6 108.848C1051.4 108.201 1051.76 107.514 1052.4 107.314C1053.05 107.113 1053.74 107.475 1053.94 108.121C1054.54 110.049 1054.99 112.126 1055.27 114.292C1055.28 114.348 1055.28 114.402 1055.28 114.456ZM1051.58 102.882C1051.58 103.304 1051.36 103.715 1050.97 103.943C1050.38 104.283 1049.63 104.084 1049.29 103.499C1048.27 101.744 1047.07 100.248 1045.73 99.0504C1045.22 98.6001 1045.18 97.8254 1045.63 97.3201C1046.08 96.8144 1046.85 96.7694 1047.36 97.2193C1048.9 98.5895 1050.26 100.288 1051.41 102.268C1051.52 102.461 1051.58 102.672 1051.58 102.882ZM1050.16 144.194C1050.16 144.369 1050.12 144.547 1050.04 144.716C1049.15 146.595 1048.16 148.444 1047.09 150.213C1046.73 150.791 1045.98 150.975 1045.4 150.623C1044.82 150.272 1044.64 149.518 1044.99 148.939C1046.02 147.244 1046.98 145.471 1047.83 143.669C1048.11 143.057 1048.84 142.795 1049.46 143.084C1049.9 143.293 1050.16 143.734 1050.16 144.194ZM1045.05 142.474C1045.05 142.965 1044.75 143.429 1044.27 143.617C1042.2 144.414 1040.18 145.039 1038.26 145.476C1037.6 145.625 1036.94 145.211 1036.79 144.551C1036.64 143.891 1037.06 143.234 1037.72 143.085C1039.52 142.675 1041.43 142.084 1043.38 141.33C1044.01 141.087 1044.72 141.401 1044.97 142.032C1045.02 142.177 1045.05 142.327 1045.05 142.474ZM1043.82 154.623C1043.82 154.883 1043.74 155.145 1043.57 155.367C1042.3 157.019 1040.94 158.616 1039.51 160.114C1039.04 160.604 1038.27 160.623 1037.78 160.155C1037.29 159.689 1037.27 158.913 1037.73 158.423C1039.1 156.989 1040.41 155.46 1041.62 153.878C1042.03 153.34 1042.8 153.238 1043.34 153.649C1043.65 153.89 1043.82 154.255 1043.82 154.623ZM1042.53 95.0779C1042.53 95.2059 1042.51 95.3359 1042.47 95.4639C1042.25 96.1065 1041.56 96.4546 1040.92 96.242C1039.51 95.7759 1038 95.5392 1036.43 95.5392C1036.07 95.5392 1035.71 95.5509 1035.35 95.5743C1034.68 95.6183 1034.1 95.1065 1034.05 94.4308C1034.01 93.7535 1034.52 93.1725 1035.2 93.1288C1035.61 93.102 1036.02 93.0886 1036.43 93.0886C1038.26 93.0886 1040.03 93.3668 1041.69 93.9155C1042.2 94.0851 1042.53 94.5643 1042.53 95.0779ZM1035.39 163.452C1035.39 163.801 1035.25 164.148 1034.96 164.39C1033.37 165.723 1031.69 166.986 1029.96 168.141C1029.4 168.517 1028.64 168.366 1028.26 167.804C1027.89 167.242 1028.04 166.48 1028.6 166.104C1030.26 164.998 1031.86 163.79 1033.38 162.514C1033.9 162.078 1034.67 162.146 1035.11 162.664C1035.3 162.893 1035.39 163.173 1035.39 163.452ZM1033.16 145.039C1033.16 145.709 1032.62 146.256 1031.95 146.265C1031.83 146.266 1031.72 146.267 1031.61 146.267C1029.47 146.267 1027.43 145.989 1025.55 145.442C1024.9 145.253 1024.53 144.573 1024.72 143.923C1024.91 143.273 1025.59 142.899 1026.24 143.089C1027.89 143.571 1029.7 143.815 1031.61 143.815C1031.71 143.815 1031.81 143.815 1031.92 143.814C1032.59 143.805 1033.15 144.346 1033.16 145.023C1033.16 145.029 1033.16 145.034 1033.16 145.039ZM1030.54 95.6063C1030.54 96.1075 1030.23 96.5777 1029.73 96.7587C1027.94 97.4092 1026.23 98.318 1024.66 99.4615C1024.11 99.8592 1023.35 99.7388 1022.95 99.1915C1022.55 98.6438 1022.67 97.8774 1023.22 97.4794C1024.98 96.2004 1026.89 95.1828 1028.9 94.4539C1029.53 94.2234 1030.24 94.5523 1030.47 95.189C1030.52 95.327 1030.54 95.468 1030.54 95.6063ZM1025.28 170.29C1025.28 170.718 1025.06 171.133 1024.66 171.358C1022.86 172.377 1021.02 173.351 1019.2 174.254C1018.59 174.555 1017.86 174.308 1017.56 173.702C1017.26 173.096 1017.5 172.36 1018.11 172.059C1019.89 171.176 1021.69 170.222 1023.45 169.224C1024.04 168.891 1024.79 169.099 1025.12 169.688C1025.23 169.879 1025.28 170.086 1025.28 170.29ZM1021.68 141.554C1021.68 141.812 1021.6 142.071 1021.44 142.292C1021.03 142.832 1020.26 142.939 1019.72 142.531C1018.02 141.244 1016.53 139.636 1015.31 137.75C1014.94 137.183 1015.1 136.424 1015.67 136.055C1016.24 135.686 1017 135.847 1017.36 136.415C1018.43 138.061 1019.72 139.461 1021.2 140.576C1021.52 140.817 1021.68 141.183 1021.68 141.554ZM1020.74 102.664C1020.74 102.939 1020.65 103.215 1020.46 103.443C1019.26 104.905 1018.18 106.551 1017.27 108.334C1016.96 108.937 1016.22 109.174 1015.62 108.866C1015.02 108.557 1014.78 107.819 1015.09 107.216C1016.08 105.277 1017.25 103.483 1018.57 101.885C1019 101.362 1019.77 101.287 1020.3 101.717C1020.59 101.96 1020.74 102.311 1020.74 102.664ZM1015.15 113.453C1015.15 113.567 1015.14 113.682 1015.1 113.798C1014.55 115.678 1014.17 117.622 1013.96 119.576C1013.89 120.248 1013.29 120.736 1012.61 120.664C1011.94 120.592 1011.45 119.988 1011.52 119.315C1011.75 117.217 1012.16 115.129 1012.75 113.109C1012.94 112.459 1013.62 112.087 1014.27 112.277C1014.81 112.433 1015.15 112.923 1015.15 113.453ZM1015.01 131.548C1015.01 132.072 1014.67 132.556 1014.15 132.719C1013.5 132.918 1012.81 132.556 1012.62 131.909C1012.01 129.943 1011.61 127.837 1011.43 125.649C1011.38 124.974 1011.88 124.383 1012.56 124.329C1013.23 124.274 1013.82 124.776 1013.88 125.451C1014.04 127.462 1014.4 129.391 1014.96 131.187C1014.99 131.307 1015.01 131.428 1015.01 131.548ZM1014.33 175.721C1014.33 176.197 1014.05 176.65 1013.59 176.849C1011.68 177.664 1009.75 178.426 1007.83 179.114C1007.2 179.343 1006.49 179.013 1006.26 178.375C1006.04 177.739 1006.37 177.037 1007 176.807C1008.87 176.136 1010.76 175.392 1012.62 174.596C1013.25 174.329 1013.97 174.618 1014.23 175.24C1014.3 175.397 1014.33 175.561 1014.33 175.721ZM1002.83 179.848C1002.83 180.38 1002.48 180.869 1001.94 181.025C999.954 181.601 997.935 182.115 995.941 182.552C995.28 182.697 994.627 182.279 994.482 181.618C994.335 180.957 994.755 180.303 995.416 180.158C997.357 179.732 999.324 179.232 1001.26 178.67C1001.91 178.482 1002.59 178.856 1002.78 179.506C1002.81 179.62 1002.83 179.735 1002.83 179.848ZM990.892 182.46C990.892 183.058 990.454 183.581 989.845 183.671C987.789 183.974 985.714 184.203 983.679 184.352C983.004 184.401 982.416 183.894 982.367 183.219C982.316 182.545 982.825 181.957 983.5 181.907C985.476 181.763 987.49 181.54 989.487 181.246C990.157 181.147 990.78 181.61 990.878 182.279C990.887 182.34 990.892 182.4 990.892 182.46ZM978.704 183.339C978.704 183.341 978.704 183.343 978.704 183.346C978.701 184.023 978.149 184.568 977.472 184.565C975.363 184.554 973.273 184.454 971.26 184.269C970.586 184.207 970.091 183.61 970.152 182.936C970.214 182.262 970.811 181.766 971.485 181.828C973.428 182.007 975.447 182.103 977.485 182.114C978.16 182.117 978.704 182.665 978.704 183.339Z" fill="white"/>
<path d="M966.491 182.169C966.491 182.25 966.483 182.332 966.467 182.414C966.332 183.077 965.686 183.506 965.022 183.372C963.039 182.97 961.956 182.619 961.91 182.604C961.267 182.393 960.917 181.701 961.127 181.058C961.337 180.415 962.029 180.063 962.672 180.274C962.681 180.277 963.682 180.599 965.508 180.969C966.09 181.087 966.491 181.598 966.491 182.169Z" fill="white"/>
</g>
<g opacity="0.2">
<path d="M279.742 221.598H260.4V221.744H279.742V221.598Z" fill="#EBEBEB"/>
<path d="M210.433 223.187H205.358V223.333H210.433V223.187Z" fill="#EBEBEB"/>
<path d="M259.816 216.178H248.609V216.324H259.816V216.178Z" fill="#EBEBEB"/>
<path d="M72.8596 217.16H47.6366V217.306H72.8596V217.16Z" fill="#EBEBEB"/>
<path d="M81.7598 217.16H78.063V217.306H81.7598V217.16Z" fill="#EBEBEB"/>
<path d="M148.488 219.624H93.7785V219.77H148.488V219.624Z" fill="#EBEBEB"/>
<path d="M156.226 186.155H43.4551C42.5707 186.155 41.7226 185.804 41.0972 185.179C40.4718 184.553 40.1205 183.705 40.1205 182.821V24.3054C40.1282 23.4261 40.4829 22.5854 41.1075 21.9663C41.732 21.3473 42.5758 21 43.4551 21H156.226C156.663 21 157.097 21.0863 157.502 21.2538C157.906 21.4214 158.274 21.667 158.583 21.9767C158.893 22.2863 159.139 22.654 159.306 23.0585C159.474 23.4631 159.56 23.8967 159.56 24.3346V182.821C159.56 183.258 159.474 183.692 159.306 184.097C159.139 184.501 158.893 184.869 158.583 185.179C158.274 185.488 157.906 185.734 157.502 185.901C157.097 186.069 156.663 186.155 156.226 186.155ZM43.4551 21.1168C42.6099 21.1183 41.7998 21.4548 41.2021 22.0524C40.6045 22.6501 40.2681 23.4602 40.2665 24.3054V182.821C40.2681 183.666 40.6045 184.476 41.2021 185.074C41.7998 185.671 42.6099 186.008 43.4551 186.009H156.226C157.071 186.008 157.881 185.671 158.479 185.074C159.076 184.476 159.413 183.666 159.414 182.821V24.3054C159.413 23.4602 159.076 22.6501 158.479 22.0524C157.881 21.4548 157.071 21.1183 156.226 21.1168H43.4551Z" fill="#EBEBEB"/>
<path d="M282.545 186.155H169.774C168.89 186.155 168.042 185.804 167.416 185.179C166.791 184.553 166.44 183.705 166.44 182.821V24.3054C166.447 23.4261 166.802 22.5854 167.427 21.9663C168.051 21.3473 168.895 21 169.774 21H282.545C283.429 21 284.277 21.3513 284.903 21.9767C285.528 22.6021 285.879 23.4502 285.879 24.3346V182.821C285.879 183.705 285.528 184.553 284.903 185.179C284.277 185.804 283.429 186.155 282.545 186.155ZM169.774 21.1168C168.929 21.1183 168.119 21.4548 167.521 22.0524C166.924 22.6501 166.587 23.4602 166.586 24.3054V182.821C166.587 183.666 166.924 184.476 167.521 185.074C168.119 185.671 168.929 186.008 169.774 186.009H282.545C283.39 186.008 284.2 185.671 284.798 185.074C285.395 184.476 285.732 183.666 285.733 182.821V24.3054C285.732 23.4602 285.395 22.6501 284.798 22.0524C284.2 21.4548 283.39 21.1183 282.545 21.1168H169.774Z" fill="#EBEBEB"/>
<path d="M309 212.202H17V212.348H309V212.202Z" fill="#EBEBEB"/>
<path d="M254.014 104.488L249.381 54.0681L181.95 60.2641L186.583 110.684L254.014 104.488Z" fill="#E6E6E6"/>
<path opacity="0.9" d="M245.839 58.3295L186.219 63.8079L190.134 106.418L249.755 100.94L245.839 58.3295Z" fill="#FAFAFA"/>
<path d="M218.422 66.2192L218.772 70.0795L195.616 72.2111L196.784 84.9423L198.04 98.3334L209.335 97.2939L227.474 95.6295L228.309 95.5477L240.865 94.3797L240.672 92.2481L237.355 92.5518C237.381 91.7933 237.658 91.065 238.144 90.4814C238.629 89.8978 239.294 89.4921 240.035 89.3281L240.398 89.2463L239.638 81.0178L237.402 81.2222L235.877 64.6307L218.422 66.2192ZM198.776 97.4165L197.695 85.7015L200.288 85.462C200.581 86.3884 201.181 87.1873 201.989 87.7267C202.797 88.2661 203.765 88.5137 204.733 88.4287L205.153 88.3937L204.844 85.0415L207.32 84.8196L208.4 96.5347L198.776 97.4165ZM209.235 96.4587L208.067 83.9027L203.915 84.2823L204.219 87.6053C203.46 87.5779 202.731 87.2992 202.148 86.813C201.564 86.3268 201.159 85.6605 200.995 84.9189L200.913 84.5627L197.602 84.8663L196.527 72.9761L218.848 70.9263L220.016 83.6575L221.92 83.4823L224.922 83.2078L226.294 83.0793L227.369 94.7943L209.235 96.4587ZM221.85 82.6355L221.616 80.1067C222.299 80.132 222.959 80.3614 223.511 80.7653C224.063 81.1691 224.481 81.729 224.711 82.3727L221.85 82.6355ZM238.85 81.9171L239.463 88.5923C238.537 88.8851 237.739 89.4852 237.201 90.2933C236.662 91.1015 236.416 92.0693 236.502 93.0365L236.537 93.457L239.884 93.1475L239.925 93.638L228.209 94.7126L227.135 82.9975L237.448 82.0456L238.85 81.9171ZM235.089 65.5301L236.537 81.2981L227.059 82.1741L226.218 82.25L225.576 82.3084C225.293 81.37 224.696 80.5578 223.884 80.0088C223.072 79.4598 222.096 79.2077 221.12 79.295L220.699 79.33L221.009 82.7289H220.781L219.613 69.9977L219.333 66.9726L235.089 65.5301Z" fill="#E0E0E0"/>
<path d="M123.947 108.403L134.025 57.741L66.2764 44.265L56.1991 94.9273L123.947 108.403Z" fill="#E6E6E6"/>
<path opacity="0.9" d="M69.4217 48.9687L60.9052 91.7839L120.806 103.699L129.323 60.8838L69.4217 48.9687Z" fill="#FAFAFA"/>
<path d="M100.22 60.6537L99.4491 64.5314L76.1767 59.9062L73.648 72.6958L70.9733 86.1278L82.3262 88.3878L100.553 92.0086L101.394 92.178L114.002 94.6834L114.435 92.5109L111.1 91.851C111.347 91.1177 111.83 90.4868 112.473 90.0568C113.117 89.6268 113.884 89.4219 114.656 89.4741H115.036L116.677 81.2105L114.435 80.7608L117.746 64.0876L100.22 60.6537ZM71.9661 85.4795L74.3021 73.7061L76.9067 74.22C76.9238 75.2141 77.2808 76.1724 77.9183 76.9353C78.5559 77.6982 79.4355 78.2198 80.4107 78.4131L80.8312 78.4949L81.5028 75.131L83.9906 75.6274L81.6546 87.4009L71.9661 85.4795ZM82.4781 87.5702L84.9834 74.9558L80.8137 74.1441L80.1538 77.4787C79.4205 77.2316 78.7896 76.7486 78.3596 76.1052C77.9297 75.4619 77.7247 74.6942 77.7769 73.9222V73.5426L74.4481 72.8826L76.8308 60.9282L99.2564 65.3899L96.7102 78.1854L98.6257 78.565L101.639 79.149L103.017 79.4176L100.681 91.191L82.4781 87.5702ZM98.8301 77.7065L99.3323 75.1602C99.9932 75.3848 100.572 75.8016 100.994 76.3572C101.417 76.9128 101.664 77.582 101.703 78.2788L98.8301 77.7065ZM115.667 81.9288L114.335 88.6331C113.342 88.6515 112.385 89.0091 111.624 89.6465C110.862 90.284 110.341 91.1628 110.148 92.1371L110.06 92.5576L113.424 93.2292L113.325 93.7198L101.552 91.3838L103.888 79.6103L114.254 81.6718L115.667 81.9288ZM116.724 64.8001L113.576 80.6323L104.051 78.7343L103.21 78.5708L102.562 78.4423C102.558 77.4396 102.206 76.4692 101.567 75.6963C100.929 74.9233 100.042 74.3955 99.0578 74.2025L98.6374 74.1149L97.9599 77.5254L97.7263 77.4787L100.273 64.6891L100.857 61.6523L116.724 64.8001Z" fill="#E0E0E0"/>
<path d="M191.686 51.3678H185.975C184.381 51.3678 182.852 50.7347 181.725 49.6077C180.598 48.4808 179.965 46.9523 179.965 45.3585V39.6878C179.965 38.0941 180.598 36.5656 181.725 35.4386C182.852 34.3116 184.381 33.6785 185.975 33.6785H191.686C193.279 33.68 194.807 34.3137 195.934 35.4403C197.06 36.5669 197.694 38.0945 197.696 39.6878V45.3994C197.683 46.9856 197.045 48.5027 195.919 49.6205C194.794 50.7383 193.272 51.3664 191.686 51.3678ZM185.975 35.3896C185.412 35.3904 184.856 35.5023 184.337 35.7191C183.818 35.9359 183.347 36.2532 182.951 36.6527C182.556 37.0522 182.243 37.5261 182.031 38.047C181.819 38.5679 181.713 39.1255 181.717 39.6878V45.3994C181.719 46.528 182.168 47.61 182.966 48.4081C183.764 49.2061 184.846 49.6552 185.975 49.6567H191.686C192.815 49.6552 193.897 49.2061 194.695 48.4081C195.493 47.61 195.942 46.528 195.944 45.3994V39.6878C195.942 38.5592 195.493 37.4772 194.695 36.6791C193.897 35.8811 192.815 35.432 191.686 35.4305L185.975 35.3896Z" fill="#F0F0F0"/>
<path d="M186.453 46.2286L178.126 37.9008L180.608 35.4246L186.453 41.2763L197.053 30.6767L199.529 33.1529L186.453 46.2286Z" fill="#E0E0E0"/>
<path d="M69.0694 127.872H64.6719C64.06 127.872 63.4542 127.751 62.8893 127.516C62.3244 127.28 61.8117 126.936 61.3807 126.501C60.9496 126.067 60.6088 125.552 60.3778 124.985C60.1469 124.419 60.0303 123.812 60.035 123.2V118.82C60.0365 117.591 60.5257 116.413 61.3952 115.545C62.2646 114.677 63.4431 114.189 64.6719 114.189H69.0694C70.2972 114.19 71.4743 114.679 72.3424 115.547C73.2106 116.415 73.699 117.592 73.7006 118.82V123.2C73.7052 123.811 73.5889 124.418 73.3583 124.984C73.1277 125.55 72.7874 126.065 72.3569 126.499C71.9265 126.934 71.4145 127.278 70.8503 127.514C70.2861 127.75 69.6809 127.871 69.0694 127.872ZM64.6719 115.555C63.8039 115.555 62.9712 115.899 62.3552 116.51C61.7393 117.122 61.3902 117.952 61.384 118.82V123.2C61.3856 124.071 61.7326 124.906 62.3491 125.521C62.9655 126.136 63.8009 126.482 64.6719 126.482H69.0694C69.9399 126.482 70.7747 126.136 71.3902 125.521C72.0057 124.905 72.3515 124.07 72.3515 123.2V118.82C72.3515 118.389 72.2666 117.962 72.1017 117.564C71.9368 117.166 71.695 116.804 71.3902 116.499C71.0855 116.194 70.7236 115.953 70.3254 115.788C69.9272 115.623 69.5005 115.538 69.0694 115.538L64.6719 115.555Z" fill="#F0F0F0"/>
<path d="M65.0399 123.878L58.6217 117.465L60.5314 115.556L65.0399 120.064L73.2042 111.894L75.1139 113.804L65.0399 123.878Z" fill="#E0E0E0"/>
<path d="M268.704 163.689H264.301C263.073 163.687 261.896 163.199 261.028 162.331C260.159 161.462 259.671 160.285 259.669 159.058V154.654C259.671 153.426 260.159 152.249 261.028 151.381C261.896 150.513 263.073 150.025 264.301 150.023H268.704C269.932 150.025 271.109 150.513 271.977 151.381C272.845 152.249 273.334 153.426 273.335 154.654V159.058C273.334 160.285 272.845 161.462 271.977 162.331C271.109 163.199 269.932 163.687 268.704 163.689ZM264.301 151.372C263.43 151.372 262.595 151.718 261.98 152.333C261.364 152.949 261.019 153.784 261.019 154.654V159.058C261.019 159.489 261.103 159.915 261.268 160.314C261.433 160.712 261.675 161.074 261.98 161.378C262.285 161.683 262.646 161.925 263.045 162.09C263.443 162.255 263.87 162.34 264.301 162.34H268.704C269.135 162.34 269.562 162.255 269.96 162.09C270.358 161.925 270.72 161.683 271.025 161.378C271.33 161.074 271.571 160.712 271.736 160.314C271.901 159.915 271.986 159.489 271.986 159.058V154.654C271.986 153.784 271.64 152.949 271.025 152.333C270.409 151.718 269.574 151.372 268.704 151.372H264.301Z" fill="#F0F0F0"/>
<path d="M264.674 159.712L258.256 153.299L260.166 151.39L264.674 155.898L272.839 147.728L274.748 149.638L264.674 159.712Z" fill="#E0E0E0"/>
<path d="M163 236.327C225.536 236.327 276.232 233.367 276.232 229.716C276.232 226.065 225.536 223.105 163 223.105C100.464 223.105 49.7683 226.065 49.7683 229.716C49.7683 233.367 100.464 236.327 163 236.327Z" fill="#F5F5F5"/>
<path d="M219.905 105.68C220.738 103.461 221.747 101.313 222.924 99.2561C223.479 98.24 224.092 97.2589 224.676 96.2836C225.26 95.3083 225.903 94.3622 226.603 93.3636C227.045 92.7601 227.705 92.3527 228.442 92.2277C229.179 92.1028 229.936 92.2702 230.552 92.6945C231.168 93.1187 231.594 93.7663 231.74 94.4997C231.886 95.2332 231.74 95.9946 231.334 96.6223V96.6573C230.75 97.51 230.166 98.4093 229.582 99.3437C228.998 100.278 228.466 101.178 227.923 102.1C226.855 103.89 225.903 105.748 225.073 107.66C224.84 108.244 224.635 108.793 224.489 109.324H218.947C219.149 108.082 219.47 106.861 219.905 105.68Z" fill="#B55B52"/>
<path d="M231.229 87.2433C225.646 88.4814 220.921 100.518 220.921 100.518L227.345 104.168C229.247 102.128 230.822 99.8077 232.017 97.2881C233.419 94.298 236.204 86.1395 231.229 87.2433Z" fill="#407BFF"/>
<path opacity="0.2" d="M233.278 93.9999C232.931 95.1205 232.509 96.2169 232.017 97.282C230.822 99.8016 229.247 102.122 227.345 104.162L225.949 103.344C228.163 99.326 228.139 94.1926 228.139 94.1926L232.951 93.3575L233.278 93.9999Z" fill="black"/>
<path d="M226.337 130.339L226.682 130.4C226.937 130.444 227.163 130.588 227.312 130.8C227.461 131.011 227.519 131.274 227.475 131.528L225.438 143.189C225.393 143.444 225.249 143.671 225.037 143.82C224.826 143.968 224.564 144.027 224.309 143.982L224.257 143.973C223.833 143.899 223.456 143.66 223.208 143.307C222.961 142.955 222.863 142.519 222.937 142.095L224.801 131.429C224.861 131.081 225.057 130.772 225.345 130.568C225.632 130.364 225.989 130.282 226.337 130.339Z" fill="#263238"/>
<path opacity="0.1" d="M226.337 130.339L226.682 130.4C226.937 130.444 227.163 130.588 227.312 130.8C227.461 131.011 227.519 131.274 227.475 131.528L225.438 143.189C225.393 143.444 225.249 143.671 225.037 143.82C224.826 143.968 224.564 144.027 224.309 143.982L224.257 143.973C223.833 143.899 223.456 143.66 223.208 143.307C222.961 142.955 222.863 142.519 222.937 142.095L224.801 131.429C224.861 131.081 225.057 130.772 225.345 130.568C225.632 130.364 225.989 130.282 226.337 130.339Z" fill="white"/>
<path d="M226.831 225.593L222.475 225.54L222.112 215.414L227.865 215.507L226.831 225.593Z" fill="#B55B52"/>
<path opacity="0.2" d="M222.112 215.419L222.323 221.335L227.263 221.399L227.871 215.507L222.112 215.419Z" fill="black"/>
<path d="M222.381 224.057L227.135 224.133C227.218 224.132 227.299 224.164 227.36 224.22C227.422 224.276 227.46 224.353 227.468 224.436L227.876 228.32C227.884 228.418 227.871 228.517 227.838 228.61C227.805 228.703 227.753 228.788 227.685 228.86C227.618 228.932 227.536 228.989 227.445 229.028C227.355 229.067 227.257 229.086 227.158 229.085C225.447 229.033 222.983 228.892 220.828 228.857C218.311 228.816 218.556 228.922 215.601 228.857C213.814 228.828 213.533 227.012 214.298 226.86C217.802 226.171 218.141 226.136 221.306 224.366C221.632 224.172 222.002 224.066 222.381 224.057Z" fill="#263238"/>
<path d="M221.593 224.448C221.61 224.442 221.626 224.431 221.638 224.416C221.651 224.402 221.659 224.385 221.663 224.366C221.665 224.345 221.662 224.323 221.652 224.303C221.643 224.284 221.628 224.267 221.61 224.255C221.412 224.15 219.677 223.239 219.146 223.525C219.095 223.55 219.052 223.589 219.021 223.636C218.991 223.683 218.973 223.738 218.971 223.794C218.958 223.887 218.967 223.982 218.999 224.07C219.03 224.159 219.083 224.238 219.152 224.302C219.625 224.728 220.904 224.577 221.581 224.448H221.593ZM219.257 223.689C219.584 223.578 220.53 223.958 221.213 224.273C220.25 224.419 219.531 224.366 219.268 224.127C219.222 224.085 219.187 224.032 219.167 223.973C219.146 223.913 219.141 223.85 219.152 223.788C219.152 223.767 219.158 223.746 219.17 223.727C219.181 223.709 219.197 223.693 219.216 223.683L219.257 223.689Z" fill="#407BFF"/>
<path d="M221.593 224.448C221.608 224.439 221.62 224.427 221.629 224.411C221.637 224.396 221.641 224.378 221.639 224.361C221.639 224.308 221.54 223.134 220.997 222.667C220.918 222.598 220.825 222.545 220.724 222.513C220.624 222.481 220.518 222.47 220.413 222.48C220.127 222.48 220.045 222.649 220.022 222.766C219.934 223.257 220.962 224.215 221.482 224.46C221.5 224.467 221.519 224.47 221.539 224.468C221.558 224.466 221.577 224.459 221.593 224.448ZM220.36 222.696C220.395 222.692 220.431 222.692 220.466 222.696C220.541 222.688 220.618 222.695 220.69 222.718C220.763 222.741 220.829 222.78 220.886 222.831C221.202 223.216 221.394 223.688 221.435 224.185C220.904 223.853 220.209 223.105 220.267 222.807C220.267 222.766 220.273 222.72 220.36 222.69V222.696Z" fill="#407BFF"/>
<path d="M231.789 177.588C238.266 155.349 244.304 139.896 242.885 128.865L227.514 129.046C227.514 129.046 219.373 165.102 219.981 178.148C220.612 191.715 221.412 217.492 221.412 217.492L228.42 217.592C228.42 217.592 233.611 192.743 231.789 177.588Z" fill="#263238"/>
<path opacity="0.2" d="M234.394 168.623C237.828 157.282 240.906 149.398 242.681 142.793C232.496 146.385 232.7 158.824 234.394 168.623Z" fill="black"/>
<path d="M220.419 215.934L220.845 218.941L228.554 219.076L229.015 216.237L220.419 215.934Z" fill="#263238"/>
<path opacity="0.3" d="M220.419 215.934L220.845 218.941L228.554 219.076L229.015 216.237L220.419 215.934Z" fill="black"/>
<path d="M256.551 225.593L252.183 225.54L249.917 215.414L255.523 215.501L256.551 225.593Z" fill="#B55B52"/>
<path opacity="0.2" d="M249.917 215.419L251.231 221.265L256.119 221.329L255.529 215.507L249.917 215.419Z" fill="black"/>
<path d="M251.855 224.647L256.603 224.553C256.688 224.549 256.77 224.577 256.835 224.631C256.9 224.685 256.942 224.762 256.954 224.845L257.503 228.711C257.514 228.809 257.505 228.908 257.476 229.001C257.447 229.095 257.399 229.182 257.335 229.256C257.271 229.33 257.192 229.39 257.103 229.432C257.014 229.474 256.918 229.497 256.819 229.5C255.108 229.5 254.565 229.389 252.41 229.43C249.893 229.482 251.055 229.541 248.106 229.605C246.319 229.64 245.969 227.853 246.728 227.654C249.128 227.07 249.724 226.077 250.781 225.009C251.079 224.754 251.464 224.625 251.855 224.647Z" fill="#263238"/>
<path d="M252.726 224.945C252.744 224.944 252.763 224.94 252.779 224.93C252.796 224.921 252.809 224.908 252.819 224.892C252.831 224.874 252.837 224.852 252.837 224.831C252.837 224.809 252.831 224.788 252.819 224.769C252.667 224.612 251.295 223.204 250.699 223.309C250.644 223.32 250.592 223.345 250.548 223.38C250.504 223.416 250.47 223.462 250.448 223.514C250.405 223.597 250.383 223.689 250.383 223.782C250.383 223.876 250.405 223.968 250.448 224.051C250.758 224.606 251.996 224.851 252.708 224.945H252.726ZM250.758 223.508C251.108 223.508 251.891 224.156 252.434 224.676C251.47 224.518 250.81 224.244 250.629 223.934C250.6 223.879 250.586 223.818 250.586 223.756C250.586 223.694 250.6 223.633 250.629 223.578C250.634 223.556 250.646 223.537 250.663 223.522C250.679 223.507 250.7 223.498 250.723 223.496L250.758 223.508Z" fill="#407BFF"/>
<path d="M252.726 224.944H252.755C252.772 224.941 252.788 224.933 252.801 224.92C252.813 224.908 252.822 224.892 252.825 224.874C252.825 224.822 253.111 223.706 252.732 223.064C252.68 222.974 252.611 222.897 252.527 222.836C252.443 222.776 252.348 222.734 252.247 222.713C251.972 222.649 251.844 222.754 251.791 222.859C251.558 223.303 252.235 224.53 252.656 224.921C252.665 224.93 252.676 224.936 252.688 224.94C252.7 224.944 252.713 224.946 252.726 224.944ZM252.095 222.895C252.13 222.889 252.165 222.889 252.2 222.895C252.349 222.932 252.477 223.026 252.556 223.157C252.742 223.619 252.779 224.128 252.661 224.611C252.259 224.133 251.832 223.204 251.972 222.941C251.986 222.923 252.005 222.908 252.027 222.9C252.049 222.892 252.072 222.89 252.095 222.895Z" fill="#407BFF"/>
<path d="M251.581 178.289C253.97 156.044 255.944 139.651 252.492 128.649L236.479 129.075C236.479 129.075 236.87 165.832 239.878 178.878C243.002 192.445 249.473 217.522 249.473 217.522L256.481 217.621C256.481 217.621 256.195 193.438 251.581 178.289Z" fill="#263238"/>
<path d="M248.445 215.934L248.906 218.941L256.784 219.076L257.228 216.237L248.445 215.934Z" fill="#263238"/>
<path opacity="0.3" d="M248.445 215.934L248.906 218.941L256.784 219.076L257.228 216.237L248.445 215.934Z" fill="black"/>
<path d="M233.471 86.5716C238.367 86.0491 243.313 86.226 248.159 87.0972C249.471 87.3067 250.682 87.9295 251.616 88.8748C252.549 89.82 253.157 91.0386 253.351 92.3532C254.256 98.5844 255.687 110.854 253.111 129.998C250.804 130.728 244.012 130.675 238.61 130.29C238.026 130.243 236.59 128.877 236.59 128.877C236.59 128.877 235.293 129.992 234.546 129.904C230.972 129.472 228.122 128.859 227.462 128.152C226.002 124.648 225.085 115.853 228.969 107.963C229.009 103.239 228.075 97.9187 227.993 92.8437C227.968 91.3056 228.514 89.8128 229.526 88.6542C230.538 87.4956 231.944 86.7535 233.471 86.5716Z" fill="#407BFF"/>
<path d="M241.735 78.5123C242.167 81.7535 242.827 85.5203 245.116 87.3541C244.638 88.6118 243.799 89.7007 242.705 90.4848C241.612 91.269 240.311 91.7136 238.967 91.7633C235.498 91.9443 236.047 89.1762 236.631 87.7103C238.102 86.0576 237.396 84.2063 237.022 82.904L241.735 78.5123Z" fill="#B55B52"/>
<path opacity="0.2" d="M240.777 80.0949C240.777 79.8905 240.719 79.6861 240.689 79.4817L236.999 82.904C237.328 83.7895 237.494 84.7274 237.489 85.6721C239.317 84.4516 240.999 82.063 240.777 80.0949Z" fill="black"/>
<path d="M242.95 73.7996C242.401 78.0861 242.301 80.6265 239.983 82.6705C236.479 85.754 231.305 83.383 230.557 79.0147C229.885 75.0785 230.89 68.7304 235.229 67.3347C236.186 67.0282 237.205 66.9689 238.192 67.1622C239.178 67.3556 240.099 67.7954 240.87 68.4407C241.64 69.0859 242.235 69.9157 242.599 70.8527C242.962 71.7896 243.083 72.8034 242.95 73.7996Z" fill="#B55B52"/>
<path d="M236.088 76.2288C236.088 76.5792 235.86 76.8478 235.626 76.8128C235.393 76.7777 235.229 76.5032 235.252 76.1528C235.276 75.8024 235.48 75.528 235.714 75.5688C235.947 75.6097 236.105 75.8959 236.088 76.2288Z" fill="#263238"/>
<path d="M231.702 76.042C231.702 76.3924 231.474 76.661 231.246 76.626C231.018 76.591 230.849 76.3106 230.872 75.9602C230.896 75.6098 231.1 75.3412 231.328 75.3762C231.556 75.4113 231.725 75.6916 231.702 76.042Z" fill="#263238"/>
<path d="M237.291 76.334H234.049C233.923 76.3334 233.801 76.3796 233.707 76.4638C233.614 76.548 233.554 76.6641 233.541 76.7896C233.384 76.7199 233.214 76.6839 233.042 76.6839C232.87 76.6839 232.7 76.7199 232.543 76.7896C232.527 76.6657 232.467 76.5517 232.373 76.469C232.28 76.3862 232.159 76.3403 232.035 76.3399H229.576C229.438 76.3399 229.306 76.3946 229.208 76.4921C229.111 76.5896 229.056 76.7218 229.056 76.8596V78.3605C229.056 78.4984 229.111 78.6306 229.208 78.728C229.306 78.8255 229.438 78.8803 229.576 78.8803H232.052C232.19 78.8803 232.322 78.8255 232.42 78.728C232.517 78.6306 232.572 78.4984 232.572 78.3605V77.1341C232.718 77.0424 232.887 76.9937 233.059 76.9937C233.232 76.9937 233.401 77.0424 233.547 77.1341V78.3722C233.547 78.5101 233.602 78.6423 233.699 78.7397C233.797 78.8372 233.929 78.892 234.067 78.892H237.308C237.446 78.892 237.578 78.8372 237.676 78.7397C237.773 78.6423 237.828 78.5101 237.828 78.3722V76.8713C237.83 76.8001 237.818 76.7291 237.792 76.6629C237.766 76.5966 237.726 76.5364 237.676 76.486C237.625 76.4356 237.565 76.3961 237.499 76.37C237.433 76.3438 237.362 76.3316 237.291 76.334ZM232.251 78.3547C232.249 78.4115 232.226 78.4656 232.186 78.5058C232.145 78.546 232.091 78.5693 232.035 78.5708H229.576C229.519 78.5708 229.464 78.548 229.423 78.5075C229.383 78.467 229.36 78.412 229.36 78.3547V76.8538C229.36 76.7965 229.383 76.7415 229.423 76.701C229.464 76.6605 229.519 76.6377 229.576 76.6377H232.052C232.109 76.6392 232.163 76.6624 232.203 76.7026C232.243 76.7429 232.267 76.797 232.268 76.8538L232.251 78.3547ZM237.507 78.3547C237.507 78.3833 237.502 78.4117 237.492 78.4383C237.481 78.4649 237.465 78.489 237.445 78.5093C237.425 78.5295 237.401 78.5454 237.374 78.556C237.348 78.5665 237.319 78.5716 237.291 78.5708H234.049C234.021 78.5716 233.992 78.5665 233.966 78.556C233.939 78.5454 233.915 78.5295 233.895 78.5093C233.875 78.489 233.859 78.4649 233.848 78.4383C233.837 78.4117 233.832 78.3833 233.833 78.3547V76.8538C233.832 76.8252 233.837 76.7968 233.848 76.7702C233.859 76.7436 233.875 76.7195 233.895 76.6992C233.915 76.679 233.939 76.6631 233.966 76.6525C233.992 76.642 234.021 76.6369 234.049 76.6377H237.291C237.347 76.6392 237.401 76.6624 237.442 76.7026C237.482 76.7429 237.505 76.797 237.507 76.8538V78.3547Z" fill="#263238"/>
<path d="M233.039 76.9821C232.576 77.8372 231.997 78.6235 231.316 79.3181C231.499 79.4873 231.717 79.6155 231.953 79.694C232.19 79.7726 232.441 79.7997 232.689 79.7736L233.039 76.9821Z" fill="#A02724"/>
<path d="M236.934 74.3073C236.968 74.2977 236.998 74.2796 237.022 74.2548C237.041 74.2357 237.057 74.213 237.067 74.188C237.078 74.1629 237.083 74.136 237.083 74.1088C237.083 74.0816 237.078 74.0547 237.067 74.0296C237.057 74.0045 237.041 73.9818 237.022 73.9628C236.802 73.723 236.529 73.5387 236.225 73.425C235.92 73.3113 235.593 73.2714 235.27 73.3087C235.243 73.3136 235.218 73.3237 235.196 73.3384C235.173 73.3531 235.154 73.3721 235.138 73.3944C235.123 73.4167 235.112 73.4417 235.107 73.4681C235.102 73.4945 235.101 73.5217 235.106 73.5481C235.119 73.6014 235.151 73.6479 235.197 73.6782C235.242 73.7086 235.298 73.7205 235.352 73.7116C235.61 73.6847 235.871 73.7193 236.114 73.8127C236.357 73.9061 236.574 74.0556 236.747 74.2489C236.772 74.2723 236.802 74.2897 236.834 74.2999C236.866 74.31 236.901 74.3125 236.934 74.3073Z" fill="#263238"/>
<path d="M230.37 74.255C230.404 74.2612 230.438 74.2591 230.471 74.2489C230.503 74.2387 230.533 74.2208 230.557 74.1966C230.731 74.0049 230.949 73.8577 231.192 73.7673C231.435 73.6768 231.696 73.6458 231.953 73.6769C231.979 73.6815 232.006 73.6808 232.033 73.675C232.059 73.6691 232.084 73.6581 232.106 73.6426C232.128 73.6272 232.146 73.6076 232.161 73.5849C232.175 73.5622 232.185 73.5369 232.189 73.5104C232.194 73.484 232.193 73.4569 232.187 73.4307C232.182 73.4045 232.171 73.3797 232.155 73.3577C232.14 73.3357 232.12 73.317 232.097 73.3027C232.075 73.2883 232.049 73.2785 232.023 73.2739C231.702 73.2293 231.374 73.2635 231.069 73.3733C230.764 73.4832 230.49 73.6655 230.271 73.9046C230.233 73.9438 230.212 73.9962 230.212 74.0506C230.212 74.1051 230.233 74.1574 230.271 74.1966C230.296 74.2267 230.331 74.2473 230.37 74.255Z" fill="#263238"/>
<path d="M243.901 85.7482C244.007 86.741 242.815 90.2625 238.645 91.7692C240.251 91.7692 240.952 93.8191 240.952 93.8191C240.952 93.8191 246.471 90.8991 245.811 87.3308C245.725 86.887 245.487 86.4867 245.139 86.1982C244.791 85.9097 244.354 85.7506 243.901 85.7482Z" fill="#407BFF"/>
<path d="M237.367 86.0169C237.466 86.9922 236.339 89.0362 238.657 91.7693C237.045 91.7693 236.088 93.3811 236.088 93.3811C235.468 92.4127 235.101 91.3042 235.022 90.1572C234.942 89.0102 235.152 87.8617 235.632 86.817C236.115 86.3796 236.72 86.1004 237.367 86.0169Z" fill="#407BFF"/>
<g opacity="0.5">
<path d="M243.902 85.7483C244.007 86.7411 242.815 90.2626 238.646 91.7693C240.252 91.7693 240.952 93.8191 240.952 93.8191C240.952 93.8191 246.471 90.8991 245.811 87.3309C245.725 86.8871 245.487 86.4868 245.139 86.1983C244.791 85.9098 244.354 85.7507 243.902 85.7483Z" fill="white"/>
<path d="M237.367 86.0167C237.466 86.9919 236.339 89.0359 238.657 91.7691C237.045 91.7691 236.088 93.3809 236.088 93.3809C235.468 92.4125 235.101 91.3039 235.022 90.157C234.942 89.01 235.152 87.8614 235.632 86.8167C236.115 86.3794 236.72 86.1002 237.367 86.0167Z" fill="white"/>
</g>
<path d="M226.446 131.581L253.923 132.322V128.865L226.866 128.141L226.446 131.581Z" fill="#263238"/>
<path opacity="0.3" d="M226.446 131.581L253.923 132.322V128.865L226.866 128.141L226.446 131.581Z" fill="white"/>
<path d="M245.613 131.031L246.506 145.164L253.789 144.703C254.246 144.67 254.673 144.459 254.976 144.115C255.28 143.771 255.436 143.321 255.412 142.863L254.717 131.884C254.693 131.507 254.52 131.155 254.237 130.905C253.953 130.655 253.582 130.529 253.205 130.553L245.613 131.031Z" fill="#263238"/>
<path opacity="0.3" d="M245.613 131.031L246.506 145.164L253.789 144.703C254.246 144.67 254.673 144.459 254.976 144.115C255.28 143.771 255.436 143.321 255.412 142.863L254.717 131.884C254.693 131.507 254.52 131.155 254.237 130.905C253.953 130.655 253.582 130.529 253.205 130.553L245.613 131.031Z" fill="white"/>
<path opacity="0.2" d="M247.387 145.09L246.524 145.145L245.632 131.011L246.798 130.937C247.152 130.915 247.5 131.034 247.766 131.269C248.032 131.503 248.195 131.834 248.217 132.188L248.923 143.384C248.934 143.597 248.903 143.81 248.832 144.011C248.761 144.212 248.651 144.397 248.508 144.556C248.366 144.714 248.193 144.843 248.001 144.935C247.808 145.026 247.599 145.079 247.387 145.09Z" fill="black"/>
<path opacity="0.2" d="M248.217 132.743V132.299C248.205 132.111 248.157 131.928 248.074 131.76C247.991 131.592 247.876 131.441 247.735 131.318C247.594 131.194 247.429 131.099 247.252 131.039C247.074 130.979 246.886 130.955 246.699 130.967L253.228 130.553C253.605 130.529 253.976 130.655 254.26 130.905C254.544 131.155 254.716 131.507 254.74 131.884L254.77 132.328L254.834 133.408C254.844 133.572 254.822 133.736 254.769 133.89C254.716 134.045 254.632 134.188 254.524 134.311C254.415 134.433 254.284 134.533 254.137 134.605C253.989 134.677 253.829 134.718 253.666 134.728L249.625 134.979C249.461 134.99 249.297 134.969 249.142 134.916C248.986 134.863 248.843 134.78 248.721 134.671C248.598 134.563 248.498 134.431 248.426 134.283C248.355 134.135 248.314 133.975 248.305 133.811L248.217 132.743Z" fill="white"/>
<path d="M251.032 133.572C251.038 133.669 251.073 133.762 251.132 133.839C251.191 133.916 251.271 133.974 251.363 134.006C251.455 134.037 251.554 134.04 251.648 134.015C251.742 133.99 251.826 133.938 251.891 133.865C251.955 133.792 251.996 133.701 252.008 133.605C252.021 133.509 252.004 133.411 251.961 133.324C251.918 133.236 251.85 133.164 251.766 133.116C251.681 133.068 251.584 133.045 251.488 133.052C251.423 133.056 251.36 133.072 251.303 133.1C251.245 133.129 251.193 133.168 251.151 133.217C251.108 133.265 251.076 133.321 251.056 133.382C251.035 133.443 251.027 133.508 251.032 133.572Z" fill="#263238"/>
<path d="M235.93 130.056C235.943 130.178 236.001 130.29 236.092 130.372C236.183 130.454 236.301 130.499 236.423 130.499C236.546 130.499 236.664 130.454 236.755 130.372C236.846 130.29 236.904 130.178 236.917 130.056C236.904 129.935 236.846 129.822 236.755 129.74C236.664 129.659 236.546 129.613 236.423 129.613C236.301 129.613 236.183 129.659 236.092 129.74C236.001 129.822 235.943 129.935 235.93 130.056Z" fill="#263238"/>
<path opacity="0.1" d="M252.834 134.799L250.374 134.954L251.001 144.898L253.461 144.742L252.834 134.799Z" fill="black"/>
<path d="M240.795 77.7239C240.795 77.7239 239.481 77.8466 239.837 76.007C240.193 74.1674 238.383 72.3395 238.897 70.5816C239.41 68.8238 233.822 70.1903 233.419 68.8296C233.016 67.4689 232.928 71.3116 231.199 70.786C229.693 70.3305 231.655 68.5259 231.655 68.5259C231.655 68.5259 229.348 69.8399 229.348 68.5259C229.348 67.2119 232.07 67.2703 233.033 67.0426C235.778 66.3827 241.764 63.1531 243.458 71.3759C243.458 71.3759 246.021 73.1687 242.29 78.3839L240.795 77.7239Z" fill="#263238"/>
<path opacity="0.2" d="M253.561 93.8717C254.242 99 254.576 104.168 254.559 109.342C250.863 106.147 247.627 97.4457 247.627 97.4457V94.0001L250.384 91.7809L253.561 93.8717Z" fill="black"/>
<path d="M228.18 103.899L220.816 99.6821L220.238 101.662L226.866 105.423L228.18 103.899Z" fill="#407BFF"/>
<path opacity="0.5" d="M228.18 103.899L220.816 99.6821L220.238 101.662L226.866 105.423L228.18 103.899Z" fill="white"/>
<path d="M232.408 66.6454C232.408 66.6454 238.172 61.2493 243.417 65.7052C247.785 69.4253 244.059 75.2185 244.059 75.2185L241.957 72.7657L237.869 69.2617L234.125 67.0951L232.408 66.6454Z" fill="#407BFF"/>
<path d="M229.336 66.2716C231.871 64.3269 239.521 67.9593 244.135 75.2769V75.3353C242.833 73.9103 235.661 66.3475 231.34 67.2819C231.328 67.2819 227.777 67.4688 229.336 66.2716Z" fill="#407BFF"/>
<g opacity="0.3">
<path d="M229.336 66.2716C231.871 64.3269 239.521 67.9593 244.135 75.2769V75.3353C242.833 73.9103 235.661 66.3475 231.34 67.2819C231.328 67.2819 227.777 67.4688 229.336 66.2716Z" fill="black"/>
</g>
<path d="M234.289 65.0745C236.233 63.9649 240.018 62.5633 243.539 65.5592C247.312 68.7654 245.221 73.4841 244.491 74.8507L244.135 74.693C244.135 74.6346 246.191 69.1859 243.312 66.7506C240.976 64.7591 238.12 65.8279 236.636 66.6396L236.537 66.6922L236.438 66.6338C235.953 66.3243 235.188 65.8687 234.295 65.4191L233.973 65.2497L234.289 65.0745Z" fill="#407BFF"/>
<path opacity="0.3" d="M234.289 65.0745C236.233 63.9649 240.018 62.5633 243.539 65.5592C247.312 68.7654 245.221 73.4841 244.491 74.8507L244.135 74.693C244.135 74.6346 246.191 69.1859 243.312 66.7506C240.976 64.7591 238.12 65.8279 236.636 66.6396L236.537 66.6922L236.438 66.6338C235.953 66.3243 235.188 65.8687 234.295 65.4191L233.973 65.2497L234.289 65.0745Z" fill="white"/>
<path d="M233.74 81.5373C233.534 81.5363 233.329 81.5187 233.127 81.4848C233.098 81.4791 233.073 81.4625 233.057 81.4385C233.04 81.4144 233.034 81.3849 233.039 81.3563C233.041 81.3424 233.046 81.3291 233.053 81.3171C233.061 81.3051 233.07 81.2948 233.082 81.2866C233.093 81.2784 233.106 81.2727 233.12 81.2696C233.134 81.2665 233.148 81.2662 233.162 81.2687C233.611 81.3584 234.075 81.3412 234.516 81.2185C234.958 81.0957 235.364 80.8709 235.702 80.5621C235.721 80.5412 235.748 80.5288 235.777 80.5277C235.805 80.5266 235.833 80.5369 235.854 80.5562C235.875 80.5756 235.887 80.6025 235.888 80.6309C235.889 80.6594 235.879 80.6872 235.86 80.7081C235.289 81.2516 234.528 81.5493 233.74 81.5373Z" fill="#263238"/>
<path opacity="0.5" d="M248.614 100.967H240.795L241.052 101.872C241.123 102.129 241.275 102.355 241.486 102.518C241.696 102.681 241.953 102.772 242.22 102.778H246.862C247.086 102.778 247.305 102.717 247.497 102.603C247.69 102.489 247.847 102.326 247.954 102.129L248.614 100.967Z" fill="white"/>
<path d="M244.217 101.825C244.217 101.954 244.268 102.077 244.359 102.168C244.45 102.259 244.573 102.31 244.701 102.31C244.831 102.31 244.954 102.259 245.046 102.169C245.138 102.078 245.19 101.955 245.192 101.825C245.191 101.696 245.138 101.572 245.047 101.48C244.955 101.389 244.831 101.336 244.701 101.335C244.572 101.336 244.449 101.389 244.358 101.481C244.268 101.572 244.217 101.696 244.217 101.825Z" fill="#407BFF"/>
<path opacity="0.5" d="M235.252 100.92H228.957L229.161 101.825C229.195 102.063 229.309 102.283 229.484 102.447C229.659 102.612 229.885 102.712 230.125 102.731H233.863C234.057 102.72 234.244 102.653 234.4 102.538C234.557 102.423 234.676 102.265 234.744 102.082L235.252 100.92Z" fill="white"/>
<path d="M231.094 101.825C231.094 101.954 231.145 102.077 231.236 102.168C231.327 102.259 231.45 102.31 231.579 102.31C231.708 102.31 231.832 102.259 231.924 102.169C232.016 102.078 232.068 101.955 232.07 101.825C232.068 101.696 232.016 101.572 231.924 101.48C231.832 101.389 231.709 101.336 231.579 101.335C231.45 101.336 231.327 101.389 231.236 101.481C231.145 101.572 231.094 101.696 231.094 101.825Z" fill="#407BFF"/>
<path d="M237.6 76.7135L241.221 76.4682L241.192 76.0769L237.261 76.3514L237.6 76.7135Z" fill="#263238"/>
<path d="M244.123 78.2727C243.837 78.7263 243.462 79.118 243.022 79.4249C242.581 79.7317 242.084 79.9476 241.56 80.0597C240.152 80.3576 239.527 79.0728 239.989 77.7938C240.403 76.6258 241.635 75.0957 243.014 75.376C243.314 75.4421 243.593 75.5817 243.826 75.7824C244.059 75.983 244.239 76.2383 244.349 76.5254C244.459 76.8126 244.496 77.1226 244.456 77.4275C244.417 77.7325 244.303 78.0229 244.123 78.2727Z" fill="#B55B52"/>
<path d="M236.327 106.79L236.035 107.701C236.026 107.727 236.025 107.756 236.032 107.783C236.04 107.81 236.055 107.835 236.076 107.853C236.098 107.871 236.124 107.883 236.152 107.886C236.18 107.889 236.209 107.883 236.233 107.87L237.092 107.438L242.196 101.434C242.248 101.373 242.273 101.294 242.266 101.214C242.26 101.134 242.222 101.06 242.161 101.008L241.863 100.751C241.833 100.725 241.797 100.705 241.759 100.692C241.721 100.679 241.68 100.675 241.64 100.678C241.6 100.681 241.56 100.692 241.525 100.711C241.489 100.73 241.457 100.755 241.431 100.786L236.327 106.79Z" fill="#263238"/>
<path opacity="0.5" d="M236.327 106.79L236.035 107.701C236.026 107.727 236.025 107.756 236.032 107.783C236.04 107.81 236.055 107.835 236.076 107.853C236.098 107.871 236.124 107.883 236.152 107.886C236.18 107.889 236.209 107.883 236.233 107.87L237.092 107.438L242.196 101.434C242.248 101.373 242.273 101.294 242.266 101.214C242.26 101.134 242.222 101.06 242.161 101.008L241.863 100.751C241.833 100.725 241.797 100.705 241.759 100.692C241.721 100.679 241.68 100.675 241.64 100.678C241.6 100.681 241.56 100.692 241.525 100.711C241.489 100.73 241.457 100.755 241.431 100.786L236.327 106.79Z" fill="white"/>
<path opacity="0.5" d="M241.741 100.693L236.42 106.947L236.064 107.829C236.048 107.812 236.037 107.791 236.032 107.769C236.027 107.746 236.028 107.723 236.035 107.701L236.327 106.79L241.431 100.786C241.469 100.743 241.518 100.711 241.572 100.695C241.627 100.678 241.686 100.677 241.741 100.693Z" fill="white"/>
<path d="M244.369 107.023L240.865 105.271L240.059 109.896C240.059 109.896 243.428 111.064 244.345 109.388L244.369 107.023Z" fill="#B55B52"/>
<path d="M236.993 106.579V108.25C236.99 108.571 237.102 108.883 237.308 109.129C237.515 109.376 237.803 109.54 238.12 109.593L240.053 109.92L240.859 105.295L238.394 105.23C238.213 105.226 238.033 105.257 237.865 105.323C237.696 105.388 237.542 105.486 237.411 105.612C237.281 105.737 237.177 105.888 237.105 106.054C237.033 106.22 236.995 106.398 236.993 106.579Z" fill="#B55B52"/>
<path d="M242.722 109.511C245.22 111.107 247.89 112.416 250.682 113.412C251.431 113.674 252.196 113.891 252.971 114.061C253.883 114.266 254.817 114.348 255.751 114.306C256.436 114.265 257.107 114.09 257.725 113.792C258.159 113.578 258.554 113.291 258.893 112.945C258.98 112.852 259.08 112.735 259.15 112.653L259.319 112.425C259.43 112.274 259.518 112.116 259.611 111.958C260.169 110.906 260.444 109.727 260.411 108.536C260.398 107.634 260.291 106.735 260.09 105.855C259.918 105.066 259.704 104.286 259.448 103.519C258.957 102.066 258.382 100.642 257.725 99.2562C257.082 97.913 256.405 96.599 255.669 95.3258C254.933 94.0527 254.203 92.8205 253.333 91.5474C252.889 90.9034 252.211 90.4584 251.443 90.3071C250.675 90.1557 249.879 90.31 249.224 90.7371C248.568 91.1642 248.105 91.8303 247.934 92.5936C247.762 93.3569 247.895 94.157 248.305 94.8236L248.334 94.8762C249.017 95.9682 249.753 97.1654 250.419 98.3334C251.085 99.5014 251.745 100.669 252.34 101.884C252.939 103.04 253.475 104.227 253.946 105.441C254.377 106.472 254.668 107.556 254.811 108.664C254.821 108.814 254.821 108.964 254.811 109.114C254.453 109.14 254.094 109.14 253.736 109.114C253.152 109.056 252.521 108.98 251.885 108.857C249.327 108.372 246.629 107.596 243.977 106.819H243.925C243.577 106.715 243.204 106.741 242.875 106.892C242.545 107.042 242.281 107.308 242.133 107.639C241.984 107.969 241.961 108.343 242.067 108.689C242.173 109.036 242.402 109.332 242.71 109.523L242.722 109.511Z" fill="#B55B52"/>
<path d="M250.396 87.7804C256.498 89.7018 259.944 102.491 259.944 102.491L253.321 105.096C251.104 103.36 249.284 101.169 247.984 98.672C247.312 97.3697 245.531 86.2445 250.396 87.7804Z" fill="#407BFF"/>
<path d="M259.926 100.967L251.832 104.167L253.024 105.861L260.446 102.924L259.926 100.967Z" fill="#407BFF"/>
<path opacity="0.5" d="M259.926 100.967L251.832 104.167L253.024 105.861L260.446 102.924L259.926 100.967Z" fill="white"/>
<path d="M221.92 102.55H233.868L242.26 117.173L241.939 117.5H229.991L221.593 102.871L221.92 102.55Z" fill="#263238"/>
<path opacity="0.2" d="M221.92 102.55H233.868L242.26 117.173L241.939 117.5H229.991L221.593 102.871L221.92 102.55Z" fill="white"/>
<path d="M229.991 117.5H241.939L233.541 102.871H221.593L229.991 117.5Z" fill="#263238"/>
<path opacity="0.4" d="M229.991 117.5H241.939L233.541 102.871H221.593L229.991 117.5Z" fill="white"/>
<path d="M224.98 102.334H229.529L230.493 104.015L230.358 104.15H225.809L224.845 102.468L224.98 102.334Z" fill="#407BFF"/>
<path opacity="0.5" d="M224.98 102.334H229.529L230.493 104.015L230.358 104.15H225.809L224.845 102.468L224.98 102.334Z" fill="white"/>
<path d="M225.809 104.15L224.845 102.468H229.395L230.358 104.15H225.809Z" fill="#407BFF"/>
<path opacity="0.2" d="M225.809 104.15L224.845 102.468H229.395L230.358 104.15H225.809Z" fill="white"/>
<path d="M218.924 111.9C218.812 111.1 218.812 110.288 218.924 109.488C218.953 109.277 218.994 109.085 219.029 108.904H224.629C224.471 109.366 224.342 109.838 224.244 110.317C224.177 110.618 224.144 110.926 224.145 111.234C224.147 111.271 224.147 111.308 224.145 111.345C224.187 111.371 224.232 111.392 224.279 111.409C224.697 111.588 225.129 111.735 225.57 111.847C226.516 112.11 227.596 112.332 228.618 112.589H228.729C229.038 112.666 229.313 112.841 229.513 113.089C229.713 113.336 229.826 113.642 229.836 113.96C229.846 114.278 229.752 114.591 229.568 114.85C229.384 115.11 229.12 115.302 228.817 115.398C227.643 115.774 226.426 115.998 225.196 116.064C224.524 116.107 223.849 116.088 223.181 116.005C222.785 115.945 222.395 115.856 222.013 115.737C221.49 115.577 221 115.326 220.565 114.995C220.418 114.88 220.28 114.755 220.15 114.621C220.012 114.474 219.883 114.318 219.765 114.154C219.601 113.905 219.459 113.643 219.338 113.371C219.134 112.902 218.994 112.407 218.924 111.9Z" fill="#B55B52"/>
<path d="M228.606 115.409L232.759 114.825L230.364 110.983C230.364 110.983 226.86 111.497 227.094 113.663L228.606 115.409Z" fill="#B55B52"/>
<path d="M234.406 112.501L233.658 110.749C233.595 110.603 233.503 110.471 233.388 110.362C233.272 110.253 233.136 110.168 232.987 110.113C232.837 110.059 232.679 110.035 232.52 110.044C232.361 110.053 232.206 110.094 232.064 110.165L230.364 110.977L232.759 114.819L234.014 113.914C234.231 113.759 234.388 113.534 234.459 113.277C234.531 113.02 234.512 112.746 234.406 112.501Z" fill="#B55B52"/>
<path d="M78.0806 128.047H82.7234V129.881H81.9642V138.11H78.8398V129.881H78.0806V128.047Z" fill="#407BFF"/>
<g opacity="0.2">
<path d="M78.0806 128.047H82.7234V129.881H81.9642V138.11H78.8398V129.881H78.0806V128.047Z" fill="black"/>
</g>
<path d="M105.529 122.184L122.015 147.547V170.305H82.9803V147.547L105.529 122.184Z" fill="#407BFF"/>
<path opacity="0.5" d="M105.529 122.184L122.015 147.547V170.305H82.9803V147.547L105.529 122.184Z" fill="white"/>
<path d="M87.4246 123.218L89.9358 119.369H105.529L123.901 147.547H108.303H87.4246V123.218Z" fill="#407BFF"/>
<path opacity="0.2" d="M87.4246 123.218L89.9358 119.369H105.529L123.901 147.547H108.303H87.4246V123.218Z" fill="black"/>
<path d="M108.303 147.547L89.9358 119.369L71.5631 147.547H108.303Z" fill="#407BFF"/>
<path d="M89.9357 122.184L106.416 147.547V170.305H73.4494V147.547L89.9357 122.184Z" fill="#407BFF"/>
<path opacity="0.8" d="M89.9357 122.184L106.416 147.547V170.305H73.4494V147.547L89.9357 122.184Z" fill="white"/>
<path d="M97.3293 136.784H93.9947V145.62H97.3293V136.784Z" fill="#407BFF"/>
<path d="M85.6551 136.784H82.3205V145.62H85.6551V136.784Z" fill="#407BFF"/>
<path d="M93.9887 136.363H85.6551V146.034H93.9887V136.363Z" fill="#407BFF"/>
<path opacity="0.4" d="M93.9887 136.363H85.6551V146.034H93.9887V136.363Z" fill="white"/>
<path d="M92.9492 137.409H86.6945V144.995H92.9492V137.409Z" fill="#263238"/>
<path d="M84.7849 170.306H94.8647V154.035H84.7849V170.306Z" fill="#407BFF"/>
<path opacity="0.3" d="M84.7849 170.306H94.8647V154.035H84.7849V170.306Z" fill="white"/>
<path d="M85.4099 150.631H94.24L96.3891 154.614H83.2608L85.4099 150.631Z" fill="#407BFF"/>
<path d="M93.1069 156.804H90.0175V170.311H93.1069V156.804Z" fill="#263238"/>
<path d="M89.6322 156.804H86.5428V170.311H89.6322V156.804Z" fill="#263238"/>
<path d="M115.725 186.745H68.7658V226.545H115.725V186.745Z" fill="#407BFF"/>
<path opacity="0.6" d="M115.725 186.745H68.7658V226.545H115.725V186.745Z" fill="white"/>
<path d="M126.693 186.745H103.502V226.545H126.693V186.745Z" fill="#407BFF"/>
<path opacity="0.8" d="M126.693 186.745H103.502V226.545H126.693V186.745Z" fill="white"/>
<path d="M99.1338 190.745H89.8949V201.462H99.1338V190.745Z" fill="#407BFF"/>
<path opacity="0.3" d="M99.1338 190.745H89.8949V201.462H99.1338V190.745Z" fill="white"/>
<path d="M97.9775 191.902H91.0512V200.306H97.9775V191.902Z" fill="#263238"/>
<path d="M110.376 191.207H106.679V201.001H110.376V191.207Z" fill="#407BFF"/>
<path d="M123.311 191.207H119.615V201.001H123.311V191.207Z" fill="#407BFF"/>
<path d="M119.615 190.745H110.376V201.462H119.615V190.745Z" fill="#407BFF"/>
<path opacity="0.3" d="M119.615 190.745H110.376V201.462H119.615V190.745Z" fill="white"/>
<path d="M118.458 191.902H111.532V200.306H118.458V191.902Z" fill="#263238"/>
<path d="M90.59 208.838H79.6225V226.539H90.59V208.838Z" fill="#407BFF"/>
<path opacity="0.3" d="M90.59 208.838H79.6225V226.539H90.59V208.838Z" fill="white"/>
<path d="M89.9124 205.13H80.2998L77.9638 209.463H92.2484L89.9124 205.13Z" fill="#407BFF"/>
<path d="M84.896 211.845H81.538V226.539H84.896V211.845Z" fill="#263238"/>
<path d="M88.6743 211.845H85.3163V226.539H88.6743V211.845Z" fill="#263238"/>
<path d="M120.958 187.084L111.783 170.054H72.7136L63.539 187.084H120.958Z" fill="#407BFF"/>
<path opacity="0.3" d="M120.958 187.084L111.783 170.054H72.7136L63.539 187.084H120.958Z" fill="black"/>
<path d="M131.925 187.084L122.751 170.054H107.45L98.2753 187.084H131.925Z" fill="#407BFF"/>
<path opacity="0.1" d="M131.925 187.084L122.751 170.054H107.45L98.2753 187.084H131.925Z" fill="black"/>
<path d="M81.4677 184.17V170.054H99.525L91.9213 184.17H81.4677Z" fill="#407BFF"/>
<path opacity="0.8" d="M81.4677 184.17V170.054H99.525L91.9213 184.17H81.4677Z" fill="white"/>
<path d="M80.9363 184.17H91.9038V173.202H80.9363V184.17Z" fill="#407BFF"/>
<path opacity="0.6" d="M80.9363 184.17H91.9038V173.202H80.9363V184.17Z" fill="white"/>
<path d="M88.7328 182.844H84.1075C83.9062 182.844 83.7131 182.764 83.5707 182.622C83.4283 182.479 83.3483 182.286 83.3483 182.085V181.53H89.492V182.085C89.492 182.286 89.412 182.479 89.2697 182.622C89.1273 182.764 88.9342 182.844 88.7328 182.844Z" fill="#407BFF"/>
<path d="M84.4813 177.033C84.4668 176.769 84.5063 176.505 84.5973 176.257C84.6883 176.009 84.829 175.782 85.0108 175.59C85.1925 175.398 85.4115 175.245 85.6543 175.14C85.8971 175.036 86.1587 174.982 86.4231 174.982C86.6874 174.982 86.949 175.036 87.1918 175.14C87.4346 175.245 87.6536 175.398 87.8353 175.59C88.0171 175.782 88.1578 176.009 88.2488 176.257C88.3398 176.505 88.3793 176.769 88.3648 177.033V181.22H84.4813V177.033Z" fill="#263238"/>
<path d="M88.359 173.827L90.3972 170.054H99.5251L97.4928 173.827H88.359Z" fill="#407BFF"/>
<path opacity="0.2" d="M88.359 173.827L90.3972 170.054H99.5251L97.4928 173.827H88.359Z" fill="black"/>
<path d="M91.5242 170.054L93.5624 173.827H79.2777L81.3159 170.054H91.5242Z" fill="#407BFF"/>
<path d="M82.5891 190.745H73.3502V201.462H82.5891V190.745Z" fill="#407BFF"/>
<path opacity="0.3" d="M82.5891 190.745H73.3502V201.462H82.5891V190.745Z" fill="white"/>
<path d="M81.427 191.902H74.5007V200.306H81.427V191.902Z" fill="#263238"/>
<path d="M128.544 226.148H214.468C214.837 226.153 215.204 226.08 215.543 225.933C215.883 225.786 216.187 225.569 216.436 225.296C216.685 225.022 216.873 224.699 216.988 224.348C217.103 223.996 217.141 223.624 217.102 223.257L206.315 100.033C206.237 99.2506 205.874 98.5244 205.296 97.9917C204.718 97.4589 203.965 97.1566 203.179 97.142H117.238C116.868 97.1365 116.501 97.2097 116.162 97.3565C115.823 97.5034 115.519 97.7207 115.269 97.994C115.02 98.2673 114.832 98.5904 114.718 98.9419C114.603 99.2933 114.564 99.6652 114.604 100.033L125.39 223.257C125.469 224.042 125.834 224.77 126.416 225.304C126.997 225.837 127.755 226.137 128.544 226.148Z" fill="#263238"/>
<path d="M129.764 226.148H215.706C216.076 226.154 216.443 226.082 216.783 225.935C217.122 225.788 217.427 225.571 217.676 225.298C217.925 225.024 218.114 224.701 218.228 224.349C218.342 223.997 218.38 223.625 218.34 223.257L207.559 100.033C207.479 99.2503 207.116 98.524 206.537 97.9913C205.958 97.4587 205.204 97.1566 204.417 97.1421H118.482C118.112 97.1357 117.745 97.2082 117.405 97.3547C117.065 97.5013 116.76 97.7186 116.511 97.9921C116.262 98.2656 116.074 98.5891 115.96 98.941C115.845 99.2929 115.807 99.6651 115.848 100.033L126.628 223.257C126.707 224.039 127.069 224.765 127.647 225.298C128.225 225.831 128.979 226.133 129.764 226.148Z" fill="#263238"/>
<path opacity="0.5" d="M129.764 226.148H215.706C216.076 226.154 216.443 226.082 216.783 225.935C217.122 225.788 217.427 225.571 217.676 225.298C217.925 225.024 218.114 224.701 218.228 224.349C218.342 223.997 218.38 223.625 218.34 223.257L207.559 100.033C207.479 99.2503 207.116 98.524 206.537 97.9913C205.958 97.4587 205.204 97.1566 204.417 97.1421H118.482C118.112 97.1357 117.745 97.2082 117.405 97.3547C117.065 97.5013 116.76 97.7186 116.511 97.9921C116.262 98.2656 116.074 98.5891 115.96 98.941C115.845 99.2929 115.807 99.6651 115.848 100.033L126.628 223.257C126.707 224.039 127.069 224.765 127.647 225.298C128.225 225.831 128.979 226.133 129.764 226.148Z" fill="white"/>
<path opacity="0.2" d="M199.564 104.261L209.872 221.674H132.41L122.102 104.261H199.564Z" fill="black"/>
<path d="M200.037 104.267L203.01 142.128C203.788 151.943 204.956 161.715 206.514 171.444L214.106 219.017H136.627L129.035 171.328C127.477 161.614 126.319 151.853 125.56 142.046L122.593 104.267H200.037Z" fill="white"/>
<path d="M148.628 119.316H177.67C177.892 119.322 178.112 119.278 178.316 119.189C178.519 119.1 178.7 118.967 178.846 118.799C178.992 118.632 179.099 118.435 179.161 118.221C179.222 118.008 179.235 117.784 179.2 117.564L178.972 115.678C178.907 115.201 178.675 114.763 178.316 114.442C177.958 114.121 177.497 113.938 177.016 113.926H147.968C147.746 113.921 147.526 113.964 147.323 114.054C147.12 114.143 146.939 114.276 146.793 114.443C146.648 114.611 146.541 114.808 146.48 115.022C146.42 115.235 146.407 115.459 146.444 115.678L146.671 117.564C146.736 118.041 146.969 118.479 147.327 118.8C147.686 119.121 148.147 119.304 148.628 119.316Z" fill="#407BFF"/>
<path d="M136.364 158.351H198.717C198.939 158.357 199.159 158.313 199.362 158.224C199.565 158.134 199.746 158.001 199.892 157.834C200.037 157.667 200.144 157.469 200.205 157.256C200.265 157.042 200.278 156.818 200.242 156.599L200.014 154.713C199.949 154.236 199.716 153.798 199.358 153.477C198.999 153.156 198.538 152.973 198.057 152.961H135.704C135.482 152.955 135.261 152.999 135.058 153.088C134.855 153.178 134.674 153.311 134.528 153.478C134.382 153.645 134.274 153.843 134.213 154.056C134.152 154.269 134.138 154.494 134.174 154.713L134.407 156.599C134.472 157.076 134.705 157.514 135.063 157.835C135.422 158.156 135.883 158.339 136.364 158.351Z" fill="#407BFF"/>
<path opacity="0.5" d="M136.364 158.351H198.717C198.939 158.357 199.159 158.313 199.362 158.224C199.565 158.134 199.746 158.001 199.892 157.834C200.037 157.667 200.144 157.469 200.205 157.256C200.265 157.042 200.278 156.818 200.242 156.599L200.014 154.713C199.949 154.236 199.716 153.798 199.358 153.477C198.999 153.156 198.538 152.973 198.057 152.961H135.704C135.482 152.955 135.261 152.999 135.058 153.088C134.855 153.178 134.674 153.311 134.528 153.478C134.382 153.645 134.274 153.843 134.213 154.056C134.152 154.269 134.138 154.494 134.174 154.713L134.407 156.599C134.472 157.076 134.705 157.514 135.063 157.835C135.422 158.156 135.883 158.339 136.364 158.351Z" fill="white"/>
<path d="M174.791 127.352H145.748C145.164 127.352 145.071 126.424 145.667 126.424H174.709C175.293 126.424 175.392 127.352 174.791 127.352Z" fill="#263238"/>
<path d="M133.374 129.934H175.141C175.725 129.934 175.825 130.868 175.223 130.868H133.45C132.866 130.868 132.772 129.934 133.374 129.934Z" fill="#263238"/>
<path d="M181.197 131.02H195.371C195.593 131.025 195.813 130.982 196.017 130.892C196.22 130.803 196.401 130.67 196.547 130.503C196.693 130.336 196.801 130.138 196.862 129.925C196.923 129.711 196.936 129.487 196.901 129.268L196.668 127.382C196.604 126.904 196.372 126.466 196.013 126.144C195.654 125.823 195.193 125.641 194.711 125.63H180.52C180.298 125.623 180.077 125.666 179.873 125.755C179.669 125.844 179.488 125.977 179.342 126.145C179.195 126.312 179.088 126.51 179.027 126.724C178.966 126.938 178.954 127.162 178.99 127.382L179.223 129.268C179.289 129.748 179.524 130.188 179.886 130.509C180.248 130.831 180.713 131.012 181.197 131.02Z" fill="#263238"/>
<path opacity="0.7" d="M181.197 131.02H195.371C195.593 131.025 195.813 130.982 196.017 130.892C196.22 130.803 196.401 130.67 196.547 130.503C196.693 130.336 196.801 130.138 196.862 129.925C196.923 129.711 196.936 129.487 196.901 129.268L196.668 127.382C196.604 126.904 196.372 126.466 196.013 126.144C195.654 125.823 195.193 125.641 194.711 125.63H180.52C180.298 125.623 180.077 125.666 179.873 125.755C179.669 125.844 179.488 125.977 179.342 126.145C179.195 126.312 179.088 126.51 179.027 126.724C178.966 126.938 178.954 127.162 178.99 127.382L179.223 129.268C179.289 129.748 179.524 130.188 179.886 130.509C180.248 130.831 180.713 131.012 181.197 131.02Z" fill="white"/>
<path d="M189.186 141.83H196.691C196.913 141.835 197.133 141.791 197.336 141.702C197.54 141.613 197.721 141.48 197.867 141.312C198.013 141.145 198.12 140.948 198.181 140.735C198.243 140.521 198.256 140.297 198.221 140.078L198.098 139.091C198.035 138.614 197.803 138.176 197.446 137.855C197.088 137.534 196.628 137.351 196.148 137.339H188.637C188.415 137.332 188.194 137.375 187.991 137.464C187.787 137.553 187.605 137.686 187.459 137.854C187.313 138.021 187.205 138.219 187.145 138.433C187.084 138.647 187.071 138.871 187.107 139.091L187.23 140.078C187.295 140.554 187.528 140.992 187.886 141.313C188.244 141.634 188.705 141.817 189.186 141.83Z" fill="#263238"/>
<path d="M166.235 141.83H183.656C183.878 141.835 184.098 141.792 184.302 141.702C184.505 141.613 184.686 141.48 184.832 141.313C184.978 141.145 185.085 140.948 185.147 140.735C185.208 140.521 185.221 140.297 185.186 140.078L185.063 139.091C185 138.614 184.768 138.176 184.411 137.855C184.053 137.534 183.593 137.351 183.113 137.339H165.686C165.464 137.332 165.243 137.375 165.04 137.464C164.836 137.553 164.655 137.686 164.509 137.854C164.364 138.021 164.257 138.219 164.197 138.433C164.137 138.647 164.125 138.872 164.162 139.091L164.279 140.078C164.345 140.554 164.578 140.991 164.936 141.312C165.294 141.633 165.755 141.816 166.235 141.83Z" fill="#263238"/>
<path d="M147.623 141.83H160.711C160.932 141.834 161.152 141.79 161.355 141.7C161.558 141.61 161.738 141.477 161.884 141.31C162.03 141.143 162.137 140.946 162.199 140.734C162.261 140.521 162.275 140.297 162.241 140.078L162.118 139.091C162.054 138.613 161.822 138.175 161.463 137.854C161.105 137.532 160.643 137.35 160.162 137.339H147.08C146.858 137.332 146.637 137.375 146.433 137.464C146.229 137.553 146.048 137.686 145.902 137.854C145.755 138.021 145.648 138.219 145.587 138.433C145.526 138.647 145.514 138.871 145.55 139.091L145.667 140.078C145.734 140.553 145.967 140.99 146.325 141.311C146.683 141.631 147.143 141.815 147.623 141.83Z" fill="#263238"/>
<path d="M135.207 141.83H142.099C142.32 141.835 142.541 141.791 142.744 141.702C142.947 141.613 143.128 141.48 143.274 141.312C143.42 141.145 143.528 140.948 143.589 140.735C143.65 140.521 143.664 140.297 143.629 140.078L143.506 139.091C143.442 138.613 143.21 138.175 142.851 137.854C142.493 137.532 142.031 137.35 141.55 137.339H134.664C134.442 137.332 134.221 137.375 134.017 137.464C133.814 137.553 133.632 137.686 133.486 137.854C133.34 138.021 133.232 138.219 133.171 138.433C133.111 138.647 133.098 138.871 133.134 139.091L133.257 140.078C133.322 140.553 133.553 140.991 133.911 141.312C134.268 141.632 134.727 141.816 135.207 141.83Z" fill="#263238"/>
<path d="M184.409 148.365H197.491C197.713 148.371 197.934 148.328 198.138 148.239C198.342 148.15 198.523 148.017 198.669 147.85C198.816 147.682 198.923 147.484 198.984 147.27C199.045 147.057 199.057 146.832 199.021 146.613L198.898 145.626C198.834 145.15 198.602 144.713 198.245 144.392C197.887 144.071 197.428 143.887 196.948 143.874H183.86C183.638 143.868 183.418 143.912 183.215 144.001C183.012 144.091 182.831 144.224 182.684 144.391C182.538 144.558 182.431 144.755 182.37 144.969C182.309 145.182 182.295 145.406 182.33 145.626L182.453 146.613C182.517 147.09 182.749 147.529 183.108 147.85C183.466 148.171 183.928 148.354 184.409 148.365Z" fill="#263238"/>
<path d="M163.321 148.365H178.879C179.101 148.371 179.322 148.328 179.526 148.239C179.73 148.15 179.911 148.017 180.057 147.85C180.204 147.682 180.311 147.484 180.372 147.27C180.433 147.057 180.445 146.832 180.409 146.613L180.292 145.626C180.225 145.15 179.992 144.713 179.634 144.393C179.276 144.072 178.816 143.888 178.336 143.874H162.772C162.55 143.868 162.33 143.912 162.127 144.001C161.923 144.091 161.742 144.224 161.596 144.391C161.45 144.558 161.343 144.755 161.282 144.969C161.22 145.182 161.207 145.406 161.242 145.626L161.365 146.613C161.429 147.09 161.661 147.529 162.02 147.85C162.378 148.171 162.84 148.354 163.321 148.365Z" fill="#263238"/>
<path d="M150.286 148.365H157.791C158.013 148.371 158.234 148.328 158.438 148.239C158.641 148.15 158.823 148.017 158.969 147.85C159.115 147.682 159.223 147.484 159.283 147.27C159.344 147.057 159.357 146.832 159.321 146.613L159.198 145.626C159.133 145.149 158.901 144.711 158.542 144.39C158.184 144.069 157.723 143.886 157.242 143.874H149.737C149.515 143.868 149.295 143.912 149.092 144.001C148.888 144.091 148.707 144.224 148.561 144.391C148.415 144.558 148.308 144.755 148.247 144.969C148.185 145.182 148.172 145.406 148.207 145.626L148.33 146.613C148.394 147.09 148.626 147.529 148.985 147.85C149.343 148.171 149.805 148.354 150.286 148.365Z" fill="#263238"/>
<path d="M136.007 148.365H144.767C144.99 148.371 145.211 148.328 145.414 148.239C145.618 148.15 145.8 148.017 145.946 147.85C146.092 147.682 146.199 147.484 146.26 147.27C146.321 147.057 146.334 146.832 146.297 146.613L146.175 145.626C146.11 145.149 145.877 144.711 145.519 144.39C145.16 144.069 144.699 143.886 144.218 143.874H135.458C135.236 143.868 135.016 143.912 134.813 144.001C134.61 144.091 134.429 144.224 134.283 144.391C134.136 144.558 134.029 144.755 133.968 144.969C133.907 145.182 133.893 145.406 133.928 145.626L134.051 146.613C134.115 147.09 134.347 147.529 134.706 147.85C135.064 148.171 135.526 148.354 136.007 148.365Z" fill="#263238"/>
<g opacity="0.7">
<path d="M189.186 141.83H196.691C196.913 141.835 197.133 141.792 197.336 141.702C197.54 141.613 197.721 141.48 197.867 141.313C198.013 141.145 198.12 140.948 198.181 140.735C198.243 140.521 198.256 140.297 198.221 140.078L198.098 139.091C198.035 138.614 197.803 138.177 197.446 137.855C197.088 137.534 196.628 137.351 196.148 137.339H188.637C188.415 137.332 188.194 137.375 187.991 137.464C187.787 137.553 187.605 137.686 187.459 137.854C187.313 138.021 187.205 138.219 187.145 138.433C187.084 138.647 187.071 138.871 187.107 139.091L187.23 140.078C187.295 140.554 187.528 140.993 187.886 141.314C188.244 141.635 188.705 141.817 189.186 141.83Z" fill="white"/>
<path d="M166.235 141.83H183.656C183.878 141.835 184.098 141.792 184.302 141.702C184.505 141.613 184.686 141.48 184.832 141.313C184.978 141.145 185.085 140.948 185.147 140.735C185.208 140.521 185.221 140.297 185.186 140.078L185.063 139.091C185 138.615 184.768 138.177 184.411 137.855C184.053 137.534 183.593 137.351 183.113 137.339H165.686C165.464 137.332 165.243 137.375 165.04 137.464C164.836 137.553 164.655 137.686 164.509 137.854C164.364 138.022 164.257 138.219 164.197 138.433C164.137 138.647 164.125 138.872 164.162 139.091L164.279 140.078C164.345 140.554 164.578 140.991 164.936 141.312C165.294 141.633 165.755 141.816 166.235 141.83Z" fill="white"/>
<path d="M147.623 141.83H160.711C160.932 141.834 161.152 141.79 161.355 141.7C161.558 141.61 161.738 141.477 161.884 141.31C162.03 141.143 162.137 140.947 162.199 140.734C162.261 140.521 162.275 140.297 162.241 140.078L162.118 139.091C162.054 138.614 161.822 138.175 161.463 137.854C161.105 137.532 160.643 137.35 160.162 137.339H147.08C146.858 137.332 146.637 137.375 146.433 137.464C146.229 137.553 146.048 137.686 145.902 137.854C145.755 138.021 145.648 138.219 145.587 138.433C145.526 138.647 145.514 138.871 145.55 139.091L145.667 140.078C145.734 140.554 145.967 140.99 146.325 141.311C146.683 141.631 147.143 141.815 147.623 141.83Z" fill="white"/>
<path d="M135.207 141.83H142.099C142.32 141.835 142.541 141.792 142.744 141.702C142.947 141.613 143.128 141.48 143.274 141.313C143.42 141.145 143.528 140.948 143.589 140.735C143.65 140.521 143.664 140.297 143.629 140.078L143.506 139.091C143.442 138.613 143.21 138.175 142.851 137.854C142.493 137.532 142.031 137.35 141.55 137.339H134.664C134.442 137.332 134.221 137.375 134.017 137.464C133.814 137.553 133.632 137.686 133.486 137.854C133.34 138.021 133.232 138.219 133.171 138.433C133.111 138.647 133.098 138.871 133.134 139.091L133.257 140.078C133.322 140.553 133.553 140.991 133.911 141.312C134.268 141.633 134.727 141.816 135.207 141.83Z" fill="white"/>
<path d="M184.409 148.365H197.491C197.713 148.371 197.934 148.328 198.138 148.239C198.342 148.15 198.523 148.017 198.669 147.85C198.816 147.682 198.923 147.484 198.984 147.271C199.045 147.057 199.057 146.832 199.021 146.613L198.898 145.626C198.834 145.15 198.602 144.713 198.245 144.392C197.887 144.071 197.428 143.887 196.948 143.874H183.86C183.638 143.868 183.418 143.912 183.215 144.001C183.012 144.091 182.831 144.224 182.684 144.391C182.538 144.558 182.431 144.755 182.37 144.969C182.309 145.182 182.295 145.407 182.33 145.626L182.453 146.613C182.517 147.09 182.749 147.529 183.108 147.85C183.466 148.171 183.928 148.354 184.409 148.365Z" fill="white"/>
<path d="M163.321 148.365H178.879C179.101 148.371 179.322 148.328 179.526 148.239C179.73 148.15 179.911 148.017 180.057 147.85C180.204 147.682 180.311 147.484 180.372 147.271C180.433 147.057 180.445 146.832 180.409 146.613L180.292 145.626C180.225 145.15 179.992 144.713 179.634 144.393C179.276 144.072 178.816 143.888 178.336 143.874H162.772C162.55 143.868 162.33 143.912 162.127 144.001C161.923 144.091 161.742 144.224 161.596 144.391C161.45 144.558 161.343 144.755 161.282 144.969C161.22 145.182 161.207 145.407 161.242 145.626L161.365 146.613C161.429 147.09 161.661 147.529 162.02 147.85C162.378 148.171 162.84 148.354 163.321 148.365Z" fill="white"/>
<path d="M150.286 148.365H157.791C158.013 148.371 158.234 148.328 158.438 148.239C158.641 148.15 158.823 148.017 158.969 147.85C159.115 147.682 159.223 147.484 159.283 147.271C159.344 147.057 159.357 146.832 159.321 146.613L159.198 145.626C159.133 145.149 158.901 144.711 158.542 144.39C158.184 144.069 157.723 143.886 157.242 143.874H149.737C149.515 143.868 149.295 143.912 149.092 144.001C148.888 144.091 148.707 144.224 148.561 144.391C148.415 144.558 148.308 144.755 148.247 144.969C148.185 145.182 148.172 145.407 148.207 145.626L148.33 146.613C148.394 147.09 148.626 147.529 148.985 147.85C149.343 148.171 149.805 148.354 150.286 148.365Z" fill="white"/>
<path d="M136.007 148.365H144.767C144.99 148.371 145.211 148.328 145.414 148.239C145.618 148.15 145.8 148.017 145.946 147.85C146.092 147.682 146.199 147.484 146.26 147.271C146.321 147.057 146.334 146.832 146.297 146.613L146.175 145.626C146.11 145.149 145.877 144.711 145.519 144.39C145.16 144.069 144.699 143.886 144.218 143.874H135.458C135.236 143.868 135.016 143.912 134.813 144.001C134.61 144.091 134.429 144.224 134.283 144.391C134.136 144.558 134.029 144.755 133.968 144.969C133.907 145.182 133.893 145.407 133.928 145.626L134.051 146.613C134.115 147.09 134.347 147.529 134.706 147.85C135.064 148.171 135.526 148.354 136.007 148.365Z" fill="white"/>
</g>
<path d="M160.868 214.263H140.691C140.107 214.263 140.014 213.335 140.609 213.335H160.786C161.37 213.335 161.47 214.263 160.868 214.263Z" fill="#263238"/>
<path d="M207.285 214.263H187.107C186.523 214.263 186.43 213.335 187.026 213.335H207.203C207.787 213.335 207.886 214.263 207.285 214.263Z" fill="#263238"/>
<path d="M203.786 185.688H178.032C177.448 185.688 177.349 184.76 177.95 184.76H203.705C204.289 184.76 204.382 185.688 203.786 185.688Z" fill="#263238"/>
<path d="M178.388 188.31H204.143C204.727 188.31 204.82 189.239 204.224 189.239H178.47C177.886 189.239 177.787 188.31 178.388 188.31Z" fill="#263238"/>
<path d="M178.826 191.885H204.581C205.165 191.885 205.258 192.813 204.663 192.813H178.908C178.324 192.813 178.225 191.885 178.826 191.885Z" fill="#263238"/>
<path d="M179.264 195.458H205.048C205.632 195.458 205.725 196.387 205.124 196.387H179.352C178.768 196.387 178.669 195.458 179.27 195.458H179.264Z" fill="#263238"/>
<path d="M179.702 199.033H205.457C206.041 199.033 206.134 199.967 205.533 199.967H179.784C179.2 199.967 179.101 199.033 179.702 199.033Z" fill="#263238"/>
<path d="M165.277 185.688H145.1C144.516 185.688 144.423 184.76 145.019 184.76H165.196C165.78 184.76 165.879 185.688 165.277 185.688Z" fill="#263238"/>
<path d="M145.48 188.31H165.657C166.241 188.31 166.34 189.239 165.739 189.239H145.538C144.954 189.239 144.855 188.31 145.457 188.31H145.48Z" fill="#263238"/>
<path d="M145.894 191.885H166.072C166.656 191.885 166.749 192.813 166.153 192.813H145.976C145.392 192.813 145.293 191.885 145.894 191.885Z" fill="#263238"/>
<path d="M146.333 195.458H166.504C167.088 195.458 167.181 196.387 166.586 196.387H146.414C145.83 196.387 145.731 195.458 146.333 195.458Z" fill="#263238"/>
<path d="M146.771 199.033H166.948C167.532 199.033 167.625 199.967 167.029 199.967H146.852C146.268 199.967 146.169 199.033 146.771 199.033Z" fill="#263238"/>
<path d="M135.476 167.257L136.007 171.596L136.539 175.935L137.07 180.268H203.372L202.788 175.468L202.256 171.129L201.725 166.796L201.193 162.456H134.886L135.476 167.257ZM147.308 164.857L147.541 166.796H135.861L135.388 162.918H147.068L147.308 164.857ZM148.301 169.196L148.067 167.257H168.396L168.635 169.196L168.869 171.129H148.54L148.301 169.196ZM168.84 167.257H189.169L189.408 169.196L189.642 171.129H169.336L169.097 169.196L168.84 167.257ZM190.173 175.468H169.868L169.628 173.529L169.395 171.596H189.724L189.963 173.529L190.173 175.468ZM169.377 175.468H149.071L148.832 173.529L148.593 171.596H168.927L169.161 173.529L169.377 175.468ZM168.081 164.857L168.314 166.796H148.009L147.769 164.857L147.536 162.918H167.865L168.081 164.857ZM188.877 164.857L189.11 166.796H168.805L168.565 164.857L168.332 162.918H188.661L188.877 164.857ZM201.234 166.796H189.554L189.315 164.857L189.081 162.918H200.761L201.234 166.796ZM201.766 171.129H190.086L189.846 169.196L189.613 167.257H201.293L201.766 171.129ZM202.297 175.468H190.617L190.378 173.529L190.144 171.596H201.824L202.297 175.468ZM190.933 177.868L190.699 175.935H202.379L202.852 179.807H191.172L190.933 177.868ZM170.136 177.868L169.897 175.935H190.232L190.465 177.868L190.705 179.807H170.399L170.136 177.868ZM149.34 177.868L149.101 175.935H169.436L169.669 177.868L169.909 179.807H149.603L149.34 177.868ZM136.983 175.935H148.663L148.896 177.868L149.136 179.807H137.456L136.983 175.935ZM136.451 171.596H148.131L148.365 173.529L148.604 175.468H136.924L136.451 171.596ZM135.92 167.257H147.6L147.833 169.196L148.073 171.129H136.393L135.92 167.257Z" fill="#407BFF"/>
<path opacity="0.5" d="M135.476 167.257L136.007 171.596L136.539 175.935L137.07 180.268H203.372L202.788 175.468L202.256 171.129L201.725 166.796L201.193 162.456H134.886L135.476 167.257ZM147.308 164.857L147.541 166.796H135.861L135.388 162.918H147.068L147.308 164.857ZM148.301 169.196L148.067 167.257H168.396L168.635 169.196L168.869 171.129H148.54L148.301 169.196ZM168.84 167.257H189.169L189.408 169.196L189.642 171.129H169.336L169.097 169.196L168.84 167.257ZM190.173 175.468H169.868L169.628 173.529L169.395 171.596H189.724L189.963 173.529L190.173 175.468ZM169.377 175.468H149.071L148.832 173.529L148.593 171.596H168.927L169.161 173.529L169.377 175.468ZM168.081 164.857L168.314 166.796H148.009L147.769 164.857L147.536 162.918H167.865L168.081 164.857ZM188.877 164.857L189.11 166.796H168.805L168.565 164.857L168.332 162.918H188.661L188.877 164.857ZM201.234 166.796H189.554L189.315 164.857L189.081 162.918H200.761L201.234 166.796ZM201.766 171.129H190.086L189.846 169.196L189.613 167.257H201.293L201.766 171.129ZM202.297 175.468H190.617L190.378 173.529L190.144 171.596H201.824L202.297 175.468ZM190.933 177.868L190.699 175.935H202.379L202.852 179.807H191.172L190.933 177.868ZM170.136 177.868L169.897 175.935H190.232L190.465 177.868L190.705 179.807H170.399L170.136 177.868ZM149.34 177.868L149.101 175.935H169.436L169.669 177.868L169.909 179.807H149.603L149.34 177.868ZM136.983 175.935H148.663L148.896 177.868L149.136 179.807H137.456L136.983 175.935ZM136.451 171.596H148.131L148.365 173.529L148.604 175.468H136.924L136.451 171.596ZM135.92 167.257H147.6L147.833 169.196L148.073 171.129H136.393L135.92 167.257Z" fill="white"/>
<path d="M139.418 188.608H141.339C141.422 188.609 141.503 188.592 141.579 188.558C141.654 188.525 141.722 188.476 141.777 188.415C141.832 188.354 141.874 188.282 141.899 188.203C141.924 188.125 141.932 188.042 141.923 187.96L141.69 186.038C141.665 185.862 141.579 185.701 141.446 185.582C141.314 185.463 141.143 185.395 140.966 185.39H139.038C138.956 185.39 138.874 185.407 138.799 185.44C138.724 185.473 138.656 185.522 138.601 185.583C138.546 185.645 138.504 185.717 138.479 185.795C138.454 185.874 138.445 185.957 138.454 186.038L138.688 187.96C138.714 188.136 138.801 188.298 138.935 188.417C139.068 188.535 139.24 188.603 139.418 188.608Z" fill="#407BFF"/>
<path d="M139.844 192.112H141.771C141.854 192.113 141.935 192.096 142.011 192.062C142.086 192.029 142.154 191.98 142.209 191.919C142.264 191.858 142.306 191.786 142.331 191.707C142.356 191.629 142.365 191.546 142.355 191.464L142.122 189.543C142.096 189.366 142.008 189.204 141.875 189.086C141.741 188.967 141.57 188.899 141.392 188.894H139.471C139.388 188.894 139.307 188.911 139.231 188.944C139.156 188.977 139.088 189.026 139.033 189.087C138.978 189.149 138.936 189.221 138.911 189.299C138.886 189.378 138.877 189.461 138.887 189.543L139.12 191.464C139.145 191.64 139.231 191.802 139.364 191.92C139.496 192.039 139.666 192.107 139.844 192.112Z" fill="#407BFF"/>
<path d="M140.276 195.616H142.198C142.28 195.617 142.361 195.6 142.436 195.567C142.511 195.534 142.578 195.486 142.633 195.425C142.688 195.365 142.73 195.293 142.755 195.215C142.781 195.138 142.79 195.055 142.782 194.974L142.542 193.047C142.518 192.871 142.431 192.71 142.298 192.592C142.166 192.475 141.996 192.408 141.818 192.404H139.897C139.815 192.404 139.734 192.421 139.659 192.454C139.584 192.487 139.517 192.535 139.462 192.595C139.407 192.656 139.365 192.727 139.339 192.805C139.314 192.883 139.305 192.965 139.313 193.047L139.552 194.974C139.577 195.149 139.664 195.31 139.796 195.428C139.929 195.546 140.099 195.613 140.276 195.616Z" fill="#407BFF"/>
<path d="M140.709 199.12H142.63C142.712 199.121 142.794 199.104 142.869 199.07C142.945 199.037 143.012 198.988 143.067 198.927C143.122 198.866 143.164 198.794 143.189 198.715C143.215 198.637 143.223 198.554 143.214 198.472L142.98 196.551C142.955 196.373 142.868 196.211 142.734 196.092C142.601 195.973 142.429 195.906 142.25 195.902H140.329C140.246 195.902 140.165 195.919 140.09 195.952C140.014 195.985 139.947 196.034 139.891 196.095C139.836 196.157 139.795 196.229 139.769 196.307C139.744 196.386 139.736 196.469 139.745 196.551L139.979 198.472C140.005 198.649 140.092 198.81 140.226 198.929C140.359 199.048 140.53 199.115 140.709 199.12Z" fill="#407BFF"/>
<path opacity="0.5" d="M139.844 192.112H141.771C141.854 192.113 141.935 192.096 142.011 192.062C142.086 192.029 142.154 191.98 142.209 191.919C142.264 191.858 142.306 191.786 142.331 191.707C142.356 191.629 142.365 191.546 142.355 191.464L142.122 189.543C142.096 189.366 142.008 189.204 141.875 189.086C141.741 188.967 141.57 188.899 141.392 188.894H139.471C139.388 188.894 139.307 188.911 139.231 188.944C139.156 188.977 139.088 189.026 139.033 189.087C138.978 189.149 138.936 189.221 138.911 189.299C138.886 189.378 138.877 189.461 138.887 189.543L139.12 191.464C139.145 191.64 139.231 191.802 139.364 191.92C139.496 192.039 139.666 192.107 139.844 192.112Z" fill="white"/>
<path opacity="0.5" d="M140.709 199.12H142.63C142.712 199.121 142.794 199.104 142.869 199.07C142.945 199.037 143.012 198.988 143.067 198.927C143.122 198.866 143.164 198.794 143.189 198.715C143.215 198.637 143.223 198.554 143.214 198.472L142.98 196.551C142.955 196.373 142.868 196.211 142.734 196.092C142.601 195.973 142.429 195.906 142.25 195.902H140.329C140.246 195.902 140.165 195.919 140.09 195.952C140.014 195.985 139.947 196.034 139.891 196.095C139.836 196.157 139.795 196.229 139.769 196.307C139.744 196.386 139.736 196.469 139.745 196.551L139.979 198.472C140.005 198.649 140.092 198.81 140.226 198.929C140.359 199.048 140.53 199.115 140.709 199.12Z" fill="white"/>
<path d="M149.147 95.0279H156.739L155.571 92.1721C155.192 91.2727 155.992 90.4201 157.183 90.4201H164.577C165.745 90.4201 166.72 91.2903 166.498 92.1721L165.797 95.0279H173.389C174.519 95.0464 175.602 95.4788 176.435 96.243C177.267 97.0073 177.789 98.0503 177.904 99.1743L178.488 105.838C178.521 106.142 178.489 106.451 178.394 106.742C178.298 107.034 178.142 107.301 177.936 107.528C177.729 107.754 177.477 107.934 177.195 108.056C176.914 108.177 176.61 108.237 176.303 108.232H148.546C147.895 108.22 147.271 107.969 146.792 107.528C146.313 107.087 146.013 106.486 145.947 105.838L145.363 99.1743C145.305 98.6463 145.36 98.1119 145.525 97.6068C145.689 97.1018 145.959 96.6376 146.318 96.2452C146.676 95.8529 147.113 95.5413 147.601 95.3314C148.089 95.1215 148.616 95.018 149.147 95.0279Z" fill="#407BFF"/>
<path opacity="0.2" d="M165.797 95.0279H156.728L156.021 93.346H166.212L165.797 95.0279Z" fill="black"/>
<path d="M171.906 104.238C171.941 104.587 172.104 104.911 172.362 105.149C172.62 105.387 172.957 105.522 173.307 105.528C173.472 105.529 173.634 105.496 173.785 105.429C173.935 105.363 174.07 105.266 174.18 105.144C174.29 105.022 174.373 104.879 174.424 104.723C174.475 104.566 174.493 104.401 174.475 104.238C174.44 103.889 174.278 103.565 174.019 103.327C173.761 103.089 173.425 102.954 173.074 102.947C172.91 102.946 172.747 102.98 172.597 103.046C172.446 103.112 172.312 103.21 172.201 103.331C172.091 103.453 172.008 103.597 171.957 103.753C171.906 103.909 171.889 104.074 171.906 104.238Z" fill="#263238"/>
<path d="M149.65 104.238C149.687 104.587 149.85 104.911 150.109 105.149C150.368 105.387 150.706 105.522 151.057 105.528C151.221 105.529 151.384 105.495 151.534 105.429C151.685 105.363 151.819 105.266 151.93 105.144C152.04 105.022 152.123 104.878 152.174 104.722C152.225 104.566 152.242 104.401 152.225 104.238C152.191 103.888 152.029 103.563 151.77 103.325C151.512 103.087 151.175 102.952 150.824 102.947C150.659 102.945 150.496 102.978 150.344 103.044C150.193 103.11 150.058 103.207 149.947 103.329C149.836 103.451 149.752 103.595 149.701 103.751C149.65 103.908 149.632 104.074 149.65 104.238Z" fill="#263238"/>
<path d="M198.764 209.544L164.425 216.26C164.044 216.349 163.648 216.355 163.264 216.279C162.88 216.203 162.516 216.046 162.197 215.819C161.878 215.593 161.611 215.301 161.413 214.963C161.215 214.625 161.091 214.249 161.049 213.86L160.465 208.639C160.398 207.813 160.637 206.991 161.137 206.33C161.636 205.669 162.362 205.214 163.175 205.054L197.514 198.338C197.896 198.249 198.292 198.243 198.676 198.319C199.061 198.395 199.425 198.552 199.744 198.778C200.063 199.005 200.331 199.297 200.53 199.635C200.728 199.972 200.853 200.348 200.896 200.738L201.48 205.959C201.547 206.786 201.307 207.608 200.806 208.27C200.305 208.931 199.578 209.385 198.764 209.544ZM163.274 205.924C162.698 206.038 162.184 206.36 161.83 206.828C161.476 207.296 161.306 207.879 161.353 208.464L161.937 213.685C161.967 213.961 162.055 214.227 162.196 214.467C162.336 214.706 162.526 214.913 162.752 215.073C162.978 215.234 163.236 215.345 163.508 215.398C163.781 215.452 164.061 215.447 164.331 215.384L198.665 208.674C199.242 208.56 199.757 208.237 200.111 207.768C200.466 207.298 200.635 206.714 200.586 206.128L200.002 200.907C199.972 200.632 199.884 200.366 199.744 200.128C199.604 199.889 199.415 199.683 199.189 199.523C198.963 199.363 198.706 199.253 198.434 199.199C198.163 199.146 197.883 199.151 197.614 199.214L163.274 205.924Z" fill="#407BFF"/>
<path d="M168.139 210.876L166.387 211.215L166.142 212.067L165.26 212.243L166.516 208.248L167.368 208.079L169.447 211.419L168.536 211.6L168.139 210.876ZM167.795 210.292L167.047 209.001L166.609 210.526L167.795 210.292Z" fill="#407BFF"/>
<path d="M171.935 207.354C172.176 207.402 172.395 207.528 172.556 207.713C172.718 207.898 172.814 208.131 172.829 208.376C172.86 208.63 172.818 208.888 172.706 209.118C172.597 209.358 172.42 209.561 172.198 209.702C171.94 209.865 171.652 209.977 171.351 210.029L170.604 210.175L170.715 211.191L169.85 211.355L169.441 207.687L171.059 207.372C171.347 207.305 171.645 207.299 171.935 207.354ZM171.801 209.054C171.863 208.986 171.908 208.905 171.935 208.817C171.961 208.729 171.967 208.636 171.953 208.546C171.95 208.458 171.925 208.372 171.88 208.297C171.835 208.221 171.772 208.158 171.696 208.114C171.513 208.03 171.307 208.011 171.112 208.061L170.405 208.201L170.551 209.474L171.252 209.334C171.461 209.302 171.654 209.201 171.801 209.048V209.054Z" fill="#407BFF"/>
<path d="M175.784 206.601C176.02 206.654 176.234 206.778 176.397 206.958C176.561 207.143 176.66 207.377 176.677 207.623C176.709 207.877 176.666 208.135 176.554 208.365C176.445 208.605 176.269 208.808 176.046 208.949C175.791 209.113 175.505 209.225 175.205 209.276L174.452 209.422L174.563 210.438L173.699 210.608L173.29 206.934L174.908 206.619C175.195 206.552 175.494 206.546 175.784 206.601ZM175.649 208.301C175.711 208.233 175.757 208.152 175.783 208.064C175.809 207.976 175.815 207.883 175.801 207.793C175.798 207.705 175.773 207.619 175.728 207.544C175.683 207.468 175.62 207.405 175.544 207.361C175.361 207.279 175.155 207.261 174.96 207.308L174.253 207.448L174.399 208.721L175.1 208.581C175.309 208.552 175.503 208.453 175.649 208.301Z" fill="#407BFF"/>
<path d="M179.936 209.375L179.101 208.493H179.054L178.307 208.639L178.417 209.661L177.553 209.831L177.144 206.163L178.762 205.848C179.052 205.781 179.354 205.781 179.644 205.848C179.88 205.899 180.094 206.021 180.257 206.198C180.416 206.386 180.512 206.619 180.532 206.864C180.564 207.12 180.521 207.379 180.409 207.612C180.295 207.85 180.117 208.052 179.895 208.196L180.859 209.212L179.936 209.375ZM179.399 206.607C179.215 206.525 179.009 206.509 178.815 206.56L178.108 206.695L178.254 207.974L178.955 207.839C179.176 207.813 179.382 207.712 179.539 207.553C179.602 207.486 179.649 207.406 179.676 207.317C179.702 207.229 179.707 207.136 179.691 207.045C179.685 206.952 179.654 206.862 179.602 206.785C179.549 206.708 179.477 206.647 179.393 206.607H179.399Z" fill="#407BFF"/>
<path d="M182.208 208.744C181.889 208.646 181.607 208.454 181.399 208.194C181.191 207.933 181.066 207.617 181.04 207.284C180.997 206.936 181.052 206.582 181.197 206.262C181.342 205.937 181.567 205.654 181.851 205.439C182.152 205.211 182.502 205.057 182.873 204.989C183.227 204.914 183.595 204.928 183.942 205.03C184.257 205.128 184.537 205.314 184.748 205.567C184.963 205.83 185.094 206.152 185.122 206.49C185.164 206.839 185.11 207.192 184.964 207.512C184.817 207.836 184.592 208.119 184.31 208.335C184.01 208.562 183.663 208.716 183.294 208.785C182.934 208.863 182.561 208.848 182.208 208.744ZM183.784 207.792C183.947 207.66 184.073 207.49 184.152 207.296C184.235 207.095 184.265 206.876 184.24 206.659C184.22 206.448 184.144 206.246 184.018 206.075C183.901 205.921 183.74 205.805 183.557 205.743C183.357 205.675 183.143 205.663 182.938 205.707C182.724 205.748 182.523 205.84 182.354 205.976C182.188 206.106 182.059 206.277 181.98 206.473C181.899 206.674 181.871 206.893 181.898 207.109C181.916 207.32 181.991 207.522 182.114 207.693C182.234 207.848 182.396 207.964 182.581 208.026C182.77 208.089 182.971 208.101 183.165 208.061C183.392 208.027 183.605 207.935 183.784 207.792Z" fill="#407BFF"/>
<path d="M189.023 203.85L187.82 207.833L186.967 208.003L184.947 204.645L185.881 204.464L187.306 206.864L188.164 204.02L189.023 203.85Z" fill="#407BFF"/>
<path d="M192.556 206.21L192.632 206.893L189.741 207.477L189.333 203.804L192.153 203.255L192.229 203.938L190.267 204.318L190.355 205.118L192.107 204.779L192.182 205.439L190.43 205.778L190.524 206.625L192.556 206.21Z" fill="#407BFF"/>
<path d="M192.912 203.091L194.606 202.758C194.967 202.671 195.343 202.671 195.704 202.758C196.016 202.84 196.295 203.015 196.504 203.261C196.712 203.522 196.838 203.839 196.866 204.172C196.912 204.518 196.859 204.87 196.714 205.188C196.571 205.503 196.345 205.774 196.06 205.97C195.749 206.194 195.392 206.344 195.015 206.408L193.321 206.741L192.912 203.091ZM194.892 205.737C195.227 205.687 195.532 205.517 195.751 205.258C195.85 205.132 195.922 204.988 195.964 204.833C196.006 204.679 196.017 204.517 195.996 204.359C195.987 204.207 195.944 204.06 195.87 203.927C195.797 203.795 195.694 203.681 195.57 203.594C195.431 203.512 195.278 203.458 195.118 203.436C194.959 203.414 194.797 203.424 194.641 203.465L193.853 203.617L194.104 205.895L194.892 205.737Z" fill="#407BFF"/>
</g>
</svg>
