<svg width="67" height="71" viewBox="0 0 67 71" fill="none" xmlns="http://www.w3.org/2000/svg">
<path d="M32.015 69.3522L31.8519 70.4338L24.3009 69.2956L24.4639 68.2141L27.6298 68.6913L28.9843 59.7047L30.2035 59.8885L28.849 68.8751L32.015 69.3522Z" fill="white"/>
<path d="M22.403 57.3585C23.0242 57.6577 23.498 58.0679 23.8244 58.5893C24.1479 59.1093 24.313 59.6983 24.3198 60.3564C24.3237 61.0131 24.1544 61.6967 23.8122 62.4074C23.467 63.1241 23.0359 63.6872 22.5187 64.0966C21.9985 64.5046 21.4343 64.7442 20.8261 64.8155C20.2149 64.8853 19.5987 64.7707 18.9776 64.4716C18.3565 64.1725 17.8842 63.7629 17.5607 63.243C17.2342 62.7216 17.0698 62.131 17.0674 61.4714C17.062 60.8103 17.2319 60.1214 17.5771 59.4048C17.9193 58.6941 18.3498 58.1362 18.8686 57.7312C19.3844 57.3248 19.9478 57.0867 20.559 57.0168C21.1673 56.9455 21.7819 57.0594 22.403 57.3585ZM21.9457 58.3081C21.4739 58.0809 21.0275 58.0149 20.6064 58.1101C20.1853 58.2053 19.8067 58.4148 19.4706 58.7385C19.1344 59.0622 18.8556 59.454 18.6342 59.9138C18.4127 60.3737 18.2795 60.8375 18.2346 61.3051C18.1896 61.7727 18.2605 62.2023 18.4472 62.5938C18.6338 62.9854 18.9631 63.2948 19.4349 63.522C19.9067 63.7492 20.3539 63.8137 20.7764 63.7155C21.1989 63.6173 21.5789 63.4049 21.9165 63.0782C22.2541 62.7515 22.5336 62.3582 22.7551 61.8984C22.9765 61.4385 23.109 60.9762 23.1525 60.5116C23.196 60.047 23.1237 59.6204 22.9356 59.2318C22.7475 58.8432 22.4176 58.5354 21.9457 58.3081Z" fill="white"/>
<path d="M20.3568 53.2389L13.215 60.936L12.384 60.165L13.2091 59.2757L13.1071 59.1811C12.9537 59.2196 12.7513 59.2624 12.4998 59.3093C12.2436 59.3564 11.9545 59.3414 11.6327 59.2644C11.3062 59.1875 10.9607 58.9799 10.5962 58.6418C10.1249 58.2044 9.81876 57.7011 9.67785 57.1318C9.53694 56.5625 9.56629 55.968 9.76591 55.3484C9.96552 54.7289 10.3381 54.1251 10.8837 53.5371C11.4337 52.9443 12.0114 52.524 12.6165 52.2762C13.2195 52.0308 13.81 51.9548 14.3881 52.0481C14.9639 52.1438 15.4851 52.4081 15.9515 52.8409C16.3111 53.1745 16.5438 53.5012 16.6496 53.8209C16.7531 54.143 16.7922 54.4347 16.7668 54.696C16.7391 54.9597 16.7095 55.1719 16.678 55.3325L16.7509 55.4002L19.4967 52.4409L20.3568 53.2389ZM14.9665 57.3525C15.3587 56.9298 15.6428 56.4993 15.8187 56.0612C15.9924 55.6256 16.0447 55.2061 15.9757 54.803C15.9044 54.4023 15.6963 54.0418 15.3513 53.7217C14.9917 53.3881 14.6037 53.2044 14.1873 53.1708C13.7663 53.1373 13.3451 53.2257 12.9238 53.4361C12.4978 53.6467 12.0999 53.9513 11.7302 54.3497C11.365 54.7433 11.0966 55.1544 10.925 55.583C10.7488 56.0117 10.6964 56.4311 10.7681 56.8412C10.835 57.2515 11.0507 57.6257 11.4152 57.9639C11.765 58.2885 12.1413 58.4726 12.544 58.5161C12.9444 58.5621 13.3519 58.4836 13.7664 58.2804C14.1787 58.0797 14.5787 57.7704 14.9665 57.3525Z" fill="white"/>
<path d="M9.00686 41.733L1.56195 43.4323L1.30972 42.3272L2.43421 42.0705L2.41651 41.993C2.01717 41.9413 1.66222 41.764 1.35167 41.4609C1.04112 41.1578 0.834956 40.7833 0.733178 40.3374C0.714002 40.2534 0.691649 40.148 0.666117 40.0212C0.640585 39.8945 0.623675 39.7981 0.615387 39.732L1.77865 39.4664C1.77781 39.5074 1.78355 39.5996 1.79588 39.743C1.80423 39.8839 1.82574 40.0302 1.86041 40.1821C1.94301 40.544 2.0927 40.8498 2.30947 41.0995C2.52227 41.3467 2.77997 41.5225 3.08255 41.6268C3.38116 41.7286 3.69849 41.7412 4.03454 41.6645L8.74577 40.5891L9.00686 41.733Z" fill="white"/>
<path d="M8.28385 32.28C8.22887 33.0138 8.01948 33.6346 7.6557 34.1424C7.28887 34.6467 6.80217 35.0207 6.19561 35.2644C5.586 35.5046 4.89119 35.5954 4.11118 35.537C3.33117 35.4785 2.65435 35.2849 2.08073 34.9561C1.50405 34.6237 1.068 34.1888 0.772573 33.6515C0.47409 33.1107 0.350607 32.4965 0.402125 31.809C0.431848 31.4124 0.527301 31.0257 0.688484 30.6489C0.849669 30.2721 1.09088 29.9362 1.41212 29.6412C1.73005 29.346 2.13901 29.1224 2.63898 28.9704C3.13895 28.8184 3.74424 28.769 4.45484 28.8223L4.95061 28.8594L4.51072 34.7293L3.49935 34.6536L3.85007 29.9735C3.42041 29.9413 3.03057 29.9985 2.68057 30.1451C2.33081 30.2884 2.04667 30.5097 1.82814 30.8091C1.60985 31.1052 1.48486 31.4647 1.45316 31.8878C1.41823 32.3538 1.50369 32.7657 1.70954 33.1235C1.91233 33.4777 2.19035 33.7594 2.54359 33.9687C2.89684 34.178 3.28334 34.2984 3.70309 34.3298L4.37734 34.3803C4.95243 34.4234 5.44737 34.3608 5.86215 34.1925C6.27387 34.0206 6.59722 33.764 6.83219 33.4226C7.06386 33.081 7.1974 32.6739 7.23282 32.2013C7.25586 31.8939 7.2337 31.613 7.16634 31.3587C7.09593 31.1008 6.97994 30.8744 6.81839 30.6795C6.65354 30.4844 6.44262 30.3273 6.18564 30.2084L6.58764 29.1018C6.96212 29.2495 7.28426 29.4747 7.55406 29.7774C7.82055 30.0799 8.01929 30.4438 8.15028 30.8691C8.27797 31.2941 8.32249 31.7644 8.28385 32.28Z" fill="white"/>
<path d="M9.73092 25.8639C9.55413 26.3144 9.30885 26.6899 8.99506 26.9904C8.67819 27.2898 8.3154 27.4838 7.90668 27.5727C7.49488 27.6603 7.05758 27.6133 6.59479 27.4317C6.18753 27.2718 5.88889 27.062 5.69886 26.8023C5.50575 26.5414 5.38936 26.2482 5.3497 25.9229C5.31004 25.5976 5.3183 25.259 5.37448 24.9072C5.42879 24.5511 5.49913 24.1995 5.5855 23.8524C5.69949 23.3987 5.79527 23.0322 5.87285 22.7528C5.94855 22.4692 5.97514 22.2518 5.95262 22.1005C5.9313 21.9462 5.83271 21.8345 5.65685 21.7655L5.61983 21.751C5.16321 21.5717 4.75936 21.5574 4.40828 21.7081C4.05842 21.8556 3.7848 22.1808 3.58743 22.6837C3.38279 23.2051 3.3365 23.6587 3.44857 24.0445C3.56063 24.4303 3.72264 24.7342 3.93457 24.9563L3.15748 25.8476C2.7982 25.493 2.55877 25.1142 2.43921 24.7112C2.31777 24.3039 2.28128 23.8979 2.32973 23.4932C2.37631 23.0843 2.46983 22.7008 2.61029 22.3429C2.69989 22.1146 2.83059 21.8633 3.00237 21.5889C3.17227 21.3102 3.39502 21.0647 3.6706 20.8524C3.9474 20.637 4.29027 20.5028 4.69922 20.4497C5.10817 20.3965 5.59495 20.4808 6.15955 20.7024L10.843 22.5405L10.4144 23.6327L9.45175 23.2549L9.42995 23.3104C9.55516 23.445 9.67178 23.6332 9.77984 23.875C9.88789 24.1168 9.94731 24.4054 9.95811 24.7407C9.96891 25.0761 9.89318 25.4505 9.73092 25.8639ZM8.81519 25.3123C8.98471 24.8803 9.04275 24.483 8.98931 24.1202C8.93707 23.7543 8.80641 23.4431 8.59733 23.1866C8.38945 22.927 8.13742 22.739 7.84123 22.6228L6.8416 22.2305C6.87897 22.2985 6.88992 22.4203 6.87444 22.5958C6.85709 22.7671 6.82543 22.9611 6.77945 23.1781C6.73159 23.3907 6.68247 23.5976 6.63208 23.7985C6.57981 23.9952 6.53838 24.1552 6.5078 24.2785C6.43342 24.5769 6.38945 24.8658 6.37588 25.1453C6.36044 25.4206 6.40481 25.6658 6.50899 25.8812C6.61131 26.0923 6.8013 26.2523 7.07898 26.3613C7.45847 26.5102 7.80049 26.4824 8.10506 26.278C8.40774 26.0692 8.64446 25.7473 8.81519 25.3123Z" fill="white"/>
<path d="M6.00555 11.8151L13.966 18.1633L13.2345 19.0806L5.27401 12.7324L6.00555 11.8151Z" fill="white"/>
<path d="M26.4554 10.176C25.7523 10.3929 25.0979 10.4248 24.4922 10.2717C23.8888 10.1145 23.3628 9.79805 22.9143 9.32246C22.4681 8.84273 22.1297 8.22913 21.8991 7.48169C21.6686 6.73424 21.6015 6.03347 21.6981 5.37937C21.7968 4.72112 22.0423 4.15634 22.4345 3.68504C22.8289 3.20959 23.3555 2.87026 24.0143 2.66706C24.3943 2.54982 24.7892 2.4974 25.1988 2.50978C25.6085 2.52217 26.0093 2.62399 26.4012 2.81525C26.7922 3.00334 27.1498 3.30232 27.4739 3.71221C27.7981 4.12209 28.0651 4.66751 28.2752 5.34844L28.4217 5.82351L22.7969 7.55855L22.4979 6.5894L26.9826 5.20606C26.8556 4.79433 26.6599 4.45235 26.3956 4.1801C26.1344 3.90687 25.8246 3.72323 25.4661 3.62918C25.1107 3.53415 24.7303 3.54916 24.3249 3.67421C23.8784 3.81196 23.5262 4.04199 23.2684 4.36432C23.0127 4.6825 22.852 5.04423 22.7863 5.44951C22.7205 5.8548 22.7497 6.25855 22.8737 6.66078L23.073 7.30688C23.243 7.85796 23.4821 8.29581 23.7904 8.62042C24.1008 8.94088 24.4578 9.14812 24.8614 9.24215C25.264 9.333 25.6918 9.30858 26.1447 9.16887C26.4392 9.07802 26.6926 8.95478 26.9047 8.79917C27.119 8.63941 27.2874 8.44873 27.4098 8.22714C27.5313 8.00239 27.6004 7.74867 27.6173 7.46599L28.7942 7.43592C28.7935 7.83848 28.7016 8.22063 28.5183 8.58238C28.3341 8.94096 28.068 9.25891 27.72 9.53621C27.371 9.81035 26.9494 10.0236 26.4554 10.176Z" fill="white"/>
<path d="M36.3981 3.07386L35.3441 3.37216C35.2779 3.1965 35.1801 3.0258 35.0508 2.86009C34.9249 2.69105 34.7525 2.55185 34.5338 2.44247C34.315 2.3331 34.035 2.27841 33.6936 2.27841C33.2262 2.27841 32.8368 2.38613 32.5252 2.60156C32.217 2.81368 32.0629 3.08381 32.0629 3.41193C32.0629 3.7036 32.1689 3.93395 32.3811 4.10298C32.5932 4.27202 32.9246 4.41288 33.3754 4.52557L34.5089 4.80398C35.1917 4.9697 35.7004 5.22325 36.0352 5.56463C36.3699 5.9027 36.5373 6.33854 36.5373 6.87216C36.5373 7.30966 36.4114 7.70076 36.1595 8.04545C35.9109 8.39015 35.5629 8.66193 35.1154 8.8608C34.668 9.05966 34.1476 9.15909 33.5544 9.15909C32.7755 9.15909 32.1308 8.99006 31.6204 8.65199C31.11 8.31392 30.7868 7.82008 30.651 7.17045L31.7646 6.89205C31.8707 7.30303 32.0712 7.61127 32.3662 7.81676C32.6645 8.02225 33.0539 8.125 33.5345 8.125C34.0814 8.125 34.5155 8.009 34.837 7.77699C35.1618 7.54167 35.3243 7.25994 35.3243 6.93182C35.3243 6.66667 35.2314 6.4446 35.0458 6.26563C34.8602 6.08333 34.5752 5.94744 34.1907 5.85795L32.918 5.55966C32.2187 5.39394 31.7049 5.13707 31.3768 4.78906C31.052 4.43774 30.8896 3.99858 30.8896 3.47159C30.8896 3.04072 31.0106 2.65956 31.2525 2.32812C31.4978 1.99669 31.8309 1.73651 32.2518 1.54758C32.6761 1.35866 33.1566 1.2642 33.6936 1.2642C34.4493 1.2642 35.0425 1.42992 35.4734 1.76136C35.9076 2.0928 36.2158 2.5303 36.3981 3.07386Z" fill="white"/>
<path d="M45.1327 3.38407L44.8396 4.33421L41.058 3.16775L41.3511 2.21761L45.1327 3.38407ZM42.9925 0.809316L44.1137 1.15515L41.9683 8.1102C41.8706 8.42692 41.8433 8.67862 41.8863 8.86531C41.9334 9.0498 42.0216 9.19144 42.1506 9.29022C42.2839 9.38681 42.4328 9.46051 42.5975 9.51131C42.721 9.54941 42.8243 9.57434 42.9074 9.58609C42.9915 9.59468 43.0587 9.60155 43.1092 9.6067L43.0265 10.6842C42.9417 10.6893 42.8268 10.685 42.6819 10.6715C42.5359 10.6612 42.3584 10.6238 42.1494 10.5593C41.8327 10.4616 41.5433 10.2978 41.2813 10.0678C41.0224 9.83881 40.8362 9.55418 40.7226 9.21393C40.6122 8.87465 40.6225 8.49281 40.7534 8.06841L42.9925 0.809316Z" fill="white"/>
<path d="M47.3594 13.2371C46.9596 12.9645 46.6481 12.6418 46.4249 12.269C46.2036 11.8935 46.0951 11.4966 46.0994 11.0784C46.1056 10.6574 46.2488 10.2415 46.5288 9.83076C46.7753 9.46928 47.0463 9.22481 47.3418 9.09734C47.6391 8.96713 47.9508 8.91889 48.2768 8.95262C48.6028 8.98634 48.9311 9.06973 49.2615 9.20279C49.5966 9.33498 49.9238 9.48179 50.2429 9.64322C50.6599 9.85532 50.9959 10.0303 51.251 10.1681C51.5106 10.305 51.7167 10.3793 51.8692 10.391C52.0244 10.4045 52.1552 10.3333 52.2617 10.1772L52.2841 10.1443C52.5604 9.73902 52.6642 9.34848 52.5955 8.97269C52.5295 8.59877 52.2733 8.25965 51.8269 7.95532C51.3641 7.63978 50.9322 7.49372 50.5312 7.51713C50.1301 7.54054 49.7978 7.63085 49.5341 7.78807L48.838 6.83212C49.2637 6.56075 49.6863 6.41162 50.1058 6.38473C50.5299 6.35696 50.9338 6.41172 51.3176 6.54901C51.7059 6.68543 52.0589 6.86193 52.3766 7.0785C52.5793 7.21667 52.7952 7.40001 53.0245 7.62854C53.2584 7.8562 53.4482 8.12799 53.5938 8.4439C53.7422 8.76169 53.7968 9.12584 53.7576 9.53635C53.7184 9.94687 53.5279 10.4027 53.1863 10.9038L50.3521 15.0609L49.3826 14.3999L49.9652 13.5455L49.9159 13.5119C49.7568 13.604 49.5474 13.6758 49.2876 13.7274C49.0278 13.7789 48.7332 13.7726 48.4039 13.7085C48.0745 13.6444 47.7264 13.4873 47.3594 13.2371ZM48.101 12.4671C48.4844 12.7285 48.8589 12.8735 49.2245 12.9021C49.5928 12.9326 49.9253 12.8745 50.2219 12.7277C50.5212 12.5828 50.7605 12.3789 50.9398 12.116L51.5447 11.2288C51.47 11.25 51.3488 11.2336 51.1812 11.1795C51.0181 11.1245 50.8359 11.0504 50.6347 10.9573C50.438 10.8633 50.2473 10.7694 50.0626 10.6756C49.8825 10.5808 49.7357 10.5048 49.6223 10.4476C49.348 10.3087 49.076 10.2015 48.8066 10.1261C48.5417 10.0498 48.2927 10.0385 48.0595 10.0921C47.831 10.1449 47.6327 10.2945 47.4647 10.541C47.235 10.8778 47.186 11.2175 47.3176 11.5599C47.4537 11.9014 47.7149 12.2038 48.101 12.4671Z" fill="white"/>
<path d="M60.6841 15.3082L59.9067 15.9281L57.4394 12.8341L58.2167 12.2142L60.6841 15.3082ZM60.3663 11.9752L61.0978 12.8925L55.4073 17.4306C55.1482 17.6372 54.9838 17.8298 54.9142 18.0082C54.8492 18.1872 54.8422 18.3539 54.8932 18.5082C54.9489 18.6631 55.0304 18.8079 55.1379 18.9426C55.2185 19.0437 55.2898 19.1225 55.3518 19.179C55.4164 19.2335 55.4681 19.277 55.5069 19.3097L54.8317 20.1534C54.7588 20.1098 54.6662 20.0416 54.554 19.9488C54.4392 19.858 54.3137 19.7271 54.1773 19.5561C53.9706 19.297 53.8238 18.9986 53.7369 18.661C53.652 18.3259 53.6585 17.9859 53.7563 17.6408C53.8562 17.2982 54.0798 16.9885 54.427 16.7116L60.3663 11.9752Z" fill="white"/>
<path d="M57.3577 25.6279C57.0889 24.943 57.0081 24.2929 57.1156 23.6775C57.2273 23.0639 57.5035 22.5158 57.9442 22.0331C58.3893 21.5522 58.9759 21.1689 59.704 20.8831C60.4321 20.5973 61.1259 20.4781 61.7854 20.5255C62.4492 20.5748 63.0307 20.7773 63.53 21.1333C64.0336 21.491 64.4114 21.9908 64.6632 22.6326C64.8085 23.0028 64.8903 23.3926 64.9086 23.802C64.9268 24.2114 64.8553 24.6187 64.6938 25.0239C64.5355 25.4279 64.264 25.8068 63.8795 26.1606C63.495 26.5145 62.9711 26.8216 62.3078 27.0819L61.845 27.2636L59.6944 21.7841L60.6385 21.4136L62.3531 25.7823C62.7542 25.6249 63.0806 25.4042 63.3324 25.1203C63.5853 24.8394 63.7453 24.5167 63.8123 24.1522C63.8805 23.7907 63.8371 23.4125 63.6821 23.0176C63.5114 22.5826 63.2557 22.2486 62.915 22.0155C62.5786 21.7844 62.2058 21.6512 61.7968 21.6159C61.3877 21.5806 60.9873 21.6399 60.5954 21.7936L59.966 22.0407C59.4292 22.2514 59.0104 22.5225 58.7098 22.8542C58.4134 23.1877 58.2334 23.5592 58.1698 23.9687C58.1093 24.377 58.1656 24.8017 58.3388 25.2429C58.4514 25.5298 58.5932 25.7732 58.7643 25.9732C58.9396 26.1749 59.1423 26.3286 59.3724 26.4341C59.6056 26.5384 59.8638 26.5884 60.147 26.5841L60.2649 27.7555C59.8634 27.7849 59.4755 27.7217 59.101 27.5661C58.7297 27.4092 58.3927 27.1675 58.0902 26.8412C57.7907 26.5137 57.5466 26.1093 57.3577 25.6279Z" fill="white"/>
<path d="M56.3728 36.6637L66.6095 39.0001L66.3573 40.1052L65.1746 39.8353L65.1437 39.971C65.2537 40.0845 65.392 40.2385 65.5584 40.4328C65.7273 40.6312 65.8589 40.889 65.953 41.2062C66.0497 41.5275 66.0427 41.9304 65.9321 42.4151C65.789 43.042 65.5062 43.5588 65.0836 43.9655C64.661 44.3722 64.1315 44.644 63.4951 44.7809C62.8587 44.9178 62.1495 44.897 61.3676 44.7185C60.5791 44.5386 59.9263 44.2485 59.4091 43.8483C58.8952 43.4488 58.5341 42.9754 58.3258 42.4282C58.1208 41.8816 58.0891 41.2981 58.2307 40.6777C58.3399 40.1995 58.5064 39.8347 58.7304 39.5832C58.9576 39.3325 59.1907 39.1528 59.4297 39.0442C59.6719 38.9363 59.8704 38.8558 60.0253 38.8028L60.0474 38.7058L56.1117 37.8075L56.3728 36.6637ZM62.6304 39.275C62.0682 39.1467 61.5534 39.1159 61.086 39.1826C60.6218 39.25 60.2325 39.4144 59.9178 39.6758C59.6064 39.9378 59.3984 40.2983 59.2937 40.7572C59.1845 41.2354 59.2194 41.6632 59.3985 42.0406C59.58 42.422 59.8672 42.7426 60.2601 43.0022C60.6555 43.2658 61.1181 43.4581 61.648 43.5791C62.1715 43.6986 62.6617 43.7255 63.1187 43.6598C63.5781 43.5981 63.9675 43.4337 64.2868 43.1666C64.6086 42.9035 64.8249 42.5296 64.9355 42.0449C65.0417 41.5796 65.013 41.1617 64.8494 40.7912C64.689 40.4214 64.4172 40.1078 64.034 39.8503C63.6541 39.5936 63.1862 39.4019 62.6304 39.275Z" fill="white"/>
<path d="M64.2354 52.93L55.4176 47.8391L56.0043 46.823L64.822 51.9139L64.2354 52.93Z" fill="white"/>
<path d="M51.6223 56.9329L54.6928 60.242L53.8327 61.0401L48.6386 55.4422L49.4987 54.6442L50.3779 55.5917L50.4362 55.5376C50.3037 55.1316 50.2834 54.7005 50.3756 54.2443C50.4699 53.7905 50.7285 53.3675 51.1513 52.9752C51.5011 52.6506 51.8831 52.4385 52.2973 52.3391C52.7137 52.2421 53.1439 52.277 53.5879 52.4437C54.0343 52.6128 54.4783 52.9355 54.9202 53.4117L58.2206 56.9687L57.3605 57.7667L54.1142 54.2681C53.7355 53.8599 53.3192 53.6403 52.8654 53.6092C52.4091 53.5804 52.0024 53.7317 51.6453 54.0631C51.4315 54.2615 51.2647 54.5179 51.1451 54.8324C51.023 55.1492 50.9915 55.4904 51.0505 55.8561C51.1071 56.2241 51.2977 56.583 51.6223 56.9329Z" fill="white"/>
<path d="M43.2957 54.8837C43.8064 54.6378 44.277 54.4921 44.7076 54.4466C45.1367 54.3981 45.5247 54.421 45.8717 54.5151C46.2143 54.6076 46.5147 54.7388 46.7731 54.9087L46.2157 55.9055C46.0598 55.8261 45.8698 55.741 45.6458 55.6502C45.4204 55.5564 45.152 55.5109 44.8407 55.5137C44.5249 55.5149 44.1595 55.6155 43.7444 55.8154C43.189 56.0829 42.7953 56.438 42.5634 56.8808C42.3315 57.3235 42.3536 57.8316 42.6297 58.4049L43.3028 59.8024L43.3923 59.7593C43.4096 59.5965 43.4453 59.388 43.4995 59.1338C43.5521 58.8841 43.6768 58.6236 43.8735 58.3522C44.0687 58.0853 44.3903 57.844 44.8382 57.6283C45.3936 57.3608 45.9556 57.2521 46.5241 57.302C47.0896 57.3534 47.6216 57.5681 48.12 57.9461C48.6154 58.3256 49.0357 58.8736 49.3808 59.5903C49.7202 60.295 49.8918 60.9684 49.8956 61.6103C49.9008 62.2552 49.7515 62.8274 49.4476 63.3269C49.1452 63.8294 48.7043 64.2202 48.1249 64.4992C47.677 64.7149 47.2857 64.8113 46.951 64.7886C46.6148 64.7703 46.3312 64.7008 46.1003 64.5803C45.8678 64.4642 45.6839 64.3651 45.5488 64.283L45.4413 64.3348L45.9676 65.4277L44.9463 65.9195L41.5381 58.8423C41.2534 58.2511 41.1562 57.7056 41.2467 57.2059C41.3327 56.7046 41.5594 56.2588 41.9269 55.8685C42.29 55.4766 42.7463 55.1483 43.2957 54.8837ZM45.1522 58.647C44.7281 58.8512 44.4165 59.1208 44.2174 59.4558C44.0182 59.7908 43.9302 60.1772 43.9533 60.6148C43.9765 61.0525 44.1103 61.5251 44.3548 62.0328C44.5935 62.5285 44.8788 62.93 45.2107 63.2373C45.5427 63.5447 45.9068 63.7354 46.3029 63.8095C46.6991 63.8835 47.1122 63.817 47.5422 63.61C47.9902 63.3942 48.3088 63.101 48.4981 62.7303C48.6844 62.3609 48.7602 61.9492 48.7255 61.4951C48.6877 61.0424 48.5567 60.5831 48.3323 60.1173C48.1022 59.6395 47.8241 59.2529 47.4979 58.9575C47.1702 58.6665 46.8082 58.4877 46.4119 58.4211C46.014 58.3588 45.5941 58.4341 45.1522 58.647Z" fill="white"/>
</svg>
