<svg width="292" height="216" viewBox="0 0 292 216" fill="none" xmlns="http://www.w3.org/2000/svg">
<g opacity="0.2">
<path d="M262.742 200.598H243.4V200.744H262.742V200.598Z" fill="#EBEBEB"/>
<path d="M193.433 202.187H188.358V202.333H193.433V202.187Z" fill="#EBEBEB"/>
<path d="M242.815 195.178H231.609V195.324H242.815V195.178Z" fill="#EBEBEB"/>
<path d="M55.8596 196.16H30.6366V196.306H55.8596V196.16Z" fill="#EBEBEB"/>
<path d="M64.7597 196.16H61.063V196.306H64.7597V196.16Z" fill="#EBEBEB"/>
<path d="M131.488 198.624H76.7784V198.77H131.488V198.624Z" fill="#EBEBEB"/>
<path d="M139.226 165.155H26.4551C25.5707 165.155 24.7225 164.804 24.0972 164.179C23.4718 163.553 23.1205 162.705 23.1205 161.821V3.30544C23.1282 2.42611 23.4829 1.58541 24.1074 0.966348C24.732 0.347283 25.5758 -3.3712e-05 26.4551 2.45429e-09H139.226C139.663 2.45429e-09 140.097 0.0862523 140.502 0.253834C140.906 0.421415 141.274 0.667044 141.583 0.976694C141.893 1.28634 142.139 1.65395 142.306 2.05853C142.474 2.46311 142.56 2.89673 142.56 3.33464V161.821C142.56 162.258 142.474 162.692 142.306 163.097C142.139 163.501 141.893 163.869 141.583 164.179C141.274 164.488 140.906 164.734 140.502 164.901C140.097 165.069 139.663 165.155 139.226 165.155ZM26.4551 0.1168C25.6099 0.118344 24.7998 0.454784 24.2021 1.05244C23.6045 1.65009 23.268 2.46023 23.2665 3.30544V161.821C23.268 162.666 23.6045 163.476 24.2021 164.074C24.7998 164.671 25.6099 165.008 26.4551 165.009H139.226C140.071 165.008 140.881 164.671 141.479 164.074C142.076 163.476 142.413 162.666 142.414 161.821V3.30544C142.413 2.46023 142.076 1.65009 141.479 1.05244C140.881 0.454784 140.071 0.118344 139.226 0.1168H26.4551Z" fill="#EBEBEB"/>
<path d="M265.545 165.155H152.774C151.89 165.155 151.042 164.804 150.416 164.179C149.791 163.553 149.44 162.705 149.44 161.821V3.30544C149.447 2.42611 149.802 1.58541 150.427 0.966348C151.051 0.347283 151.895 -3.3712e-05 152.774 2.45429e-09H265.545C266.429 2.4543e-09 267.277 0.351327 267.903 0.976694C268.528 1.60206 268.879 2.45024 268.879 3.33464V161.821C268.879 162.705 268.528 163.553 267.903 164.179C267.277 164.804 266.429 165.155 265.545 165.155ZM152.774 0.1168C151.929 0.118344 151.119 0.454784 150.521 1.05244C149.924 1.65009 149.587 2.46023 149.586 3.30544V161.821C149.587 162.666 149.924 163.476 150.521 164.074C151.119 164.671 151.929 165.008 152.774 165.009H265.545C266.39 165.008 267.2 164.671 267.798 164.074C268.395 163.476 268.732 162.666 268.733 161.821V3.30544C268.732 2.46023 268.395 1.65009 267.798 1.05244C267.2 0.454784 266.39 0.118344 265.545 0.1168H152.774Z" fill="#EBEBEB"/>
<path d="M292 191.202H0V191.348H292V191.202Z" fill="#EBEBEB"/>
<path d="M237.014 83.4885L232.381 33.0681L164.95 39.2641L169.583 89.6845L237.014 83.4885Z" fill="#E6E6E6"/>
<path opacity="0.9" d="M228.839 37.3295L169.219 42.8079L173.134 85.418L232.755 79.9397L228.839 37.3295Z" fill="#FAFAFA"/>
<path d="M201.422 45.2191L201.772 49.0793L178.616 51.2109L179.784 63.9421L181.04 77.3333L192.335 76.2937L210.474 74.6293L211.309 74.5476L223.865 73.3796L223.672 71.248L220.355 71.5517C220.381 70.7932 220.659 70.0648 221.144 69.4813C221.629 68.8977 222.294 68.492 223.035 68.328L223.398 68.2462L222.638 60.0177L220.402 60.2221L218.877 43.6306L201.422 45.2191ZM181.776 76.4164L180.695 64.7013L183.288 64.4619C183.581 65.3883 184.181 66.1872 184.989 66.7266C185.797 67.266 186.765 67.5136 187.733 67.4286L188.153 67.3936L187.844 64.0414L190.32 63.8195L191.4 75.5345L181.776 76.4164ZM192.235 75.4586L191.067 62.9026L186.915 63.2822L187.219 66.6052C186.46 66.5778 185.731 66.2991 185.148 65.8129C184.564 65.3266 184.159 64.6604 183.995 63.9188L183.913 63.5625L180.602 63.8662L179.527 51.976L201.848 49.9261L203.016 62.6573L204.92 62.4821L207.922 62.2077L209.294 62.0792L210.369 73.7942L192.235 75.4586ZM204.85 61.6353L204.616 59.1066C205.299 59.1319 205.959 59.3613 206.511 59.7651C207.063 60.169 207.481 60.7289 207.711 61.3725L204.85 61.6353ZM221.85 60.917L222.463 67.5921C221.537 67.8849 220.739 68.4851 220.201 69.2932C219.662 70.1014 219.416 71.0691 219.502 72.0364L219.537 72.4569L222.884 72.1473L222.925 72.6379L211.209 73.7125L210.135 61.9974L220.448 61.0455L221.85 60.917ZM218.089 44.53L219.537 60.298L210.059 61.174L209.218 61.2499L208.576 61.3083C208.293 60.3699 207.696 59.5577 206.884 59.0087C206.072 58.4597 205.096 58.2076 204.12 58.2949L203.699 58.3299L204.009 61.7288H203.781L202.613 48.9976L202.333 45.9725L218.089 44.53Z" fill="#E0E0E0"/>
<path d="M106.947 87.4032L117.025 36.741L49.2764 23.265L39.1991 73.9273L106.947 87.4032Z" fill="#E6E6E6"/>
<path opacity="0.9" d="M52.4217 27.9687L43.9053 70.7839L103.806 82.699L112.323 39.8838L52.4217 27.9687Z" fill="#FAFAFA"/>
<path d="M83.22 39.6538L82.4491 43.5315L59.1767 38.9062L56.648 51.6959L53.9733 65.1279L65.3262 67.3879L83.5529 71.0087L84.3938 71.1781L97.0024 73.6835L97.4345 71.511L94.0999 70.8511C94.3471 70.1178 94.83 69.4869 95.4734 69.0569C96.1168 68.6269 96.8844 68.422 97.6565 68.4742H98.0361L99.6771 60.2106L97.4345 59.7609L100.746 43.0877L83.22 39.6538ZM54.9661 64.4796L57.3021 52.7062L59.9067 53.2201C59.9238 54.2142 60.2808 55.1724 60.9183 55.9354C61.5558 56.6983 62.4355 57.2198 63.4107 57.4132L63.8312 57.495L64.5028 54.1311L66.9906 54.6275L64.6546 66.401L54.9661 64.4796ZM65.4781 66.5703L67.9834 53.9559L63.8137 53.1442L63.1537 56.4788C62.4204 56.2317 61.7896 55.7487 61.3596 55.1053C60.9296 54.4619 60.7247 53.6943 60.7769 52.9222V52.5427L57.4481 51.8827L59.8308 39.9283L82.2564 44.39L79.7102 57.1855L81.6257 57.5651L84.6391 58.1491L86.0173 58.4177L83.6813 70.1911L65.4781 66.5703ZM81.8301 56.7066L82.3323 54.1603C82.9932 54.3849 83.5719 54.8017 83.9944 55.3573C84.4168 55.9129 84.6637 56.582 84.7033 57.2789L81.8301 56.7066ZM98.6668 60.9289L97.3353 67.6332C96.3422 67.6516 95.3853 68.0092 94.6236 68.6466C93.8618 69.2841 93.3411 70.1629 93.148 71.1372L93.0604 71.5577L96.4242 72.2293L96.325 72.7199L84.5515 70.3839L86.8875 58.6104L97.2535 60.6719L98.6668 60.9289ZM99.7238 43.8002L96.5761 59.6324L87.051 57.7344L86.2101 57.5709L85.5618 57.4424C85.5576 56.4397 85.2063 55.4693 84.5675 54.6964C83.9286 53.9234 83.0418 53.3956 82.0578 53.2026L81.6373 53.115L80.9599 56.5255L80.7263 56.4788L83.2725 43.6892L83.8565 40.6524L99.7238 43.8002Z" fill="#E0E0E0"/>
<path d="M174.686 30.3678H168.975C167.381 30.3678 165.852 29.7347 164.725 28.6077C163.598 27.4808 162.965 25.9523 162.965 24.3585V18.6878C162.965 17.094 163.598 15.5655 164.725 14.4386C165.852 13.3116 167.381 12.6785 168.975 12.6785H174.686C176.28 12.68 177.807 13.3136 178.934 14.4403C180.06 15.5669 180.694 17.0945 180.696 18.6878V24.3993C180.683 25.9856 180.045 27.5027 178.919 28.6205C177.794 29.7383 176.272 30.3663 174.686 30.3678ZM168.975 14.3896C168.412 14.3903 167.856 14.5023 167.337 14.7191C166.818 14.9359 166.347 15.2532 165.951 15.6527C165.556 16.0522 165.243 16.5261 165.031 17.047C164.819 17.5679 164.713 18.1255 164.717 18.6878V24.3993C164.719 25.528 165.168 26.61 165.966 27.4081C166.764 28.2061 167.846 28.6552 168.975 28.6567H174.686C175.815 28.6552 176.897 28.2061 177.695 27.4081C178.493 26.61 178.942 25.528 178.944 24.3993V18.6878C178.942 17.5592 178.493 16.4772 177.695 15.6791C176.897 14.8811 175.815 14.432 174.686 14.4305L168.975 14.3896Z" fill="#F0F0F0"/>
<path d="M169.453 25.2287L161.126 16.9008L163.608 14.4247L169.453 20.2764L180.053 9.67676L182.529 12.1529L169.453 25.2287Z" fill="#E0E0E0"/>
<path d="M52.0694 106.872H47.6719C47.06 106.872 46.4541 106.751 45.8893 106.516C45.3244 106.28 44.8116 105.936 44.3806 105.501C43.9496 105.067 43.6087 104.552 43.3778 103.985C43.1468 103.418 43.0303 102.812 43.0349 102.2V97.8198C43.0365 96.5911 43.5257 95.4131 44.3951 94.5448C45.2645 93.6764 46.4431 93.1887 47.6719 93.1887H52.0694C53.2972 93.1903 54.4742 93.6787 55.3424 94.5468C56.2106 95.415 56.699 96.5921 56.7005 97.8198V102.2C56.7051 102.811 56.5888 103.417 56.3582 103.984C56.1276 104.55 55.7873 105.065 55.3569 105.499C54.9265 105.933 54.4144 106.278 53.8502 106.514C53.286 106.749 52.6808 106.871 52.0694 106.872ZM47.6719 94.5553C46.8039 94.5553 45.9711 94.8984 45.3552 95.51C44.7393 96.1216 44.3901 96.9519 44.384 97.8198V102.2C44.3855 103.071 44.7326 103.906 45.349 104.521C45.9655 105.136 46.8009 105.482 47.6719 105.482H52.0694C52.9399 105.482 53.7747 105.136 54.3902 104.521C55.0057 103.905 55.3515 103.07 55.3515 102.2V97.8198C55.3515 97.3888 55.2666 96.962 55.1016 96.5638C54.9367 96.1656 54.695 95.8038 54.3902 95.4991C54.0854 95.1943 53.7236 94.9525 53.3254 94.7876C52.9272 94.6227 52.5004 94.5378 52.0694 94.5378L47.6719 94.5553Z" fill="#F0F0F0"/>
<path d="M48.0399 102.877L41.6217 96.4652L43.5314 94.5555L48.0399 99.064L56.2042 90.8938L58.1139 92.8035L48.0399 102.877Z" fill="#E0E0E0"/>
<path d="M251.704 142.689H247.301C246.073 142.687 244.896 142.199 244.028 141.331C243.159 140.462 242.671 139.285 242.669 138.058V133.654C242.671 132.427 243.159 131.249 244.028 130.381C244.896 129.513 246.073 129.025 247.301 129.023H251.704C252.932 129.025 254.109 129.513 254.977 130.381C255.845 131.249 256.333 132.427 256.335 133.654V138.058C256.333 139.285 255.845 140.462 254.977 141.331C254.109 142.199 252.932 142.687 251.704 142.689ZM247.301 130.372C246.43 130.372 245.595 130.718 244.98 131.334C244.364 131.949 244.018 132.784 244.018 133.654V138.058C244.018 138.489 244.103 138.915 244.268 139.314C244.433 139.712 244.675 140.074 244.98 140.378C245.285 140.683 245.646 140.925 246.045 141.09C246.443 141.255 246.87 141.34 247.301 141.34H251.704C252.135 141.34 252.562 141.255 252.96 141.09C253.358 140.925 253.72 140.683 254.025 140.378C254.329 140.074 254.571 139.712 254.736 139.314C254.901 138.915 254.986 138.489 254.986 138.058V133.654C254.986 132.784 254.64 131.949 254.025 131.334C253.409 130.718 252.574 130.372 251.704 130.372H247.301Z" fill="#F0F0F0"/>
<path d="M247.674 138.711L241.256 132.299L243.166 130.389L247.674 134.898L255.839 126.728L257.748 128.637L247.674 138.711Z" fill="#E0E0E0"/>
<path d="M146 215.326C208.536 215.326 259.232 212.367 259.232 208.716C259.232 205.065 208.536 202.105 146 202.105C83.4639 202.105 32.7683 205.065 32.7683 208.716C32.7683 212.367 83.4639 215.326 146 215.326Z" fill="#F5F5F5"/>
<path d="M202.905 84.6801C203.738 82.4613 204.747 80.3131 205.924 78.2561C206.479 77.2399 207.092 76.2588 207.676 75.2835C208.26 74.3082 208.903 73.3622 209.603 72.3635C210.045 71.7601 210.705 71.3526 211.442 71.2277C212.179 71.1027 212.936 71.2701 213.552 71.6944C214.168 72.1186 214.594 72.7662 214.74 73.4997C214.886 74.2331 214.74 74.9945 214.334 75.6222V75.6573C213.75 76.5099 213.166 77.4093 212.582 78.3437C211.998 79.2781 211.466 80.1774 210.923 81.1001C209.855 82.8904 208.903 84.7474 208.073 86.6598C207.84 87.2438 207.635 87.7928 207.489 88.3242H201.947C202.149 87.0817 202.47 85.8613 202.905 84.6801Z" fill="#B55B52"/>
<path d="M214.229 66.2433C208.646 67.4814 203.921 79.5176 203.921 79.5176L210.345 83.1676C212.247 81.1281 213.822 78.8077 215.017 76.2881C216.419 73.298 219.204 65.1395 214.229 66.2433Z" fill="#407BFF"/>
<path opacity="0.2" d="M216.279 72.9998C215.931 74.1204 215.509 75.2168 215.017 76.2819C213.822 78.8015 212.247 81.1219 210.345 83.1614L208.949 82.3438C211.163 78.3259 211.139 73.1925 211.139 73.1925L215.951 72.3574L216.279 72.9998Z" fill="black"/>
<path d="M209.337 109.339L209.682 109.4C209.937 109.444 210.163 109.588 210.312 109.8C210.461 110.012 210.519 110.274 210.475 110.528L208.438 122.189C208.393 122.444 208.249 122.671 208.037 122.82C207.826 122.968 207.564 123.027 207.309 122.982L207.257 122.973C206.833 122.899 206.456 122.66 206.208 122.307C205.961 121.955 205.863 121.519 205.937 121.095L207.801 110.429C207.861 110.081 208.057 109.772 208.345 109.568C208.632 109.364 208.989 109.282 209.337 109.339Z" fill="#263238"/>
<path opacity="0.1" d="M209.337 109.339L209.682 109.4C209.937 109.444 210.163 109.588 210.312 109.8C210.461 110.012 210.519 110.274 210.475 110.528L208.438 122.189C208.393 122.444 208.249 122.671 208.037 122.82C207.826 122.968 207.564 123.027 207.309 122.982L207.257 122.973C206.833 122.899 206.456 122.66 206.208 122.307C205.961 121.955 205.863 121.519 205.937 121.095L207.801 110.429C207.861 110.081 208.057 109.772 208.345 109.568C208.632 109.364 208.989 109.282 209.337 109.339Z" fill="white"/>
<path d="M209.831 204.593L205.475 204.54L205.113 194.414L210.865 194.507L209.831 204.593Z" fill="#B55B52"/>
<path opacity="0.2" d="M205.113 194.419L205.323 200.335L210.263 200.399L210.871 194.507L205.113 194.419Z" fill="black"/>
<path d="M205.381 203.057L210.135 203.133C210.218 203.132 210.299 203.164 210.361 203.22C210.422 203.276 210.46 203.353 210.468 203.436L210.877 207.32C210.884 207.418 210.871 207.517 210.838 207.61C210.805 207.703 210.753 207.788 210.685 207.86C210.618 207.932 210.536 207.989 210.445 208.028C210.355 208.067 210.257 208.086 210.158 208.085C208.447 208.033 205.983 207.892 203.828 207.857C201.311 207.816 201.556 207.922 198.601 207.857C196.814 207.828 196.534 206.012 197.299 205.86C200.803 205.171 201.141 205.136 204.307 203.366C204.632 203.172 205.002 203.066 205.381 203.057Z" fill="#263238"/>
<path d="M204.593 203.448C204.61 203.441 204.626 203.431 204.638 203.416C204.651 203.402 204.659 203.385 204.663 203.366C204.665 203.345 204.662 203.323 204.652 203.303C204.643 203.284 204.628 203.267 204.61 203.255C204.412 203.15 202.677 202.239 202.146 202.525C202.095 202.55 202.052 202.588 202.022 202.636C201.991 202.683 201.973 202.738 201.971 202.794C201.958 202.887 201.967 202.982 201.999 203.07C202.03 203.159 202.083 203.238 202.152 203.302C202.625 203.728 203.904 203.577 204.581 203.448H204.593ZM202.257 202.689C202.584 202.578 203.53 202.957 204.213 203.273C203.25 203.419 202.531 203.366 202.268 203.127C202.222 203.085 202.187 203.032 202.167 202.972C202.146 202.913 202.141 202.85 202.152 202.788C202.152 202.766 202.158 202.745 202.17 202.727C202.181 202.708 202.197 202.693 202.216 202.683L202.257 202.689Z" fill="#407BFF"/>
<path d="M204.593 203.448C204.608 203.439 204.62 203.427 204.629 203.411C204.637 203.396 204.641 203.378 204.639 203.361C204.639 203.308 204.54 202.134 203.997 201.667C203.918 201.598 203.825 201.545 203.724 201.513C203.624 201.481 203.518 201.47 203.413 201.48C203.127 201.48 203.045 201.649 203.022 201.766C202.934 202.257 203.962 203.215 204.482 203.46C204.5 203.467 204.519 203.47 204.539 203.468C204.558 203.466 204.577 203.459 204.593 203.448ZM203.36 201.696C203.395 201.692 203.431 201.692 203.466 201.696C203.541 201.688 203.618 201.695 203.69 201.718C203.763 201.741 203.829 201.78 203.886 201.831C204.202 202.216 204.394 202.688 204.435 203.185C203.904 202.853 203.209 202.105 203.267 201.807C203.267 201.766 203.273 201.72 203.36 201.69V201.696Z" fill="#407BFF"/>
<path d="M214.789 156.588C221.266 134.349 227.304 118.896 225.885 107.865L210.514 108.046C210.514 108.046 202.373 144.102 202.981 157.148C203.612 170.715 204.412 196.492 204.412 196.492L211.42 196.592C211.42 196.592 216.611 171.742 214.789 156.588Z" fill="#263238"/>
<path opacity="0.2" d="M217.394 147.624C220.828 136.282 223.906 128.398 225.681 121.793C215.496 125.385 215.7 137.824 217.394 147.624Z" fill="black"/>
<path d="M203.419 194.934L203.845 197.941L211.554 198.076L212.015 195.237L203.419 194.934Z" fill="#263238"/>
<path opacity="0.3" d="M203.419 194.934L203.845 197.941L211.554 198.076L212.015 195.237L203.419 194.934Z" fill="black"/>
<path d="M239.551 204.593L235.183 204.54L232.917 194.414L238.523 194.501L239.551 204.593Z" fill="#B55B52"/>
<path opacity="0.2" d="M232.917 194.419L234.231 200.265L239.119 200.329L238.529 194.507L232.917 194.419Z" fill="black"/>
<path d="M234.855 203.647L239.603 203.553C239.688 203.549 239.77 203.577 239.835 203.631C239.9 203.685 239.942 203.761 239.954 203.845L240.503 207.711C240.514 207.809 240.505 207.907 240.476 208.001C240.447 208.095 240.399 208.182 240.335 208.256C240.271 208.33 240.192 208.39 240.103 208.432C240.014 208.474 239.918 208.497 239.819 208.5C238.108 208.5 237.565 208.389 235.41 208.429C232.893 208.482 234.055 208.54 231.106 208.605C229.319 208.64 228.969 206.853 229.728 206.654C232.128 206.07 232.724 205.077 233.781 204.009C234.079 203.754 234.464 203.625 234.855 203.647Z" fill="#263238"/>
<path d="M235.726 203.945C235.744 203.944 235.763 203.939 235.779 203.93C235.796 203.921 235.809 203.908 235.819 203.892C235.831 203.874 235.837 203.852 235.837 203.831C235.837 203.809 235.831 203.788 235.819 203.769C235.667 203.612 234.295 202.204 233.699 202.309C233.644 202.32 233.592 202.345 233.548 202.38C233.504 202.416 233.47 202.462 233.448 202.514C233.405 202.597 233.383 202.689 233.383 202.782C233.383 202.876 233.405 202.968 233.448 203.051C233.758 203.606 234.996 203.851 235.708 203.945H235.726ZM233.758 202.508C234.108 202.508 234.891 203.156 235.434 203.676C234.47 203.518 233.81 203.244 233.629 202.934C233.601 202.879 233.586 202.818 233.586 202.756C233.586 202.694 233.601 202.633 233.629 202.578C233.634 202.556 233.646 202.536 233.663 202.522C233.679 202.507 233.7 202.498 233.723 202.496L233.758 202.508Z" fill="#407BFF"/>
<path d="M235.726 203.944H235.755C235.772 203.941 235.788 203.933 235.801 203.92C235.813 203.908 235.822 203.892 235.825 203.874C235.825 203.822 236.111 202.706 235.732 202.064C235.68 201.974 235.611 201.897 235.527 201.836C235.444 201.776 235.348 201.734 235.247 201.713C234.972 201.649 234.844 201.754 234.791 201.859C234.558 202.303 235.235 203.53 235.656 203.921C235.665 203.93 235.676 203.936 235.688 203.94C235.7 203.944 235.713 203.946 235.726 203.944ZM235.095 201.895C235.13 201.889 235.165 201.889 235.2 201.895C235.349 201.932 235.477 202.026 235.556 202.157C235.743 202.619 235.779 203.128 235.662 203.611C235.259 203.133 234.832 202.204 234.972 201.941C234.986 201.923 235.005 201.908 235.027 201.9C235.049 201.892 235.072 201.89 235.095 201.895Z" fill="#407BFF"/>
<path d="M234.581 157.289C236.97 135.044 238.944 118.651 235.492 107.649L219.479 108.075C219.479 108.075 219.87 144.832 222.878 157.879C226.002 171.445 232.473 196.522 232.473 196.522L239.481 196.621C239.481 196.621 239.195 172.438 234.581 157.289Z" fill="#263238"/>
<path d="M231.445 194.934L231.906 197.941L239.784 198.076L240.228 195.237L231.445 194.934Z" fill="#263238"/>
<path opacity="0.3" d="M231.445 194.934L231.906 197.941L239.784 198.076L240.228 195.237L231.445 194.934Z" fill="black"/>
<path d="M216.471 65.5716C221.367 65.0491 226.313 65.226 231.159 66.0972C232.471 66.3067 233.682 66.9295 234.616 67.8748C235.549 68.82 236.157 70.0386 236.351 71.3532C237.256 77.5844 238.687 89.8543 236.111 108.998C233.804 109.728 227.012 109.675 221.61 109.29C221.026 109.243 219.59 107.877 219.59 107.877C219.59 107.877 218.293 108.992 217.546 108.904C213.972 108.472 211.122 107.859 210.462 107.152C209.002 103.648 208.085 94.8533 211.969 86.9635C212.009 82.2389 211.075 76.9187 210.993 71.8437C210.968 70.3056 211.514 68.8128 212.526 67.6542C213.538 66.4956 214.944 65.7535 216.471 65.5716Z" fill="#407BFF"/>
<path d="M224.735 57.5122C225.167 60.7534 225.827 64.5202 228.116 66.354C227.638 67.6117 226.799 68.7006 225.705 69.4847C224.612 70.2688 223.311 70.7135 221.967 70.7632C218.498 70.9442 219.047 68.176 219.631 66.7102C221.102 65.0575 220.396 63.2062 220.022 61.9039L224.735 57.5122Z" fill="#B55B52"/>
<path opacity="0.2" d="M223.777 59.0949C223.777 58.8905 223.719 58.6861 223.69 58.4817L219.999 61.9039C220.328 62.7895 220.494 63.7273 220.489 64.6721C222.317 63.4515 223.999 61.063 223.777 59.0949Z" fill="black"/>
<path d="M225.95 52.7996C225.401 57.0862 225.301 59.6266 222.983 61.6706C219.479 64.7541 214.305 62.3831 213.557 58.0148C212.885 54.0786 213.89 47.7305 218.229 46.3348C219.186 46.0283 220.205 45.9689 221.192 46.1623C222.178 46.3557 223.099 46.7955 223.87 47.4408C224.641 48.086 225.235 48.9158 225.599 49.8528C225.963 50.7897 226.083 51.8035 225.95 52.7996Z" fill="#B55B52"/>
<path d="M219.088 55.2287C219.088 55.5791 218.86 55.8477 218.626 55.8127C218.393 55.7776 218.229 55.5031 218.252 55.1527C218.276 54.8023 218.48 54.5279 218.714 54.5687C218.947 54.6096 219.105 54.8958 219.088 55.2287Z" fill="#263238"/>
<path d="M214.702 55.0419C214.702 55.3923 214.474 55.6609 214.246 55.6259C214.018 55.5908 213.849 55.3105 213.872 54.9601C213.896 54.6097 214.1 54.3411 214.328 54.3761C214.556 54.4112 214.725 54.6915 214.702 55.0419Z" fill="#263238"/>
<path d="M220.291 55.334H217.049C216.923 55.3334 216.801 55.3796 216.707 55.4638C216.614 55.548 216.554 55.6641 216.541 55.7896C216.384 55.7199 216.214 55.6839 216.042 55.6839C215.87 55.6839 215.7 55.7199 215.543 55.7896C215.527 55.6657 215.467 55.5517 215.373 55.469C215.28 55.3862 215.159 55.3403 215.035 55.3399H212.576C212.438 55.3399 212.306 55.3946 212.208 55.4921C212.111 55.5896 212.056 55.7218 212.056 55.8596V57.3605C212.056 57.4984 212.111 57.6306 212.208 57.728C212.306 57.8255 212.438 57.8803 212.576 57.8803H215.052C215.19 57.8803 215.322 57.8255 215.42 57.728C215.517 57.6306 215.572 57.4984 215.572 57.3605V56.1341C215.718 56.0424 215.887 55.9937 216.059 55.9937C216.232 55.9937 216.401 56.0424 216.547 56.1341V57.3722C216.547 57.5101 216.602 57.6423 216.699 57.7397C216.797 57.8372 216.929 57.892 217.067 57.892H220.308C220.446 57.892 220.578 57.8372 220.676 57.7397C220.773 57.6423 220.828 57.5101 220.828 57.3722V55.8713C220.83 55.8001 220.818 55.7291 220.792 55.6629C220.766 55.5966 220.726 55.5364 220.676 55.486C220.626 55.4356 220.565 55.3961 220.499 55.37C220.433 55.3438 220.362 55.3316 220.291 55.334ZM215.251 57.3547C215.249 57.4115 215.226 57.4656 215.186 57.5058C215.146 57.546 215.091 57.5693 215.035 57.5708H212.576C212.519 57.5708 212.464 57.548 212.423 57.5075C212.383 57.467 212.36 57.412 212.36 57.3547V55.8538C212.36 55.7965 212.383 55.7415 212.423 55.701C212.464 55.6605 212.519 55.6377 212.576 55.6377H215.052C215.109 55.6392 215.163 55.6624 215.203 55.7026C215.243 55.7429 215.267 55.797 215.268 55.8538L215.251 57.3547ZM220.507 57.3547C220.507 57.3833 220.502 57.4117 220.492 57.4383C220.481 57.4649 220.465 57.489 220.445 57.5093C220.425 57.5295 220.401 57.5454 220.374 57.556C220.348 57.5665 220.319 57.5716 220.291 57.5708H217.049C217.021 57.5716 216.992 57.5665 216.966 57.556C216.939 57.5454 216.915 57.5295 216.895 57.5093C216.875 57.489 216.859 57.4649 216.848 57.4383C216.838 57.4117 216.832 57.3833 216.833 57.3547V55.8538C216.832 55.8252 216.838 55.7968 216.848 55.7702C216.859 55.7436 216.875 55.7195 216.895 55.6992C216.915 55.679 216.939 55.6631 216.966 55.6525C216.992 55.642 217.021 55.6369 217.049 55.6377H220.291C220.347 55.6392 220.402 55.6624 220.442 55.7026C220.482 55.7429 220.505 55.797 220.507 55.8538V57.3547Z" fill="#263238"/>
<path d="M216.039 55.9819C215.576 56.8371 214.997 57.6234 214.316 58.3179C214.499 58.4872 214.717 58.6153 214.953 58.6939C215.19 58.7724 215.441 58.7996 215.689 58.7735L216.039 55.9819Z" fill="#A02724"/>
<path d="M219.934 53.3074C219.968 53.2978 219.998 53.2797 220.022 53.2548C220.041 53.2358 220.057 53.2131 220.067 53.188C220.078 53.1629 220.083 53.136 220.083 53.1088C220.083 53.0816 220.078 53.0547 220.067 53.0296C220.057 53.0045 220.041 52.9818 220.022 52.9628C219.802 52.723 219.529 52.5387 219.225 52.425C218.92 52.3113 218.593 52.2714 218.27 52.3087C218.243 52.3136 218.218 52.3237 218.196 52.3384C218.173 52.3531 218.154 52.3722 218.138 52.3944C218.123 52.4167 218.113 52.4417 218.107 52.4681C218.102 52.4945 218.101 52.5217 218.106 52.5482C218.119 52.6014 218.151 52.6479 218.197 52.6782C218.242 52.7086 218.298 52.7205 218.352 52.7117C218.61 52.6847 218.872 52.7194 219.114 52.8127C219.357 52.9061 219.574 53.0556 219.747 53.249C219.772 53.2723 219.802 53.2898 219.834 53.2999C219.867 53.31 219.901 53.3126 219.934 53.3074Z" fill="#263238"/>
<path d="M213.37 53.255C213.404 53.2612 213.438 53.2591 213.471 53.2489C213.503 53.2387 213.533 53.2208 213.557 53.1966C213.731 53.0049 213.949 52.8577 214.192 52.7672C214.435 52.6768 214.696 52.6458 214.953 52.6768C214.979 52.6814 215.006 52.6808 215.033 52.6749C215.059 52.669 215.084 52.6581 215.106 52.6426C215.128 52.6272 215.146 52.6075 215.161 52.5848C215.175 52.5622 215.185 52.5369 215.189 52.5104C215.194 52.4839 215.193 52.4568 215.188 52.4306C215.182 52.4044 215.171 52.3796 215.155 52.3577C215.14 52.3357 215.12 52.317 215.097 52.3026C215.075 52.2883 215.049 52.2785 215.023 52.2739C214.702 52.2293 214.374 52.2634 214.069 52.3733C213.764 52.4832 213.49 52.6655 213.271 52.9046C213.233 52.9438 213.212 52.9961 213.212 53.0506C213.212 53.1051 213.233 53.1574 213.271 53.1966C213.297 53.2267 213.332 53.2473 213.37 53.255Z" fill="#263238"/>
<path d="M226.902 64.748C227.007 65.7408 225.815 69.2624 221.646 70.7691C223.252 70.7691 223.952 72.8189 223.952 72.8189C223.952 72.8189 229.471 69.8989 228.811 66.3307C228.725 65.8868 228.487 65.4866 228.139 65.1981C227.791 64.9095 227.354 64.7505 226.902 64.748Z" fill="#407BFF"/>
<path d="M220.367 65.0168C220.466 65.9921 219.339 68.0361 221.657 70.7692C220.045 70.7692 219.088 72.3811 219.088 72.3811C218.468 71.4127 218.101 70.3041 218.022 69.1572C217.942 68.0102 218.152 66.8616 218.632 65.8169C219.115 65.3796 219.72 65.1004 220.367 65.0168Z" fill="#407BFF"/>
<g opacity="0.5">
<path d="M226.902 64.748C227.007 65.7408 225.815 69.2624 221.646 70.7691C223.252 70.7691 223.952 72.8189 223.952 72.8189C223.952 72.8189 229.471 69.8989 228.811 66.3307C228.725 65.8868 228.487 65.4866 228.139 65.1981C227.791 64.9095 227.354 64.7505 226.902 64.748Z" fill="white"/>
<path d="M220.367 65.0166C220.466 65.9919 219.339 68.0359 221.657 70.769C220.045 70.769 219.088 72.3808 219.088 72.3808C218.468 71.4125 218.101 70.3039 218.022 69.1569C217.942 68.01 218.152 66.8614 218.632 65.8167C219.115 65.3793 219.72 65.1002 220.367 65.0166Z" fill="white"/>
</g>
<path d="M209.446 110.581L236.923 111.322V107.865L209.866 107.141L209.446 110.581Z" fill="#263238"/>
<path opacity="0.3" d="M209.446 110.581L236.923 111.322V107.865L209.866 107.141L209.446 110.581Z" fill="white"/>
<path d="M228.613 110.031L229.506 124.164L236.789 123.703C237.246 123.67 237.673 123.459 237.976 123.115C238.28 122.771 238.436 122.321 238.412 121.863L237.717 110.884C237.693 110.507 237.52 110.155 237.237 109.905C236.953 109.655 236.582 109.528 236.205 109.552L228.613 110.031Z" fill="#263238"/>
<path opacity="0.3" d="M228.613 110.031L229.506 124.164L236.789 123.703C237.246 123.67 237.673 123.459 237.976 123.115C238.28 122.771 238.436 122.321 238.412 121.863L237.717 110.884C237.693 110.507 237.52 110.155 237.237 109.905C236.953 109.655 236.582 109.528 236.205 109.552L228.613 110.031Z" fill="white"/>
<path opacity="0.2" d="M230.387 124.091L229.524 124.145L228.632 110.011L229.798 109.938C230.152 109.915 230.5 110.034 230.766 110.269C231.033 110.503 231.195 110.834 231.217 111.188L231.923 122.384C231.934 122.597 231.904 122.81 231.832 123.011C231.761 123.212 231.651 123.397 231.508 123.556C231.366 123.714 231.193 123.843 231.001 123.935C230.808 124.026 230.6 124.079 230.387 124.091Z" fill="black"/>
<path opacity="0.2" d="M231.217 111.742V111.299C231.205 111.111 231.157 110.928 231.074 110.76C230.991 110.591 230.876 110.441 230.735 110.317C230.594 110.194 230.429 110.099 230.252 110.039C230.074 109.979 229.886 109.954 229.699 109.967L236.228 109.552C236.605 109.528 236.976 109.655 237.26 109.905C237.544 110.155 237.717 110.507 237.741 110.884L237.77 111.328L237.834 112.408C237.844 112.572 237.822 112.735 237.769 112.89C237.716 113.045 237.633 113.188 237.524 113.311C237.416 113.433 237.284 113.533 237.137 113.605C236.989 113.677 236.829 113.718 236.666 113.728L232.625 113.979C232.461 113.99 232.297 113.969 232.142 113.916C231.987 113.863 231.843 113.78 231.721 113.671C231.598 113.562 231.498 113.43 231.426 113.283C231.355 113.135 231.314 112.975 231.305 112.811L231.217 111.742Z" fill="white"/>
<path d="M234.032 112.572C234.038 112.669 234.073 112.762 234.132 112.839C234.191 112.916 234.271 112.974 234.363 113.006C234.455 113.037 234.554 113.04 234.648 113.015C234.742 112.99 234.827 112.938 234.891 112.865C234.955 112.792 234.996 112.701 235.008 112.605C235.021 112.508 235.004 112.41 234.961 112.323C234.918 112.236 234.85 112.164 234.766 112.116C234.681 112.067 234.585 112.045 234.488 112.052C234.423 112.056 234.361 112.072 234.303 112.1C234.245 112.129 234.193 112.168 234.151 112.216C234.109 112.265 234.076 112.321 234.056 112.382C234.035 112.443 234.027 112.508 234.032 112.572Z" fill="#263238"/>
<path d="M218.93 109.056C218.943 109.178 219.001 109.29 219.092 109.372C219.183 109.454 219.301 109.499 219.423 109.499C219.546 109.499 219.664 109.454 219.755 109.372C219.846 109.29 219.904 109.178 219.917 109.056C219.904 108.935 219.846 108.822 219.755 108.74C219.664 108.659 219.546 108.614 219.423 108.614C219.301 108.614 219.183 108.659 219.092 108.74C219.001 108.822 218.943 108.935 218.93 109.056Z" fill="#263238"/>
<path opacity="0.1" d="M235.834 113.799L233.374 113.954L234.001 123.898L236.461 123.742L235.834 113.799Z" fill="black"/>
<path d="M223.795 56.724C223.795 56.724 222.481 56.8467 222.837 55.0071C223.193 53.1675 221.383 51.3395 221.897 49.5817C222.41 47.8239 216.822 49.1904 216.419 47.8297C216.016 46.469 215.928 50.3117 214.199 49.7861C212.693 49.3306 214.655 47.526 214.655 47.526C214.655 47.526 212.348 48.84 212.348 47.526C212.348 46.212 215.07 46.2704 216.033 46.0427C218.778 45.3827 224.764 42.1532 226.458 50.3759C226.458 50.3759 229.021 52.1688 225.29 57.3839L223.795 56.724Z" fill="#263238"/>
<path opacity="0.2" d="M236.561 72.8717C237.242 78.0001 237.576 83.1686 237.56 88.3419C233.863 85.1474 230.627 76.4458 230.627 76.4458V73.0002L233.384 70.781L236.561 72.8717Z" fill="black"/>
<path d="M211.18 82.8986L203.816 78.6821L203.238 80.6619L209.866 84.4229L211.18 82.8986Z" fill="#407BFF"/>
<path opacity="0.5" d="M211.18 82.8986L203.816 78.6821L203.238 80.6619L209.866 84.4229L211.18 82.8986Z" fill="white"/>
<path d="M215.408 45.6453C215.408 45.6453 221.173 40.2492 226.417 44.7051C230.785 48.4252 227.059 54.2184 227.059 54.2184L224.957 51.7656L220.869 48.2616L217.125 46.095L215.408 45.6453Z" fill="#407BFF"/>
<path d="M212.336 45.2715C214.871 43.3268 222.521 46.9593 227.135 54.2768V54.3352C225.833 52.9102 218.661 45.3474 214.34 46.2818C214.328 46.2818 210.777 46.4687 212.336 45.2715Z" fill="#407BFF"/>
<g opacity="0.3">
<path d="M212.336 45.2715C214.871 43.3268 222.521 46.9593 227.135 54.2768V54.3352C225.833 52.9102 218.661 45.3474 214.34 46.2818C214.328 46.2818 210.777 46.4687 212.336 45.2715Z" fill="black"/>
</g>
<path d="M217.289 44.0744C219.233 42.9648 223.018 41.5632 226.539 44.5592C230.312 47.7653 228.221 52.4841 227.491 53.8506L227.135 53.6929C227.135 53.6345 229.191 48.1858 226.312 45.7505C223.976 43.7591 221.12 44.8278 219.636 45.6396L219.537 45.6921L219.438 45.6337C218.953 45.3242 218.188 44.8687 217.295 44.419L216.973 44.2497L217.289 44.0744Z" fill="#407BFF"/>
<path opacity="0.3" d="M217.289 44.0744C219.233 42.9648 223.018 41.5632 226.539 44.5592C230.312 47.7653 228.221 52.4841 227.491 53.8506L227.135 53.6929C227.135 53.6345 229.191 48.1858 226.312 45.7505C223.976 43.7591 221.12 44.8278 219.636 45.6396L219.537 45.6921L219.438 45.6337C218.953 45.3242 218.188 44.8687 217.295 44.419L216.973 44.2497L217.289 44.0744Z" fill="white"/>
<path d="M216.74 60.5373C216.534 60.5362 216.329 60.5187 216.127 60.4848C216.098 60.4791 216.073 60.4625 216.057 60.4384C216.04 60.4144 216.034 60.3849 216.039 60.3563C216.041 60.3424 216.046 60.3291 216.053 60.3171C216.061 60.3051 216.07 60.2947 216.082 60.2866C216.093 60.2784 216.106 60.2726 216.12 60.2695C216.134 60.2665 216.148 60.2662 216.162 60.2687C216.611 60.3584 217.075 60.3412 217.516 60.2184C217.958 60.0957 218.364 59.8708 218.702 59.562C218.722 59.5411 218.748 59.5288 218.777 59.5277C218.805 59.5266 218.833 59.5368 218.854 59.5562C218.875 59.5756 218.887 59.6024 218.888 59.6309C218.889 59.6594 218.879 59.6871 218.86 59.708C218.289 60.2515 217.528 60.5493 216.74 60.5373Z" fill="#263238"/>
<path opacity="0.5" d="M231.614 79.967H223.795L224.052 80.8722C224.123 81.1286 224.275 81.3551 224.486 81.5182C224.696 81.6813 224.954 81.7722 225.22 81.7774H229.862C230.086 81.7775 230.305 81.7173 230.497 81.6032C230.69 81.4891 230.848 81.3254 230.955 81.1292L231.614 79.967Z" fill="white"/>
<path d="M227.217 80.8255C227.217 80.9541 227.268 81.0774 227.359 81.1683C227.45 81.2592 227.573 81.3102 227.702 81.3102C227.831 81.3102 227.955 81.2594 228.046 81.1686C228.138 81.0779 228.191 80.9546 228.192 80.8255C228.191 80.6959 228.138 80.572 228.047 80.4803C227.955 80.3886 227.831 80.3365 227.702 80.335C227.572 80.3365 227.449 80.3889 227.358 80.4807C227.268 80.5725 227.217 80.6964 227.217 80.8255Z" fill="#407BFF"/>
<path opacity="0.5" d="M218.253 79.9202H211.957L212.161 80.8254C212.195 81.0633 212.309 81.2827 212.484 81.4472C212.659 81.6118 212.885 81.7117 213.125 81.7306H216.863C217.057 81.7201 217.244 81.6532 217.4 81.538C217.557 81.4229 217.677 81.2645 217.744 81.0823L218.253 79.9202Z" fill="white"/>
<path d="M214.094 80.8255C214.094 80.9541 214.145 81.0774 214.236 81.1683C214.327 81.2592 214.451 81.3102 214.579 81.3102C214.708 81.3102 214.832 81.2594 214.924 81.1686C215.016 81.0779 215.068 80.9546 215.07 80.8255C215.068 80.6959 215.016 80.572 214.924 80.4803C214.833 80.3886 214.709 80.3365 214.579 80.335C214.45 80.3365 214.327 80.3889 214.236 80.4807C214.145 80.5725 214.094 80.6964 214.094 80.8255Z" fill="#407BFF"/>
<path d="M220.6 55.7135L224.221 55.4682L224.192 55.0769L220.261 55.3514L220.6 55.7135Z" fill="#263238"/>
<path d="M227.123 57.2726C226.837 57.7261 226.462 58.1179 226.022 58.4247C225.582 58.7316 225.084 58.9475 224.56 59.0596C223.152 59.3574 222.527 58.0726 222.989 56.7937C223.403 55.6257 224.636 54.0956 226.014 54.3759C226.314 54.442 226.593 54.5816 226.826 54.7822C227.059 54.9829 227.239 55.2382 227.349 55.5253C227.459 55.8125 227.496 56.1224 227.456 56.4274C227.417 56.7324 227.303 57.0228 227.123 57.2726Z" fill="#B55B52"/>
<path d="M219.327 85.7895L219.035 86.7006C219.026 86.7272 219.025 86.756 219.032 86.7832C219.04 86.8103 219.055 86.8347 219.076 86.853C219.098 86.8712 219.124 86.8826 219.152 86.8857C219.18 86.8887 219.209 86.8832 219.233 86.8699L220.092 86.4378L225.196 80.4342C225.248 80.3729 225.273 80.2937 225.266 80.2139C225.26 80.134 225.222 80.06 225.161 80.0079L224.863 79.751C224.833 79.7245 224.797 79.7044 224.759 79.6919C224.721 79.6793 224.68 79.6745 224.64 79.6778C224.6 79.681 224.56 79.6923 224.525 79.7109C224.489 79.7294 224.457 79.755 224.431 79.786L219.327 85.7895Z" fill="#263238"/>
<path opacity="0.5" d="M219.327 85.7895L219.035 86.7006C219.026 86.7272 219.025 86.756 219.032 86.7832C219.04 86.8103 219.055 86.8347 219.076 86.853C219.098 86.8712 219.124 86.8826 219.152 86.8857C219.18 86.8887 219.209 86.8832 219.233 86.8699L220.092 86.4378L225.196 80.4342C225.248 80.3729 225.273 80.2937 225.266 80.2139C225.26 80.134 225.222 80.06 225.161 80.0079L224.863 79.751C224.833 79.7245 224.797 79.7044 224.759 79.6919C224.721 79.6793 224.68 79.6745 224.64 79.6778C224.6 79.681 224.56 79.6923 224.525 79.7109C224.489 79.7294 224.457 79.755 224.431 79.786L219.327 85.7895Z" fill="white"/>
<path opacity="0.5" d="M224.741 79.6925L219.421 85.9471L219.064 86.829C219.048 86.8122 219.037 86.7914 219.032 86.7688C219.027 86.7461 219.028 86.7226 219.035 86.7005L219.327 85.7894L224.431 79.7859C224.469 79.7428 224.518 79.7111 224.573 79.6946C224.627 79.6781 224.686 79.6773 224.741 79.6925Z" fill="white"/>
<path d="M227.369 86.023L223.865 84.271L223.059 88.8963C223.059 88.8963 226.428 90.0643 227.345 88.3882L227.369 86.023Z" fill="#B55B52"/>
<path d="M219.993 85.5792V87.2495C219.99 87.5709 220.102 87.8829 220.308 88.1292C220.515 88.3754 220.803 88.5398 221.12 88.5927L223.053 88.9197L223.859 84.2944L221.394 84.2302C221.213 84.2255 221.033 84.2569 220.865 84.3224C220.696 84.3878 220.542 84.4862 220.412 84.6117C220.281 84.7372 220.177 84.8874 220.105 85.0535C220.033 85.2196 219.995 85.3983 219.993 85.5792Z" fill="#B55B52"/>
<path d="M225.722 88.5111C228.22 90.1072 230.89 91.4159 233.682 92.4122C234.431 92.674 235.196 92.8904 235.971 93.0605C236.883 93.2654 237.817 93.3479 238.751 93.3057C239.436 93.265 240.107 93.0904 240.725 92.7918C241.159 92.5775 241.554 92.2912 241.893 91.945C241.98 91.8516 242.08 91.7348 242.15 91.653L242.319 91.4253C242.43 91.2734 242.518 91.1157 242.611 90.9581C243.169 89.9054 243.444 88.7265 243.411 87.5358C243.399 86.6335 243.291 85.735 243.09 84.8553C242.918 84.0656 242.704 83.2858 242.448 82.5193C241.957 81.0657 241.382 79.6422 240.725 78.2561C240.082 76.9129 239.405 75.5989 238.669 74.3257C237.933 73.0526 237.203 71.8204 236.333 70.5473C235.889 69.9033 235.211 69.4583 234.443 69.307C233.675 69.1556 232.879 69.3099 232.224 69.737C231.568 70.1641 231.105 70.8302 230.934 71.5935C230.762 72.3568 230.895 73.1569 231.305 73.8235L231.334 73.8761C232.017 74.9681 232.753 76.1653 233.419 77.3333C234.085 78.5013 234.745 79.6693 235.34 80.8841C235.939 82.0401 236.475 83.2274 236.946 84.4406C237.377 85.4716 237.668 86.5559 237.811 87.6643C237.822 87.814 237.822 87.9643 237.811 88.114C237.453 88.1399 237.094 88.1399 236.736 88.114C236.152 88.0556 235.521 87.9797 234.885 87.857C232.327 87.3723 229.629 86.5956 226.977 85.8189H226.925C226.578 85.715 226.204 85.7408 225.875 85.8916C225.545 86.0424 225.281 86.3078 225.133 86.6385C224.984 86.9692 224.961 87.3427 225.067 87.6893C225.173 88.0359 225.402 88.3321 225.71 88.5228L225.722 88.5111Z" fill="#B55B52"/>
<path d="M233.396 66.7805C239.498 68.7018 242.944 81.4914 242.944 81.4914L236.321 84.0961C234.104 82.3599 232.284 80.1695 230.984 77.6721C230.312 76.3697 228.531 65.2445 233.396 66.7805Z" fill="#407BFF"/>
<path d="M242.927 79.967L234.832 83.1674L236.024 84.861L243.446 81.9234L242.927 79.967Z" fill="#407BFF"/>
<path opacity="0.5" d="M242.927 79.967L234.832 83.1674L236.024 84.861L243.446 81.9234L242.927 79.967Z" fill="white"/>
<path d="M204.92 81.5498H216.868L225.261 96.1732L224.939 96.5002H212.991L204.593 81.871L204.92 81.5498Z" fill="#263238"/>
<path opacity="0.2" d="M204.92 81.5498H216.868L225.261 96.1732L224.939 96.5002H212.991L204.593 81.871L204.92 81.5498Z" fill="white"/>
<path d="M212.991 96.5001H224.939L216.541 81.8708H204.593L212.991 96.5001Z" fill="#263238"/>
<path opacity="0.4" d="M212.991 96.5001H224.939L216.541 81.8708H204.593L212.991 96.5001Z" fill="white"/>
<path d="M207.98 81.3335H212.529L213.493 83.0154L213.359 83.1497H208.809L207.846 81.4678L207.98 81.3335Z" fill="#407BFF"/>
<path opacity="0.5" d="M207.98 81.3335H212.529L213.493 83.0154L213.359 83.1497H208.809L207.846 81.4678L207.98 81.3335Z" fill="white"/>
<path d="M208.809 83.1497L207.846 81.4678H212.395L213.359 83.1497H208.809Z" fill="#407BFF"/>
<path opacity="0.2" d="M208.809 83.1497L207.846 81.4678H212.395L213.359 83.1497H208.809Z" fill="white"/>
<path d="M201.924 90.8995C201.813 90.0994 201.813 89.2877 201.924 88.4876C201.953 88.2773 201.994 88.0846 202.029 87.9036H207.629C207.471 88.366 207.342 88.8381 207.244 89.3168C207.177 89.6179 207.144 89.9254 207.145 90.2337C207.147 90.2707 207.147 90.3077 207.145 90.3447C207.187 90.3707 207.232 90.3922 207.279 90.4089C207.697 90.5882 208.129 90.7347 208.57 90.8469C209.516 91.1097 210.596 91.3316 211.618 91.5886H211.729C212.038 91.6654 212.313 91.8409 212.513 92.0884C212.713 92.3359 212.826 92.642 212.836 92.96C212.846 93.2779 212.752 93.5905 212.568 93.85C212.384 94.1095 212.12 94.3018 211.817 94.3976C210.643 94.7741 209.426 94.9978 208.196 95.0634C207.524 95.107 206.849 95.0874 206.181 95.005C205.785 94.9453 205.395 94.8555 205.013 94.7364C204.49 94.5771 204 94.326 203.565 93.9947C203.418 93.8796 203.28 93.7547 203.15 93.6209C203.012 93.4736 202.883 93.3175 202.765 93.1537C202.601 92.905 202.459 92.6433 202.338 92.3712C202.134 91.9018 201.994 91.4067 201.924 90.8995Z" fill="#B55B52"/>
<path d="M211.607 94.4094L215.759 93.8254L213.364 89.9827C213.364 89.9827 209.86 90.4966 210.094 92.6632L211.607 94.4094Z" fill="#B55B52"/>
<path d="M217.406 91.501L216.658 89.749C216.595 89.603 216.503 89.4713 216.388 89.362C216.273 89.2527 216.136 89.1682 215.987 89.1135C215.838 89.0588 215.679 89.0352 215.52 89.0441C215.361 89.0529 215.206 89.0941 215.064 89.165L213.364 89.9768L215.759 93.8195L217.014 92.9143C217.231 92.7588 217.388 92.5338 217.459 92.2767C217.531 92.0196 217.512 91.7458 217.406 91.501Z" fill="#B55B52"/>
<path d="M61.0806 107.047H65.7234V108.881H64.9642V117.109H61.8398V108.881H61.0806V107.047Z" fill="#407BFF"/>
<g opacity="0.2">
<path d="M61.0806 107.047H65.7234V108.881H64.9642V117.109H61.8398V108.881H61.0806V107.047Z" fill="black"/>
</g>
<path d="M88.5286 101.184L105.015 126.547V149.305H65.9803V126.547L88.5286 101.184Z" fill="#407BFF"/>
<path opacity="0.5" d="M88.5286 101.184L105.015 126.547V149.305H65.9803V126.547L88.5286 101.184Z" fill="white"/>
<path d="M70.4246 102.218L72.9358 98.3691H88.5286L106.901 126.547H91.3026H70.4246V102.218Z" fill="#407BFF"/>
<path opacity="0.2" d="M70.4246 102.218L72.9358 98.3691H88.5286L106.901 126.547H91.3026H70.4246V102.218Z" fill="black"/>
<path d="M91.3026 126.547L72.9358 98.3691L54.5631 126.547H91.3026Z" fill="#407BFF"/>
<path d="M72.9357 101.184L89.4161 126.547V149.305H56.4493V126.547L72.9357 101.184Z" fill="#407BFF"/>
<path opacity="0.8" d="M72.9357 101.184L89.4161 126.547V149.305H56.4493V126.547L72.9357 101.184Z" fill="white"/>
<path d="M80.3293 115.784H76.9946V124.62H80.3293V115.784Z" fill="#407BFF"/>
<path d="M68.6551 115.784H65.3204V124.62H68.6551V115.784Z" fill="#407BFF"/>
<path d="M76.9887 115.363H68.655V125.034H76.9887V115.363Z" fill="#407BFF"/>
<path opacity="0.4" d="M76.9887 115.363H68.655V125.034H76.9887V115.363Z" fill="white"/>
<path d="M75.9491 116.409H69.6945V123.995H75.9491V116.409Z" fill="#263238"/>
<path d="M67.7849 149.305H77.8647V133.035H67.7849V149.305Z" fill="#407BFF"/>
<path opacity="0.3" d="M67.7849 149.305H77.8647V133.035H67.7849V149.305Z" fill="white"/>
<path d="M68.4099 129.631H77.2399L79.3891 133.614H66.2607L68.4099 129.631Z" fill="#407BFF"/>
<path d="M76.1069 135.803H73.0176V149.311H76.1069V135.803Z" fill="#263238"/>
<path d="M72.6321 135.803H69.5427V149.311H72.6321V135.803Z" fill="#263238"/>
<path d="M98.7252 165.745H51.7657V205.545H98.7252V165.745Z" fill="#407BFF"/>
<path opacity="0.6" d="M98.7252 165.745H51.7657V205.545H98.7252V165.745Z" fill="white"/>
<path d="M109.693 165.745H86.5021V205.545H109.693V165.745Z" fill="#407BFF"/>
<path opacity="0.8" d="M109.693 165.745H86.5021V205.545H109.693V165.745Z" fill="white"/>
<path d="M82.1338 169.745H72.8949V180.462H82.1338V169.745Z" fill="#407BFF"/>
<path opacity="0.3" d="M82.1338 169.745H72.8949V180.462H82.1338V169.745Z" fill="white"/>
<path d="M80.9775 170.902H74.0513V179.306H80.9775V170.902Z" fill="#263238"/>
<path d="M93.3758 170.207H89.6791V180H93.3758V170.207Z" fill="#407BFF"/>
<path d="M106.311 170.207H102.615V180H106.311V170.207Z" fill="#407BFF"/>
<path d="M102.615 169.745H93.3759V180.462H102.615V169.745Z" fill="#407BFF"/>
<path opacity="0.3" d="M102.615 169.745H93.3759V180.462H102.615V169.745Z" fill="white"/>
<path d="M101.458 170.902H94.532V179.306H101.458V170.902Z" fill="#263238"/>
<path d="M73.59 187.838H62.6224V205.539H73.59V187.838Z" fill="#407BFF"/>
<path opacity="0.3" d="M73.59 187.838H62.6224V205.539H73.59V187.838Z" fill="white"/>
<path d="M72.9124 184.13H63.2997L60.9637 188.463H75.2484L72.9124 184.13Z" fill="#407BFF"/>
<path d="M67.896 190.845H64.538V205.539H67.896V190.845Z" fill="#263238"/>
<path d="M71.6743 190.845H68.3163V205.539H71.6743V190.845Z" fill="#263238"/>
<path d="M103.958 166.084L94.7832 149.054H55.7136L46.5389 166.084H103.958Z" fill="#407BFF"/>
<path opacity="0.3" d="M103.958 166.084L94.7832 149.054H55.7136L46.5389 166.084H103.958Z" fill="black"/>
<path d="M114.925 166.084L105.751 149.054H90.4499L81.2753 166.084H114.925Z" fill="#407BFF"/>
<path opacity="0.1" d="M114.925 166.084L105.751 149.054H90.4499L81.2753 166.084H114.925Z" fill="black"/>
<path d="M64.4677 163.17V149.054H82.5249L74.9212 163.17H64.4677Z" fill="#407BFF"/>
<path opacity="0.8" d="M64.4677 163.17V149.054H82.5249L74.9212 163.17H64.4677Z" fill="white"/>
<path d="M63.9363 163.17H74.9038V152.202H63.9363V163.17Z" fill="#407BFF"/>
<path opacity="0.6" d="M63.9363 163.17H74.9038V152.202H63.9363V163.17Z" fill="white"/>
<path d="M71.7327 161.844H67.1075C66.9061 161.844 66.713 161.764 66.5706 161.622C66.4283 161.479 66.3483 161.286 66.3483 161.085V160.53H72.4919V161.085C72.4919 161.286 72.412 161.479 72.2696 161.622C72.1272 161.764 71.9341 161.844 71.7327 161.844Z" fill="#407BFF"/>
<path d="M67.4812 156.033C67.4667 155.769 67.5062 155.505 67.5972 155.257C67.6883 155.009 67.829 154.782 68.0107 154.59C68.1924 154.398 68.4114 154.245 68.6542 154.14C68.8971 154.036 69.1586 153.982 69.423 153.982C69.6873 153.982 69.9489 154.036 70.1917 154.14C70.4346 154.245 70.6535 154.398 70.8353 154.59C71.017 154.782 71.1577 155.009 71.2487 155.257C71.3398 155.505 71.3793 155.769 71.3648 156.033V160.22H67.4812V156.033Z" fill="#263238"/>
<path d="M71.359 152.827L73.3972 149.054H82.5251L80.4928 152.827H71.359Z" fill="#407BFF"/>
<path opacity="0.2" d="M71.359 152.827L73.3972 149.054H82.5251L80.4928 152.827H71.359Z" fill="black"/>
<path d="M74.5242 149.054L76.5624 152.827H62.2777L64.3159 149.054H74.5242Z" fill="#407BFF"/>
<path d="M65.5891 169.745H56.3502V180.462H65.5891V169.745Z" fill="#407BFF"/>
<path opacity="0.3" d="M65.5891 169.745H56.3502V180.462H65.5891V169.745Z" fill="white"/>
<path d="M64.427 170.902H57.5007V179.306H64.427V170.902Z" fill="#263238"/>
<path d="M111.544 205.148H197.468C197.837 205.153 198.204 205.08 198.543 204.933C198.883 204.786 199.187 204.569 199.436 204.295C199.685 204.022 199.873 203.699 199.988 203.348C200.103 202.996 200.141 202.624 200.102 202.257L189.315 79.0327C189.237 78.2506 188.874 77.5244 188.296 76.9916C187.718 76.4589 186.965 76.1565 186.179 76.1419H100.238C99.8679 76.1364 99.5013 76.2096 99.162 76.3565C98.8227 76.5034 98.5185 76.7206 98.2694 76.994C98.0204 77.2673 97.8323 77.5903 97.7176 77.9418C97.6028 78.2933 97.564 78.6651 97.6037 79.0327L108.39 202.257C108.469 203.042 108.834 203.77 109.416 204.304C109.997 204.837 110.755 205.137 111.544 205.148Z" fill="#263238"/>
<path d="M112.764 205.148H198.706C199.076 205.154 199.443 205.081 199.783 204.935C200.122 204.788 200.427 204.571 200.676 204.298C200.925 204.024 201.114 203.701 201.228 203.349C201.342 202.997 201.38 202.625 201.34 202.257L190.559 79.0328C190.479 78.2502 190.116 77.5239 189.537 76.9913C188.958 76.4586 188.204 76.1565 187.417 76.142H101.482C101.112 76.1356 100.745 76.2081 100.405 76.3547C100.065 76.5012 99.7604 76.7185 99.5112 76.992C99.262 77.2656 99.0739 77.589 98.9595 77.9409C98.8451 78.2928 98.807 78.665 98.8477 79.0328L109.628 202.257C109.707 203.039 110.069 203.765 110.647 204.298C111.225 204.831 111.979 205.133 112.764 205.148Z" fill="#263238"/>
<path opacity="0.5" d="M112.764 205.148H198.706C199.076 205.154 199.443 205.081 199.783 204.935C200.122 204.788 200.427 204.571 200.676 204.298C200.925 204.024 201.114 203.701 201.228 203.349C201.342 202.997 201.38 202.625 201.34 202.257L190.559 79.0328C190.479 78.2502 190.116 77.5239 189.537 76.9913C188.958 76.4586 188.204 76.1565 187.417 76.142H101.482C101.112 76.1356 100.745 76.2081 100.405 76.3547C100.065 76.5012 99.7604 76.7185 99.5112 76.992C99.262 77.2656 99.0739 77.589 98.9595 77.9409C98.8451 78.2928 98.807 78.665 98.8477 79.0328L109.628 202.257C109.707 203.039 110.069 203.765 110.647 204.298C111.225 204.831 111.979 205.133 112.764 205.148Z" fill="white"/>
<path opacity="0.2" d="M182.564 83.261L192.872 200.674H115.41L105.102 83.261H182.564Z" fill="black"/>
<path d="M183.037 83.2668L186.01 121.128C186.788 130.943 187.956 140.715 189.514 150.444L197.106 198.017H119.627L112.035 150.328C110.477 140.614 109.319 130.853 108.56 121.046L105.593 83.2668H183.037Z" fill="white"/>
<path d="M131.628 98.3163H160.67C160.892 98.3217 161.112 98.2782 161.316 98.1888C161.519 98.0994 161.7 97.9664 161.846 97.7992C161.992 97.6319 162.099 97.4346 162.161 97.2212C162.222 97.0078 162.235 96.7835 162.2 96.5643L161.972 94.678C161.907 94.2013 161.675 93.7632 161.316 93.4422C160.958 93.1212 160.497 92.9382 160.016 92.926H130.968C130.746 92.9205 130.526 92.9639 130.323 93.0534C130.12 93.1428 129.939 93.2759 129.793 93.4433C129.648 93.6107 129.541 93.8081 129.48 94.0216C129.42 94.235 129.407 94.4591 129.444 94.678L129.671 96.5643C129.736 97.0411 129.969 97.4791 130.327 97.8001C130.686 98.1211 131.147 98.3041 131.628 98.3163Z" fill="#407BFF"/>
<path d="M119.364 137.351H181.717C181.939 137.357 182.159 137.313 182.362 137.224C182.565 137.134 182.746 137.001 182.892 136.834C183.037 136.666 183.144 136.469 183.205 136.255C183.265 136.042 183.278 135.818 183.241 135.599L183.014 133.713C182.949 133.236 182.716 132.798 182.358 132.477C181.999 132.156 181.538 131.973 181.057 131.961H118.704C118.482 131.955 118.261 131.999 118.058 132.088C117.855 132.178 117.674 132.311 117.528 132.478C117.382 132.645 117.274 132.842 117.213 133.056C117.152 133.269 117.138 133.493 117.174 133.713L117.407 135.599C117.472 136.076 117.705 136.514 118.063 136.835C118.422 137.156 118.883 137.339 119.364 137.351Z" fill="#407BFF"/>
<path opacity="0.5" d="M119.364 137.351H181.717C181.939 137.357 182.159 137.313 182.362 137.224C182.565 137.134 182.746 137.001 182.892 136.834C183.037 136.666 183.144 136.469 183.205 136.255C183.265 136.042 183.278 135.818 183.241 135.599L183.014 133.713C182.949 133.236 182.716 132.798 182.358 132.477C181.999 132.156 181.538 131.973 181.057 131.961H118.704C118.482 131.955 118.261 131.999 118.058 132.088C117.855 132.178 117.674 132.311 117.528 132.478C117.382 132.645 117.274 132.842 117.213 133.056C117.152 133.269 117.138 133.493 117.174 133.713L117.407 135.599C117.472 136.076 117.705 136.514 118.063 136.835C118.422 137.156 118.883 137.339 119.364 137.351Z" fill="white"/>
<path d="M157.791 106.352H128.748C128.164 106.352 128.071 105.424 128.667 105.424H157.709C158.293 105.424 158.392 106.352 157.791 106.352Z" fill="#263238"/>
<path d="M116.374 108.934H158.141C158.725 108.934 158.825 109.868 158.223 109.868H116.45C115.866 109.868 115.772 108.934 116.374 108.934Z" fill="#263238"/>
<path d="M164.197 110.02H178.371C178.593 110.025 178.813 109.982 179.017 109.892C179.22 109.803 179.401 109.67 179.547 109.503C179.693 109.335 179.801 109.138 179.862 108.925C179.923 108.711 179.936 108.487 179.901 108.268L179.668 106.382C179.604 105.904 179.372 105.466 179.013 105.144C178.654 104.823 178.193 104.641 177.711 104.63H163.52C163.298 104.623 163.077 104.666 162.873 104.755C162.669 104.844 162.488 104.977 162.342 105.145C162.195 105.312 162.088 105.51 162.027 105.724C161.966 105.937 161.954 106.162 161.99 106.382L162.224 108.268C162.289 108.748 162.524 109.188 162.886 109.509C163.248 109.831 163.713 110.012 164.197 110.02Z" fill="#263238"/>
<path opacity="0.7" d="M164.197 110.02H178.371C178.593 110.025 178.813 109.982 179.017 109.892C179.22 109.803 179.401 109.67 179.547 109.503C179.693 109.335 179.801 109.138 179.862 108.925C179.923 108.711 179.936 108.487 179.901 108.268L179.668 106.382C179.604 105.904 179.372 105.466 179.013 105.144C178.654 104.823 178.193 104.641 177.711 104.63H163.52C163.298 104.623 163.077 104.666 162.873 104.755C162.669 104.844 162.488 104.977 162.342 105.145C162.195 105.312 162.088 105.51 162.027 105.724C161.966 105.937 161.954 106.162 161.99 106.382L162.224 108.268C162.289 108.748 162.524 109.188 162.886 109.509C163.248 109.831 163.713 110.012 164.197 110.02Z" fill="white"/>
<path d="M172.186 120.829H179.691C179.913 120.835 180.133 120.791 180.336 120.702C180.54 120.613 180.721 120.48 180.867 120.312C181.013 120.145 181.12 119.948 181.181 119.734C181.243 119.521 181.256 119.297 181.221 119.077L181.098 118.091C181.035 117.614 180.803 117.176 180.446 116.855C180.088 116.534 179.628 116.351 179.148 116.339H171.637C171.415 116.332 171.194 116.375 170.991 116.464C170.787 116.553 170.605 116.686 170.459 116.853C170.313 117.021 170.205 117.219 170.145 117.433C170.084 117.646 170.071 117.871 170.107 118.091L170.23 119.077C170.295 119.554 170.528 119.992 170.886 120.313C171.244 120.634 171.705 120.817 172.186 120.829Z" fill="#263238"/>
<path d="M149.235 120.83H166.656C166.878 120.835 167.098 120.791 167.302 120.702C167.505 120.613 167.686 120.48 167.832 120.312C167.978 120.145 168.085 119.948 168.147 119.734C168.208 119.521 168.221 119.297 168.186 119.078L168.063 118.091C168 117.614 167.768 117.176 167.411 116.855C167.053 116.534 166.593 116.351 166.113 116.339H148.686C148.464 116.332 148.243 116.375 148.04 116.464C147.836 116.553 147.655 116.686 147.509 116.854C147.363 117.021 147.257 117.219 147.197 117.433C147.137 117.647 147.125 117.872 147.162 118.091L147.279 119.078C147.345 119.554 147.578 119.991 147.936 120.312C148.294 120.633 148.755 120.816 149.235 120.83Z" fill="#263238"/>
<path d="M130.623 120.829H143.711C143.932 120.834 144.152 120.79 144.355 120.7C144.558 120.61 144.738 120.477 144.884 120.31C145.03 120.143 145.137 119.946 145.199 119.733C145.261 119.52 145.275 119.297 145.241 119.077L145.118 118.091C145.054 117.613 144.822 117.175 144.463 116.853C144.105 116.532 143.643 116.35 143.162 116.339H130.08C129.858 116.332 129.637 116.375 129.433 116.464C129.229 116.553 129.048 116.686 128.902 116.853C128.755 117.021 128.648 117.219 128.587 117.433C128.526 117.646 128.514 117.871 128.55 118.091L128.667 119.077C128.734 119.553 128.967 119.99 129.325 120.311C129.683 120.631 130.143 120.815 130.623 120.829Z" fill="#263238"/>
<path d="M118.207 120.829H125.098C125.32 120.835 125.541 120.791 125.744 120.702C125.947 120.613 126.128 120.48 126.274 120.312C126.42 120.145 126.528 119.948 126.589 119.734C126.65 119.521 126.664 119.297 126.629 119.077L126.506 118.091C126.442 117.613 126.21 117.175 125.851 116.853C125.492 116.532 125.031 116.35 124.55 116.339H117.664C117.442 116.332 117.221 116.375 117.017 116.464C116.814 116.553 116.632 116.686 116.486 116.853C116.339 117.021 116.232 117.219 116.171 117.433C116.111 117.646 116.098 117.871 116.134 118.091L116.257 119.077C116.322 119.553 116.553 119.991 116.911 120.311C117.268 120.632 117.727 120.816 118.207 120.829Z" fill="#263238"/>
<path d="M167.409 127.364H180.491C180.713 127.371 180.934 127.328 181.138 127.239C181.342 127.15 181.523 127.017 181.669 126.849C181.816 126.682 181.923 126.484 181.984 126.27C182.045 126.056 182.057 125.832 182.021 125.612L181.898 124.625C181.834 124.15 181.602 123.712 181.245 123.392C180.887 123.071 180.428 122.887 179.948 122.873H166.86C166.638 122.868 166.418 122.912 166.215 123.001C166.012 123.09 165.831 123.223 165.684 123.391C165.538 123.558 165.431 123.755 165.37 123.969C165.309 124.182 165.295 124.406 165.33 124.625L165.453 125.612C165.517 126.09 165.749 126.528 166.108 126.85C166.466 127.171 166.928 127.353 167.409 127.364Z" fill="#263238"/>
<path d="M146.321 127.364H161.879C162.101 127.371 162.322 127.328 162.526 127.239C162.729 127.15 162.911 127.017 163.057 126.849C163.204 126.682 163.311 126.484 163.372 126.27C163.433 126.056 163.445 125.832 163.409 125.612L163.292 124.625C163.225 124.15 162.992 123.713 162.634 123.392C162.276 123.072 161.816 122.888 161.336 122.873H145.772C145.55 122.868 145.33 122.912 145.127 123.001C144.923 123.09 144.742 123.223 144.596 123.391C144.45 123.558 144.343 123.755 144.282 123.969C144.22 124.182 144.207 124.406 144.242 124.625L144.365 125.612C144.429 126.09 144.661 126.528 145.019 126.85C145.378 127.171 145.84 127.353 146.321 127.364Z" fill="#263238"/>
<path d="M133.286 127.364H140.791C141.013 127.371 141.234 127.328 141.437 127.239C141.641 127.15 141.823 127.017 141.969 126.849C142.115 126.682 142.223 126.484 142.283 126.27C142.344 126.056 142.357 125.832 142.321 125.612L142.198 124.625C142.133 124.149 141.9 123.711 141.542 123.39C141.184 123.069 140.723 122.886 140.242 122.873H132.737C132.515 122.868 132.295 122.912 132.092 123.001C131.888 123.09 131.707 123.223 131.561 123.391C131.415 123.558 131.308 123.755 131.247 123.969C131.185 124.182 131.172 124.406 131.207 124.625L131.33 125.612C131.394 126.09 131.626 126.528 131.985 126.85C132.343 127.171 132.805 127.353 133.286 127.364Z" fill="#263238"/>
<path d="M119.007 127.364H127.767C127.99 127.371 128.211 127.328 128.414 127.239C128.618 127.15 128.8 127.017 128.946 126.849C129.092 126.682 129.199 126.484 129.26 126.27C129.321 126.056 129.334 125.832 129.297 125.612L129.175 124.625C129.11 124.149 128.877 123.711 128.519 123.39C128.16 123.069 127.699 122.886 127.218 122.873H118.458C118.236 122.868 118.016 122.912 117.813 123.001C117.61 123.09 117.429 123.223 117.282 123.391C117.136 123.558 117.029 123.755 116.968 123.969C116.907 124.182 116.893 124.406 116.928 124.625L117.051 125.612C117.115 126.09 117.347 126.528 117.706 126.85C118.064 127.171 118.526 127.353 119.007 127.364Z" fill="#263238"/>
<g opacity="0.7">
<path d="M172.186 120.829H179.691C179.913 120.835 180.133 120.791 180.336 120.702C180.54 120.613 180.721 120.48 180.867 120.312C181.013 120.145 181.12 119.948 181.181 119.734C181.243 119.521 181.256 119.297 181.221 119.077L181.098 118.091C181.035 117.614 180.803 117.176 180.446 116.855C180.088 116.534 179.628 116.351 179.148 116.339H171.637C171.415 116.332 171.194 116.375 170.991 116.464C170.787 116.553 170.605 116.686 170.459 116.853C170.313 117.021 170.205 117.219 170.145 117.433C170.084 117.646 170.071 117.871 170.107 118.091L170.23 119.077C170.295 119.554 170.528 119.992 170.886 120.313C171.244 120.634 171.705 120.817 172.186 120.829Z" fill="white"/>
<path d="M149.235 120.83H166.656C166.878 120.835 167.098 120.791 167.302 120.702C167.505 120.613 167.686 120.48 167.832 120.312C167.978 120.145 168.085 119.948 168.147 119.734C168.208 119.521 168.221 119.297 168.186 119.078L168.063 118.091C168 117.614 167.768 117.176 167.411 116.855C167.053 116.534 166.593 116.351 166.113 116.339H148.686C148.464 116.332 148.243 116.375 148.04 116.464C147.836 116.553 147.655 116.686 147.509 116.854C147.363 117.021 147.257 117.219 147.197 117.433C147.137 117.647 147.125 117.872 147.162 118.091L147.279 119.078C147.345 119.554 147.578 119.991 147.936 120.312C148.294 120.633 148.755 120.816 149.235 120.83Z" fill="white"/>
<path d="M130.623 120.829H143.711C143.932 120.834 144.152 120.79 144.355 120.7C144.558 120.61 144.738 120.477 144.884 120.31C145.03 120.143 145.137 119.946 145.199 119.733C145.261 119.52 145.275 119.297 145.241 119.077L145.118 118.091C145.054 117.613 144.822 117.175 144.463 116.853C144.105 116.532 143.643 116.35 143.162 116.339H130.08C129.858 116.332 129.637 116.375 129.433 116.464C129.229 116.553 129.048 116.686 128.902 116.853C128.755 117.021 128.648 117.219 128.587 117.433C128.526 117.646 128.514 117.871 128.55 118.091L128.667 119.077C128.734 119.553 128.967 119.99 129.325 120.311C129.683 120.631 130.143 120.815 130.623 120.829Z" fill="white"/>
<path d="M118.207 120.829H125.098C125.32 120.835 125.541 120.791 125.744 120.702C125.947 120.613 126.128 120.48 126.274 120.312C126.42 120.145 126.528 119.948 126.589 119.734C126.65 119.521 126.664 119.297 126.629 119.077L126.506 118.091C126.442 117.613 126.21 117.175 125.851 116.853C125.492 116.532 125.031 116.35 124.55 116.339H117.664C117.442 116.332 117.221 116.375 117.017 116.464C116.814 116.553 116.632 116.686 116.486 116.853C116.339 117.021 116.232 117.219 116.171 117.433C116.111 117.646 116.098 117.871 116.134 118.091L116.257 119.077C116.322 119.553 116.553 119.991 116.911 120.311C117.268 120.632 117.727 120.816 118.207 120.829Z" fill="white"/>
<path d="M167.409 127.364H180.491C180.713 127.371 180.934 127.328 181.138 127.239C181.342 127.15 181.523 127.017 181.669 126.849C181.816 126.682 181.923 126.484 181.984 126.27C182.045 126.056 182.057 125.832 182.021 125.612L181.898 124.625C181.834 124.15 181.602 123.712 181.245 123.392C180.887 123.071 180.428 122.887 179.948 122.873H166.86C166.638 122.868 166.418 122.912 166.215 123.001C166.012 123.09 165.831 123.223 165.684 123.391C165.538 123.558 165.431 123.755 165.37 123.969C165.309 124.182 165.295 124.406 165.33 124.625L165.453 125.612C165.517 126.09 165.749 126.528 166.108 126.85C166.466 127.171 166.928 127.353 167.409 127.364Z" fill="white"/>
<path d="M146.321 127.364H161.879C162.101 127.371 162.322 127.328 162.526 127.239C162.729 127.15 162.911 127.017 163.057 126.849C163.204 126.682 163.311 126.484 163.372 126.27C163.433 126.056 163.445 125.832 163.409 125.612L163.292 124.625C163.225 124.15 162.992 123.713 162.634 123.392C162.276 123.072 161.816 122.888 161.336 122.873H145.772C145.55 122.868 145.33 122.912 145.127 123.001C144.923 123.09 144.742 123.223 144.596 123.391C144.45 123.558 144.343 123.755 144.282 123.969C144.22 124.182 144.207 124.406 144.242 124.625L144.365 125.612C144.429 126.09 144.661 126.528 145.019 126.85C145.378 127.171 145.84 127.353 146.321 127.364Z" fill="white"/>
<path d="M133.286 127.364H140.791C141.013 127.371 141.234 127.328 141.437 127.239C141.641 127.15 141.823 127.017 141.969 126.849C142.115 126.682 142.223 126.484 142.283 126.27C142.344 126.056 142.357 125.832 142.321 125.612L142.198 124.625C142.133 124.149 141.9 123.711 141.542 123.39C141.184 123.069 140.723 122.886 140.242 122.873H132.737C132.515 122.868 132.295 122.912 132.092 123.001C131.888 123.09 131.707 123.223 131.561 123.391C131.415 123.558 131.308 123.755 131.247 123.969C131.185 124.182 131.172 124.406 131.207 124.625L131.33 125.612C131.394 126.09 131.626 126.528 131.985 126.85C132.343 127.171 132.805 127.353 133.286 127.364Z" fill="white"/>
<path d="M119.007 127.364H127.767C127.99 127.371 128.211 127.328 128.414 127.239C128.618 127.15 128.8 127.017 128.946 126.849C129.092 126.682 129.199 126.484 129.26 126.27C129.321 126.056 129.334 125.832 129.297 125.612L129.175 124.625C129.11 124.149 128.877 123.711 128.519 123.39C128.16 123.069 127.699 122.886 127.218 122.873H118.458C118.236 122.868 118.016 122.912 117.813 123.001C117.61 123.09 117.429 123.223 117.282 123.391C117.136 123.558 117.029 123.755 116.968 123.969C116.907 124.182 116.893 124.406 116.928 124.625L117.051 125.612C117.115 126.09 117.347 126.528 117.706 126.85C118.064 127.171 118.526 127.353 119.007 127.364Z" fill="white"/>
</g>
<path d="M143.868 193.263H123.691C123.107 193.263 123.014 192.334 123.609 192.334H143.786C144.37 192.334 144.47 193.263 143.868 193.263Z" fill="#263238"/>
<path d="M190.285 193.263H170.107C169.523 193.263 169.43 192.334 170.026 192.334H190.203C190.787 192.334 190.886 193.263 190.285 193.263Z" fill="#263238"/>
<path d="M186.786 164.688H161.032C160.448 164.688 160.349 163.76 160.95 163.76H186.705C187.289 163.76 187.382 164.688 186.786 164.688Z" fill="#263238"/>
<path d="M161.388 167.31H187.143C187.727 167.31 187.82 168.239 187.224 168.239H161.47C160.886 168.239 160.787 167.31 161.388 167.31Z" fill="#263238"/>
<path d="M161.826 170.885H187.581C188.165 170.885 188.258 171.813 187.662 171.813H161.908C161.324 171.813 161.225 170.885 161.826 170.885Z" fill="#263238"/>
<path d="M162.264 174.458H188.048C188.632 174.458 188.725 175.387 188.124 175.387H162.352C161.768 175.387 161.669 174.458 162.27 174.458H162.264Z" fill="#263238"/>
<path d="M162.702 178.032H188.457C189.041 178.032 189.134 178.967 188.532 178.967H162.784C162.2 178.967 162.101 178.032 162.702 178.032Z" fill="#263238"/>
<path d="M148.278 164.688H128.1C127.516 164.688 127.423 163.76 128.019 163.76H148.196C148.78 163.76 148.879 164.688 148.278 164.688Z" fill="#263238"/>
<path d="M128.48 167.31H148.657C149.241 167.31 149.34 168.239 148.739 168.239H128.538C127.954 168.239 127.855 167.31 128.457 167.31H128.48Z" fill="#263238"/>
<path d="M128.894 170.885H149.072C149.656 170.885 149.749 171.813 149.153 171.813H128.976C128.392 171.813 128.293 170.885 128.894 170.885Z" fill="#263238"/>
<path d="M129.333 174.458H149.504C150.088 174.458 150.181 175.387 149.586 175.387H129.414C128.83 175.387 128.731 174.458 129.333 174.458Z" fill="#263238"/>
<path d="M129.771 178.032H149.948C150.532 178.032 150.625 178.967 150.029 178.967H129.852C129.268 178.967 129.169 178.032 129.771 178.032Z" fill="#263238"/>
<path d="M118.476 146.257L119.007 150.596L119.539 154.935L120.07 159.268H186.372L185.788 154.468L185.256 150.129L184.725 145.795L184.193 141.456H117.886L118.476 146.257ZM130.308 143.857L130.541 145.795H118.861L118.388 141.918H130.068L130.308 143.857ZM131.301 148.196L131.067 146.257H151.396L151.635 148.196L151.869 150.129H131.54L131.301 148.196ZM151.84 146.257H172.169L172.408 148.196L172.642 150.129H152.336L152.097 148.196L151.84 146.257ZM173.173 154.468H152.868L152.628 152.529L152.395 150.596H172.724L172.963 152.529L173.173 154.468ZM152.377 154.468H132.071L131.832 152.529L131.593 150.596H151.927L152.161 152.529L152.377 154.468ZM151.081 143.857L151.314 145.795H131.009L130.769 143.857L130.536 141.918H150.865L151.081 143.857ZM171.877 143.857L172.111 145.795H151.805L151.565 143.857L151.332 141.918H171.661L171.877 143.857ZM184.234 145.795H172.554L172.315 143.857L172.081 141.918H183.761L184.234 145.795ZM184.766 150.129H173.086L172.846 148.196L172.613 146.257H184.293L184.766 150.129ZM185.297 154.468H173.617L173.378 152.529L173.144 150.596H184.824L185.297 154.468ZM173.933 156.868L173.699 154.935H185.379L185.852 158.807H174.172L173.933 156.868ZM153.136 156.868L152.897 154.935H173.232L173.465 156.868L173.705 158.807H153.399L153.136 156.868ZM132.34 156.868L132.101 154.935H152.436L152.669 156.868L152.909 158.807H132.603L132.34 156.868ZM119.983 154.935H131.663L131.896 156.868L132.136 158.807H120.456L119.983 154.935ZM119.451 150.596H131.131L131.365 152.529L131.604 154.468H119.924L119.451 150.596ZM118.92 146.257H130.6L130.833 148.196L131.073 150.129H119.393L118.92 146.257Z" fill="#407BFF"/>
<path opacity="0.5" d="M118.476 146.257L119.007 150.596L119.539 154.935L120.07 159.268H186.372L185.788 154.468L185.256 150.129L184.725 145.795L184.193 141.456H117.886L118.476 146.257ZM130.308 143.857L130.541 145.795H118.861L118.388 141.918H130.068L130.308 143.857ZM131.301 148.196L131.067 146.257H151.396L151.635 148.196L151.869 150.129H131.54L131.301 148.196ZM151.84 146.257H172.169L172.408 148.196L172.642 150.129H152.336L152.097 148.196L151.84 146.257ZM173.173 154.468H152.868L152.628 152.529L152.395 150.596H172.724L172.963 152.529L173.173 154.468ZM152.377 154.468H132.071L131.832 152.529L131.593 150.596H151.927L152.161 152.529L152.377 154.468ZM151.081 143.857L151.314 145.795H131.009L130.769 143.857L130.536 141.918H150.865L151.081 143.857ZM171.877 143.857L172.111 145.795H151.805L151.565 143.857L151.332 141.918H171.661L171.877 143.857ZM184.234 145.795H172.554L172.315 143.857L172.081 141.918H183.761L184.234 145.795ZM184.766 150.129H173.086L172.846 148.196L172.613 146.257H184.293L184.766 150.129ZM185.297 154.468H173.617L173.378 152.529L173.144 150.596H184.824L185.297 154.468ZM173.933 156.868L173.699 154.935H185.379L185.852 158.807H174.172L173.933 156.868ZM153.136 156.868L152.897 154.935H173.232L173.465 156.868L173.705 158.807H153.399L153.136 156.868ZM132.34 156.868L132.101 154.935H152.436L152.669 156.868L152.909 158.807H132.603L132.34 156.868ZM119.983 154.935H131.663L131.896 156.868L132.136 158.807H120.456L119.983 154.935ZM119.451 150.596H131.131L131.365 152.529L131.604 154.468H119.924L119.451 150.596ZM118.92 146.257H130.6L130.833 148.196L131.073 150.129H119.393L118.92 146.257Z" fill="white"/>
<path d="M122.418 167.608H124.339C124.422 167.608 124.503 167.592 124.579 167.558C124.654 167.525 124.722 167.476 124.777 167.415C124.832 167.354 124.873 167.281 124.899 167.203C124.924 167.125 124.932 167.042 124.923 166.96L124.69 165.038C124.665 164.862 124.579 164.701 124.446 164.582C124.314 164.463 124.143 164.395 123.966 164.39H122.038C121.956 164.39 121.874 164.407 121.799 164.44C121.724 164.473 121.656 164.522 121.601 164.583C121.546 164.644 121.504 164.717 121.479 164.795C121.454 164.874 121.445 164.956 121.454 165.038L121.688 166.96C121.714 167.136 121.801 167.298 121.935 167.417C122.068 167.535 122.239 167.603 122.418 167.608Z" fill="#407BFF"/>
<path d="M122.844 171.112H124.771C124.854 171.113 124.935 171.096 125.011 171.062C125.086 171.029 125.154 170.98 125.209 170.919C125.264 170.858 125.306 170.786 125.331 170.707C125.356 170.629 125.365 170.546 125.355 170.464L125.122 168.543C125.096 168.366 125.008 168.204 124.875 168.086C124.741 167.967 124.57 167.899 124.392 167.894H122.47C122.388 167.894 122.306 167.911 122.231 167.944C122.156 167.977 122.088 168.026 122.033 168.087C121.978 168.149 121.936 168.221 121.911 168.299C121.886 168.378 121.877 168.461 121.886 168.543L122.12 170.464C122.145 170.64 122.231 170.802 122.364 170.92C122.496 171.039 122.666 171.107 122.844 171.112Z" fill="#407BFF"/>
<path d="M123.276 174.616H125.198C125.28 174.617 125.361 174.6 125.436 174.567C125.511 174.534 125.578 174.486 125.633 174.425C125.688 174.365 125.73 174.293 125.755 174.215C125.781 174.138 125.79 174.055 125.782 173.974L125.542 172.047C125.517 171.871 125.431 171.71 125.298 171.592C125.166 171.475 124.996 171.408 124.818 171.404H122.897C122.815 171.404 122.734 171.421 122.659 171.454C122.584 171.487 122.517 171.535 122.462 171.595C122.407 171.656 122.365 171.728 122.339 171.805C122.314 171.883 122.305 171.965 122.313 172.047L122.552 173.974C122.577 174.149 122.664 174.31 122.796 174.428C122.929 174.546 123.099 174.613 123.276 174.616Z" fill="#407BFF"/>
<path d="M123.708 178.12H125.63C125.712 178.121 125.794 178.104 125.869 178.07C125.945 178.037 126.012 177.988 126.067 177.927C126.122 177.866 126.164 177.794 126.189 177.715C126.215 177.637 126.223 177.554 126.214 177.472L125.98 175.551C125.955 175.373 125.868 175.211 125.734 175.092C125.601 174.973 125.429 174.906 125.25 174.902H123.329C123.246 174.902 123.165 174.919 123.089 174.952C123.014 174.985 122.947 175.034 122.891 175.095C122.836 175.157 122.795 175.229 122.769 175.307C122.744 175.386 122.736 175.469 122.745 175.551L122.978 177.472C123.005 177.649 123.092 177.81 123.225 177.929C123.359 178.048 123.53 178.115 123.708 178.12Z" fill="#407BFF"/>
<path opacity="0.5" d="M122.844 171.112H124.771C124.854 171.113 124.935 171.096 125.011 171.062C125.086 171.029 125.154 170.98 125.209 170.919C125.264 170.858 125.306 170.786 125.331 170.707C125.356 170.629 125.365 170.546 125.355 170.464L125.122 168.543C125.096 168.366 125.008 168.204 124.875 168.086C124.741 167.967 124.57 167.899 124.392 167.894H122.47C122.388 167.894 122.306 167.911 122.231 167.944C122.156 167.977 122.088 168.026 122.033 168.087C121.978 168.149 121.936 168.221 121.911 168.299C121.886 168.378 121.877 168.461 121.886 168.543L122.12 170.464C122.145 170.64 122.231 170.802 122.364 170.92C122.496 171.039 122.666 171.107 122.844 171.112Z" fill="white"/>
<path opacity="0.5" d="M123.708 178.12H125.63C125.712 178.121 125.794 178.104 125.869 178.07C125.945 178.037 126.012 177.988 126.067 177.927C126.122 177.866 126.164 177.794 126.189 177.715C126.215 177.637 126.223 177.554 126.214 177.472L125.98 175.551C125.955 175.373 125.868 175.211 125.734 175.092C125.601 174.973 125.429 174.906 125.25 174.902H123.329C123.246 174.902 123.165 174.919 123.089 174.952C123.014 174.985 122.947 175.034 122.891 175.095C122.836 175.157 122.795 175.229 122.769 175.307C122.744 175.386 122.736 175.469 122.745 175.551L122.978 177.472C123.005 177.649 123.092 177.81 123.225 177.929C123.359 178.048 123.53 178.115 123.708 178.12Z" fill="white"/>
<path d="M132.147 74.0277H139.739L138.571 71.1719C138.192 70.2726 138.992 69.4199 140.183 69.4199H147.577C148.745 69.4199 149.72 70.2901 149.498 71.1719L148.797 74.0277H156.389C157.519 74.0462 158.602 74.4786 159.435 75.2428C160.267 76.0071 160.789 77.0501 160.904 78.1741L161.488 84.8375C161.521 85.1423 161.489 85.4506 161.394 85.742C161.298 86.0334 161.142 86.3012 160.936 86.5277C160.729 86.7541 160.477 86.934 160.195 87.0555C159.914 87.1769 159.61 87.237 159.303 87.2319H131.546C130.895 87.2195 130.271 86.9691 129.792 86.5279C129.313 86.0867 129.013 85.4853 128.947 84.8375L128.363 78.1741C128.305 77.6461 128.36 77.1117 128.524 76.6067C128.689 76.1016 128.959 75.6374 129.318 75.2451C129.676 74.8527 130.113 74.5412 130.601 74.3312C131.089 74.1213 131.616 74.0178 132.147 74.0277Z" fill="#407BFF"/>
<path opacity="0.2" d="M148.797 74.0279H139.728L139.021 72.3459H149.212L148.797 74.0279Z" fill="black"/>
<path d="M154.906 83.2377C154.941 83.5869 155.104 83.911 155.362 84.1488C155.62 84.3865 155.957 84.5216 156.307 84.5283C156.472 84.5292 156.634 84.4955 156.785 84.4293C156.935 84.363 157.07 84.2659 157.18 84.1441C157.29 84.0223 157.373 83.8786 157.424 83.7224C157.475 83.5662 157.493 83.401 157.475 83.2377C157.44 82.8885 157.278 82.5644 157.019 82.3266C156.761 82.0888 156.425 81.9538 156.074 81.947C155.91 81.9461 155.747 81.9799 155.597 82.0461C155.446 82.1123 155.312 82.2095 155.201 82.3313C155.091 82.4531 155.008 82.5968 154.957 82.753C154.906 82.9091 154.889 83.0743 154.906 83.2377Z" fill="#263238"/>
<path d="M132.65 83.2375C132.687 83.5872 132.85 83.9114 133.109 84.149C133.368 84.3867 133.705 84.5215 134.057 84.5281C134.221 84.529 134.384 84.4953 134.534 84.4291C134.685 84.3628 134.819 84.2657 134.93 84.1439C135.04 84.0221 135.123 83.8784 135.174 83.7222C135.225 83.566 135.242 83.4008 135.225 83.2375C135.191 82.8878 135.029 82.563 134.77 82.3249C134.512 82.0869 134.175 81.9523 133.823 81.9468C133.659 81.9451 133.495 81.9783 133.344 82.0441C133.193 82.1099 133.058 82.207 132.947 82.3289C132.836 82.4508 132.752 82.5948 132.701 82.7514C132.65 82.9079 132.632 83.0736 132.65 83.2375Z" fill="#263238"/>
<path d="M181.764 188.544L147.425 195.26C147.043 195.349 146.648 195.355 146.264 195.279C145.88 195.203 145.516 195.046 145.197 194.819C144.878 194.592 144.611 194.301 144.413 193.963C144.215 193.625 144.091 193.249 144.049 192.86L143.465 187.639C143.398 186.813 143.637 185.991 144.137 185.33C144.636 184.668 145.362 184.214 146.175 184.053L180.514 177.337C180.896 177.249 181.292 177.243 181.676 177.319C182.061 177.395 182.424 177.552 182.744 177.778C183.063 178.005 183.331 178.297 183.53 178.635C183.728 178.972 183.853 179.348 183.896 179.738L184.48 184.959C184.547 185.786 184.307 186.608 183.806 187.27C183.305 187.931 182.578 188.385 181.764 188.544ZM146.274 184.924C145.698 185.038 145.184 185.36 144.83 185.828C144.476 186.296 144.306 186.879 144.353 187.464L144.937 192.685C144.967 192.961 145.055 193.227 145.196 193.466C145.336 193.706 145.526 193.913 145.752 194.073C145.978 194.234 146.236 194.345 146.508 194.398C146.781 194.452 147.061 194.447 147.331 194.384L181.665 187.674C182.242 187.56 182.757 187.237 183.111 186.768C183.465 186.298 183.635 185.714 183.586 185.128L183.002 179.907C182.972 179.632 182.884 179.366 182.744 179.128C182.604 178.889 182.415 178.683 182.189 178.523C181.963 178.363 181.706 178.253 181.434 178.199C181.163 178.146 180.883 178.151 180.614 178.213L146.274 184.924Z" fill="#407BFF"/>
<path d="M151.139 189.876L149.387 190.215L149.142 191.067L148.26 191.243L149.515 187.248L150.368 187.079L152.447 190.419L151.536 190.6L151.139 189.876ZM150.794 189.292L150.047 188.001L149.609 189.526L150.794 189.292Z" fill="#407BFF"/>
<path d="M154.935 186.354C155.176 186.402 155.395 186.528 155.556 186.713C155.718 186.898 155.814 187.131 155.829 187.376C155.86 187.63 155.818 187.888 155.706 188.118C155.597 188.358 155.42 188.561 155.198 188.702C154.94 188.865 154.652 188.976 154.351 189.029L153.604 189.175L153.715 190.191L152.85 190.355L152.441 186.687L154.059 186.372C154.347 186.305 154.645 186.299 154.935 186.354ZM154.801 188.054C154.862 187.986 154.908 187.905 154.934 187.817C154.961 187.729 154.967 187.636 154.953 187.546C154.95 187.458 154.925 187.372 154.88 187.296C154.835 187.221 154.772 187.158 154.696 187.114C154.513 187.029 154.307 187.011 154.112 187.061L153.405 187.201L153.551 188.474L154.252 188.334C154.461 188.302 154.654 188.201 154.801 188.048V188.054Z" fill="#407BFF"/>
<path d="M158.783 185.601C159.02 185.653 159.234 185.778 159.397 185.957C159.561 186.142 159.66 186.376 159.677 186.623C159.709 186.877 159.666 187.135 159.554 187.365C159.445 187.605 159.269 187.807 159.046 187.949C158.791 188.113 158.505 188.224 158.205 188.276L157.452 188.422L157.563 189.438L156.699 189.607L156.29 185.934L157.907 185.619C158.195 185.552 158.493 185.546 158.783 185.601ZM158.649 187.301C158.711 187.233 158.757 187.152 158.783 187.064C158.809 186.976 158.815 186.883 158.801 186.793C158.798 186.705 158.773 186.619 158.728 186.543C158.683 186.468 158.62 186.405 158.544 186.36C158.36 186.279 158.155 186.26 157.96 186.308L157.253 186.448L157.399 187.721L158.1 187.581C158.309 187.551 158.503 187.453 158.649 187.301Z" fill="#407BFF"/>
<path d="M162.936 188.375L162.101 187.493H162.054L161.306 187.639L161.417 188.661L160.553 188.831L160.144 185.163L161.762 184.848C162.052 184.781 162.354 184.781 162.644 184.848C162.879 184.898 163.094 185.021 163.257 185.198C163.416 185.386 163.512 185.619 163.531 185.864C163.563 186.12 163.521 186.379 163.409 186.611C163.295 186.85 163.117 187.052 162.895 187.195L163.859 188.212L162.936 188.375ZM162.399 185.607C162.215 185.525 162.009 185.509 161.815 185.56L161.108 185.695L161.254 186.973L161.955 186.839C162.176 186.812 162.382 186.712 162.539 186.553C162.602 186.486 162.649 186.405 162.676 186.317C162.702 186.229 162.707 186.136 162.691 186.045C162.685 185.952 162.654 185.862 162.602 185.785C162.549 185.708 162.477 185.647 162.393 185.607H162.399Z" fill="#407BFF"/>
<path d="M165.208 187.744C164.889 187.646 164.607 187.454 164.399 187.194C164.191 186.933 164.066 186.617 164.04 186.284C163.997 185.936 164.052 185.582 164.197 185.262C164.342 184.937 164.567 184.654 164.851 184.439C165.152 184.211 165.502 184.057 165.873 183.989C166.227 183.914 166.595 183.928 166.942 184.03C167.257 184.128 167.537 184.314 167.748 184.567C167.963 184.83 168.094 185.152 168.122 185.49C168.164 185.839 168.11 186.192 167.964 186.512C167.817 186.836 167.592 187.119 167.31 187.335C167.01 187.562 166.663 187.716 166.294 187.785C165.934 187.863 165.561 187.848 165.208 187.744ZM166.784 186.792C166.947 186.66 167.073 186.49 167.152 186.296C167.235 186.095 167.265 185.876 167.24 185.659C167.22 185.448 167.144 185.246 167.018 185.075C166.901 184.921 166.74 184.805 166.557 184.743C166.357 184.675 166.143 184.663 165.938 184.707C165.724 184.748 165.523 184.84 165.354 184.976C165.188 185.106 165.059 185.277 164.98 185.473C164.899 185.674 164.871 185.893 164.898 186.109C164.916 186.32 164.991 186.522 165.114 186.693C165.234 186.848 165.396 186.964 165.581 187.026C165.77 187.089 165.971 187.101 166.165 187.061C166.392 187.027 166.605 186.935 166.784 186.792Z" fill="#407BFF"/>
<path d="M172.023 182.85L170.82 186.833L169.967 187.003L167.947 183.645L168.881 183.464L170.306 185.864L171.164 183.02L172.023 182.85Z" fill="#407BFF"/>
<path d="M175.556 185.21L175.632 185.893L172.741 186.477L172.333 182.804L175.153 182.255L175.229 182.938L173.267 183.318L173.355 184.118L175.107 183.779L175.182 184.439L173.43 184.778L173.524 185.624L175.556 185.21Z" fill="#407BFF"/>
<path d="M175.912 182.091L177.606 181.758C177.967 181.671 178.343 181.671 178.704 181.758C179.016 181.84 179.295 182.015 179.504 182.261C179.712 182.522 179.838 182.839 179.866 183.172C179.912 183.518 179.859 183.87 179.714 184.188C179.571 184.503 179.345 184.774 179.06 184.97C178.749 185.194 178.392 185.344 178.015 185.408L176.321 185.741L175.912 182.091ZM177.892 184.737C178.227 184.687 178.532 184.517 178.751 184.258C178.85 184.132 178.922 183.987 178.964 183.833C179.006 183.679 179.017 183.517 178.996 183.358C178.987 183.207 178.944 183.06 178.87 182.927C178.797 182.795 178.694 182.68 178.57 182.593C178.431 182.512 178.278 182.458 178.118 182.436C177.959 182.414 177.797 182.424 177.641 182.465L176.853 182.617L177.104 184.894L177.892 184.737Z" fill="#407BFF"/>
</g>
</svg>
