<svg width="115" height="127" viewBox="0 0 115 127" fill="none" xmlns="http://www.w3.org/2000/svg">
<path d="M114.588 3.50811C114.588 4.86038 114.57 6.23397 114.537 7.59105C114.52 8.26805 113.958 8.80262 113.281 8.7861C112.605 8.76959 112.072 8.20646 112.087 7.5305C112.12 6.19303 112.136 4.84008 112.136 3.50846C112.136 2.79672 112.132 2.11182 112.124 1.4565C112.124 1.45065 112.124 1.44549 112.124 1.43998C112.124 0.770564 112.662 0.223597 113.333 0.214656C114.01 0.20605 114.565 0.747508 114.575 1.4245C114.583 2.08979 114.588 2.78536 114.588 3.50811ZM114.271 13.6757C114.271 13.7012 114.269 13.7273 114.268 13.7538C114.139 15.8168 113.969 17.8852 113.763 19.9018C113.695 20.5753 113.093 21.0655 112.42 20.9967C111.746 20.9283 111.254 20.3259 111.325 19.6531C111.527 17.6682 111.694 15.6324 111.821 13.6007C111.864 12.9251 112.445 12.4119 113.121 12.4538C113.771 12.4944 114.271 13.0338 114.271 13.6757ZM113.022 25.8502C113.022 25.9087 113.017 25.9679 113.009 26.0277C112.71 28.0883 112.366 30.1371 111.984 32.1183C111.856 32.7829 111.214 33.218 110.549 33.0897C109.884 32.9621 109.448 32.3198 109.577 31.6549C109.951 29.7109 110.289 27.6992 110.583 25.6758C110.68 25.006 111.302 24.5416 111.971 24.6387C112.582 24.7271 113.022 25.2506 113.022 25.8502ZM110.7 37.8627C110.7 37.9597 110.689 38.0581 110.664 38.1565C110.165 40.1888 109.611 42.1957 109.018 44.1214C108.82 44.7688 108.134 45.1321 107.487 44.9326C106.84 44.7341 106.476 44.0485 106.676 43.4011C107.255 41.5194 107.796 39.5579 108.284 37.571C108.446 36.914 109.11 36.5118 109.767 36.6738C110.326 36.8111 110.7 37.312 110.7 37.8627ZM107.091 49.5477C107.091 49.6925 107.065 49.8401 107.011 49.9832C106.264 51.9492 105.452 53.8732 104.6 55.7008C104.314 56.3142 103.585 56.5791 102.971 56.2932C102.358 56.0066 102.092 55.2777 102.378 54.6644C103.206 52.8907 103.994 51.0228 104.72 49.1125C104.96 48.4796 105.668 48.1617 106.3 48.4022C106.79 48.5876 107.091 49.0537 107.091 49.5477ZM101.905 60.6131C101.905 60.8199 101.853 61.029 101.742 61.2213C100.695 63.0504 99.5704 64.8182 98.4005 66.4759C98.01 67.0287 97.2457 67.1608 96.6925 66.7704C96.139 66.3803 96.0073 65.6152 96.3977 65.0624C97.5236 63.4677 98.6062 61.7652 99.6155 60.0029C99.9523 59.4157 100.7 59.2124 101.288 59.5488C101.684 59.7752 101.905 60.1883 101.905 60.6131ZM94.8487 70.5709C94.8487 70.8578 94.7479 71.1461 94.5436 71.379C93.1583 72.9583 91.6839 74.4571 90.1631 75.8331C89.6608 76.2872 88.8858 76.2483 88.4317 75.7464C87.9776 75.2445 88.0161 74.4695 88.5184 74.0154C89.9704 72.702 91.3781 71.2713 92.7014 69.7625C93.1483 69.2537 93.9223 69.2032 94.4307 69.6497C94.707 69.8912 94.8487 70.2304 94.8487 70.5709ZM85.8001 78.7361C85.8001 79.1214 85.6192 79.5008 85.2796 79.7395C83.5817 80.9353 81.7898 82.0378 79.9538 83.0161C79.3566 83.3347 78.614 83.1083 78.2958 82.5112C77.9776 81.914 78.2036 81.1713 78.8011 80.8531C79.2345 80.6222 79.6649 80.3842 80.0921 80.1393C80.0928 80.1369 80.0938 80.1341 80.0945 80.1317C80.755 78.248 81.3202 76.3157 81.775 74.3883C81.9308 73.7295 82.5906 73.3215 83.2497 73.477C83.9081 73.6325 84.3171 74.2923 84.1606 74.9514C83.9112 76.0078 83.6298 77.0656 83.3195 78.1162C83.5036 77.9903 83.6869 77.8634 83.8692 77.7354C84.4224 77.3456 85.1874 77.4781 85.5768 78.0316C85.7275 78.2462 85.8001 78.4925 85.8001 78.7361ZM85.6656 62.5536C85.6656 62.5554 85.6656 62.5567 85.6656 62.5585C85.658 64.6018 85.5228 66.7026 85.2642 68.8031C85.1816 69.4749 84.5696 69.9524 83.8981 69.8698C83.2263 69.7873 82.7499 69.1767 82.831 68.5038C83.0777 66.4993 83.2067 64.4959 83.2139 62.5492C83.2167 61.8722 83.7674 61.3256 84.4441 61.328C85.12 61.3304 85.6656 61.8787 85.6656 62.5536ZM85.2848 56.4562C85.2848 57.0613 84.8369 57.5877 84.2208 57.6699C83.5497 57.759 82.9336 57.2877 82.8441 56.6162C82.5734 54.5852 82.1534 52.6447 81.5964 50.848C81.3955 50.2016 81.7571 49.5143 82.4034 49.3141C83.0502 49.1136 83.7368 49.4751 83.9374 50.1215C84.5352 52.0493 84.9852 54.1256 85.2738 56.2925C85.281 56.3479 85.2848 56.4022 85.2848 56.4562ZM81.5758 44.882C81.5758 45.3045 81.3567 45.7155 80.9655 45.9429C80.3804 46.2828 79.6301 46.084 79.2902 45.4988C78.271 43.7441 77.0725 42.2477 75.7274 41.0506C75.2214 40.6003 75.1763 39.8256 75.627 39.3202C76.0769 38.8146 76.8516 38.7695 77.3573 39.2194C78.8967 40.5896 80.26 42.2879 81.41 44.2676C81.5218 44.461 81.5758 44.6725 81.5758 44.882ZM80.1592 86.1937C80.1592 86.3688 80.1214 86.547 80.0415 86.7159C79.1547 88.5951 78.1602 90.4445 77.0862 92.2126C76.7347 92.7913 75.9803 92.9753 75.402 92.6234C74.8238 92.2722 74.639 91.5181 74.9913 90.9395C76.0212 89.2446 76.9751 87.4713 77.8252 85.6694C78.1138 85.0574 78.8444 84.7953 79.4564 85.0843C79.8995 85.2934 80.1592 85.7341 80.1592 86.1937ZM75.0491 84.4737C75.0491 84.9656 74.7515 85.4293 74.2651 85.6171C72.2039 86.4138 70.1829 87.0392 68.2585 87.4758C67.598 87.6254 66.9417 87.2116 66.7917 86.5514C66.6417 85.891 67.0566 85.2346 67.7164 85.085C69.5248 84.6749 71.4309 84.0846 73.3817 83.3306C74.013 83.0867 74.7226 83.4007 74.9665 84.032C75.0226 84.1775 75.0491 84.3268 75.0491 84.4737ZM73.8169 96.6234C73.8169 96.8831 73.735 97.1449 73.5651 97.3671C72.3019 99.0194 70.9369 100.616 69.509 102.114C69.0418 102.604 68.2661 102.623 67.7759 102.156C67.286 101.689 67.2674 100.913 67.7346 100.423C69.102 98.9891 70.4085 97.46 71.618 95.8783C72.0291 95.3406 72.7986 95.2381 73.336 95.6492C73.6518 95.8903 73.8169 96.2546 73.8169 96.6234ZM72.5282 37.078C72.5282 37.206 72.508 37.336 72.4656 37.464C72.2527 38.1066 71.5592 38.4547 70.917 38.2421C69.5107 37.776 67.9998 37.5393 66.426 37.5393C66.0741 37.5393 65.7139 37.551 65.3545 37.5744C64.6792 37.6185 64.0961 37.1066 64.0524 36.431C64.0074 35.7536 64.5206 35.1726 65.1959 35.1289C65.6076 35.1021 66.0215 35.0887 66.426 35.0887C68.2623 35.0887 70.0325 35.367 71.6878 35.9157C72.2028 36.0853 72.5282 36.5644 72.5282 37.078ZM65.3944 105.452C65.3944 105.801 65.2458 106.148 64.9575 106.391C63.3727 107.724 61.6926 108.986 59.9647 110.141C59.4022 110.518 58.641 110.367 58.2646 109.804C57.8883 109.242 58.0393 108.48 58.6018 108.104C60.2554 106.998 61.8625 105.79 63.3796 104.514C63.8976 104.079 64.6706 104.146 65.1068 104.664C65.2998 104.893 65.3944 105.174 65.3944 105.452ZM63.157 87.0396C63.157 87.7093 62.619 88.2563 61.9475 88.2649C61.8347 88.2663 61.7222 88.267 61.6104 88.267C59.4683 88.267 57.4301 87.9894 55.5515 87.4424C54.9017 87.2532 54.5288 86.5731 54.7176 85.9229C54.9072 85.2731 55.5869 84.8995 56.2371 85.0891C57.8928 85.5714 59.7008 85.8156 61.6104 85.8156C61.7118 85.8156 61.8137 85.8149 61.9158 85.8139C62.5928 85.805 63.1484 86.3464 63.157 87.0234C63.157 87.0289 63.157 87.0341 63.157 87.0396ZM60.5419 37.6064C60.5419 38.1076 60.232 38.5779 59.7335 38.7588C57.9392 39.4093 56.233 40.3182 54.6619 41.4616C54.1146 41.8593 53.3482 41.7389 52.9495 41.1916C52.5511 40.6439 52.6719 39.8775 53.2195 39.4795C54.9767 38.2005 56.8873 37.183 58.8983 36.454C59.5347 36.2235 60.2375 36.5524 60.4679 37.1892C60.5185 37.3271 60.5419 37.4681 60.5419 37.6064ZM55.2818 112.29C55.2818 112.718 55.0582 113.133 54.6588 113.358C52.8556 114.377 51.0193 115.351 49.2013 116.254C48.5948 116.555 47.8597 116.308 47.5583 115.702C47.2577 115.096 47.5047 114.36 48.1108 114.059C49.8903 113.176 51.6874 112.222 53.4531 111.224C54.0424 110.891 54.7899 111.099 55.1229 111.689C55.2309 111.879 55.2818 112.086 55.2818 112.29ZM51.6839 83.5542C51.6839 83.8118 51.6031 84.0712 51.4352 84.2924C51.0269 84.8325 50.2584 84.9388 49.7186 84.5308C48.0176 83.2442 46.5339 81.6357 45.3089 79.7506C44.9398 79.183 45.1011 78.4237 45.6691 78.055C46.2367 77.6862 46.9959 77.8472 47.3643 78.4151C48.4338 80.0615 49.7231 81.4613 51.1975 82.5758C51.516 82.817 51.6839 83.1833 51.6839 83.5542ZM50.7427 44.6639C50.7427 44.9388 50.6509 45.2147 50.463 45.4427C49.2584 46.9054 48.1841 48.5511 47.2707 50.3341C46.9622 50.9368 46.2239 51.1745 45.6213 50.8662C45.0189 50.5573 44.7809 49.8188 45.0894 49.2164C46.0829 47.277 47.2542 45.483 48.5714 43.8848C49.0014 43.3619 49.774 43.2876 50.2966 43.7176C50.5903 43.9598 50.7427 44.3106 50.7427 44.6639ZM45.1548 55.4528C45.1548 55.567 45.1386 55.6826 45.1049 55.7978C44.5545 57.6778 44.1699 59.6217 43.9618 61.5757C43.8902 62.2485 43.2865 62.736 42.6133 62.6641C41.9401 62.5925 41.4516 61.9885 41.5246 61.3156C41.7482 59.2168 42.1613 57.1288 42.7526 55.1088C42.9429 54.4593 43.6236 54.0868 44.2731 54.277C44.8077 54.4335 45.1548 54.9227 45.1548 55.4528ZM45.0127 73.5482C45.0127 74.0718 44.6742 74.5565 44.1479 74.7189C43.5012 74.9184 42.8149 74.5558 42.6154 73.9091C42.0089 71.9435 41.6116 69.8372 41.4341 67.6493C41.3797 66.974 41.882 66.3834 42.5569 66.3287C43.2315 66.274 43.8228 66.7766 43.8775 67.4515C44.0406 69.4619 44.4038 71.3914 44.9577 73.1867C44.9948 73.3067 45.0127 73.4285 45.0127 73.5482ZM44.333 117.722C44.333 118.197 44.0543 118.65 43.5893 118.849C41.6845 119.665 39.7478 120.426 37.8328 121.114C37.1957 121.344 36.4936 121.013 36.2648 120.376C36.0357 119.739 36.367 119.037 37.0037 118.808C38.8734 118.136 40.7643 117.392 42.6243 116.596C43.2466 116.329 43.967 116.618 44.2332 117.24C44.301 117.397 44.333 117.561 44.333 117.722ZM32.8293 121.848C32.8293 122.38 32.4805 122.87 31.9445 123.025C29.9541 123.601 27.9345 124.115 25.9414 124.552C25.2802 124.698 24.6266 124.279 24.4818 123.618C24.3349 122.957 24.7549 122.303 25.4164 122.158C27.3569 121.732 29.3239 121.232 31.2624 120.67C31.9125 120.482 32.5923 120.856 32.7808 121.506C32.8134 121.621 32.8293 121.735 32.8293 121.848ZM20.8914 124.46C20.8914 125.058 20.4535 125.581 19.8446 125.671C17.7886 125.974 15.7142 126.203 13.6784 126.352C13.0035 126.401 12.4163 125.894 12.3668 125.219C12.3155 124.545 12.8246 123.957 13.4996 123.907C15.4755 123.763 17.49 123.54 19.4869 123.246C20.1567 123.147 20.7796 123.61 20.878 124.28C20.887 124.34 20.8914 124.4 20.8914 124.46ZM8.70421 125.339C8.70421 125.341 8.70421 125.344 8.70421 125.346C8.70077 126.023 8.149 126.569 7.472 126.565C5.36328 126.554 3.27314 126.454 1.26005 126.269C0.586157 126.207 0.0907965 125.61 0.152029 124.936C0.213948 124.262 0.810789 123.766 1.48468 123.828C3.42794 124.007 5.44687 124.103 7.48507 124.114C8.16 124.117 8.70421 124.665 8.70421 125.339Z" fill="white"/>
</svg>
